<svg width="120" height="120" viewBox="0 0 120 120" fill="none" xmlns="http://www.w3.org/2000/svg">
<g clip-path="url(#clip0_5295_93961)">
<path fill-rule="evenodd" clip-rule="evenodd" d="M64.3692 57.9438C64.3692 57.9438 62.4514 57.9996 61.1553 56.9364C59.859 55.8731 59.0292 55.9146 58.4627 55.6341C57.8962 55.3535 53.5665 53.0913 52.9314 50.7009C52.2964 48.3105 52.8665 47.0842 53.1298 46.0809C53.3933 45.0776 53.4059 43.6618 53.6738 42.8254C53.9416 41.989 54.8026 37.291 55.2754 34.6169C55.7482 31.9428 57.0152 28.595 58.111 26.9228C59.2067 25.2506 60.567 23.9897 61.2646 23.6501C61.9623 23.3104 63.3015 23.5084 63.3015 23.5084C63.3015 23.5084 66.1028 21.6892 66.999 21.3329C67.8953 20.9766 70.9321 21.2701 73.294 22.2622C75.6559 23.2542 79.1092 26.135 80.096 31.3446C81.0828 36.5543 81.5187 41.2329 81.6523 42.9566C81.7858 44.6805 82.3464 46.8684 81.813 48.994C81.2797 51.1195 80.9001 52.319 79.951 53.4345C79.0021 54.55 78.3184 55.6067 76.9169 56.6248C75.5154 57.6431 73.758 57.8737 72.9918 58.3489C72.2255 58.824 69.5578 58.8442 68.7828 58.9044C68.0077 58.9646 64.3692 57.9438 64.3692 57.9438Z" fill="#6492FE"/>
<path fill-rule="evenodd" clip-rule="evenodd" d="M60.7435 31.2593C60.7435 31.2593 60.6294 31.4381 59.7862 33.1819C58.943 34.9256 58.2985 36.0341 58.1093 36.8761C57.92 37.7179 57.9131 39.3673 58.1792 41.1139C58.4453 42.8604 59.3802 48.8443 60.4057 50.4694C61.4313 52.0946 63.1609 53.6686 63.1609 53.6686C63.1609 53.6686 63.1955 57.3562 62.8732 58.527C62.551 59.6976 61.1557 62.8269 61.1557 62.8269C61.1557 62.8269 62.9017 65.3688 65.2838 66.943C67.6657 68.5172 67.9715 72.6672 68.9522 72.0575C69.9328 71.4477 71.7783 67.8342 72.2655 66.9177C72.7528 66.0013 73.7032 62.838 73.7032 62.838L73.2738 62.236C73.2738 62.236 72.8202 61.8009 72.6759 60.0166C72.5317 58.2323 72.7277 52.9646 72.7277 52.9646C72.7277 52.9646 74.2216 50.5506 75.0148 47.2031C75.8079 43.8556 76.0748 39.0477 76.0748 39.0477C76.0748 39.0477 75.2497 38.3133 73.635 37.5871C72.0202 36.8609 69.1777 36.0323 67.5301 35.7416C65.8824 35.4509 63.0158 34.3938 62.0853 33.1115C61.1548 31.8291 60.7435 31.2593 60.7435 31.2593Z" fill="#FFEDF0"/>
<mask id="mask0_5295_93961" style="mask-type:luminance" maskUnits="userSpaceOnUse" x="57" y="31" width="20" height="42">
<path d="M60.7435 31.2593C60.7435 31.2593 60.6294 31.4381 59.7862 33.1819C58.943 34.9256 58.2985 36.0341 58.1093 36.8761C57.92 37.7179 57.9131 39.3673 58.1792 41.1139C58.4453 42.8604 59.3802 48.8443 60.4057 50.4694C61.4313 52.0946 63.1609 53.6686 63.1609 53.6686C63.1609 53.6686 63.1955 57.3562 62.8732 58.527C62.551 59.6976 61.1557 62.8269 61.1557 62.8269C61.1557 62.8269 62.9017 65.3688 65.2838 66.943C67.6657 68.5172 67.9715 72.6672 68.9522 72.0575C69.9328 71.4477 71.7783 67.8342 72.2655 66.9177C72.7528 66.0013 73.7032 62.838 73.7032 62.838L73.2738 62.236C73.2738 62.236 72.8202 61.8009 72.6759 60.0166C72.5317 58.2323 72.7277 52.9646 72.7277 52.9646C72.7277 52.9646 74.2216 50.5506 75.0148 47.2031C75.8079 43.8556 76.0748 39.0477 76.0748 39.0477C76.0748 39.0477 75.2497 38.3133 73.635 37.5871C72.0202 36.8609 69.1777 36.0323 67.5301 35.7416C65.8824 35.4509 63.0158 34.3938 62.0853 33.1115C61.1548 31.8291 60.7435 31.2593 60.7435 31.2593Z" fill="#FFBDC8"/>
</mask>
<g mask="url(#mask0_5295_93961)">
<path fill-rule="evenodd" clip-rule="evenodd" d="M73.8815 43.0491C75.5172 43.0491 76.8451 44.1255 76.8451 45.4512C76.8451 46.7769 75.5172 47.8532 73.8815 47.8532C72.2459 47.8532 70.918 46.7769 70.918 45.4512C70.918 44.1255 72.2459 43.0491 73.8815 43.0491Z" fill="#FFBDC8"/>
</g>
<mask id="mask1_5295_93961" style="mask-type:luminance" maskUnits="userSpaceOnUse" x="57" y="31" width="20" height="42">
<path d="M60.7435 31.2593C60.7435 31.2593 60.6294 31.4381 59.7862 33.1819C58.943 34.9256 58.2985 36.0341 58.1093 36.8761C57.92 37.7179 57.9131 39.3673 58.1792 41.1139C58.4453 42.8604 59.3802 48.8443 60.4057 50.4694C61.4313 52.0946 63.1609 53.6686 63.1609 53.6686C63.1609 53.6686 63.1955 57.3562 62.8732 58.527C62.551 59.6976 61.1557 62.8269 61.1557 62.8269C61.1557 62.8269 62.9017 65.3688 65.2838 66.943C67.6657 68.5172 67.9715 72.6672 68.9522 72.0575C69.9328 71.4477 71.7783 67.8342 72.2655 66.9177C72.7528 66.0013 73.7032 62.838 73.7032 62.838L73.2738 62.236C73.2738 62.236 72.8202 61.8009 72.6759 60.0166C72.5317 58.2323 72.7277 52.9646 72.7277 52.9646C72.7277 52.9646 74.2216 50.5506 75.0148 47.2031C75.8079 43.8556 76.0748 39.0477 76.0748 39.0477C76.0748 39.0477 75.2497 38.3133 73.635 37.5871C72.0202 36.8609 69.1777 36.0323 67.5301 35.7416C65.8824 35.4509 63.0158 34.3938 62.0853 33.1115C61.1548 31.8291 60.7435 31.2593 60.7435 31.2593Z" fill="#FFBDC8"/>
</mask>
<g mask="url(#mask1_5295_93961)">
<path fill-rule="evenodd" clip-rule="evenodd" d="M60.7443 43.6141C62.3799 43.6141 63.7078 44.6904 63.7078 46.0161C63.7078 47.3418 62.3799 48.4181 60.7443 48.4181C59.1087 48.4181 57.7808 47.3418 57.7808 46.0161C57.7808 44.6904 59.1087 43.6141 60.7443 43.6141Z" fill="#FFBDC8"/>
</g>
<path fill-rule="evenodd" clip-rule="evenodd" d="M60.5313 40.8378C60.5313 40.8378 61.1463 39.7827 62.0253 39.6382C62.9041 39.4938 63.3911 39.753 63.8652 40.2664C64.3393 40.7798 64.1471 42.2825 64.1471 42.2825C64.1471 42.2825 62.5221 42.7748 61.4364 42.5694C60.3507 42.3642 60.5313 40.8378 60.5313 40.8378Z" fill="white"/>
<path fill-rule="evenodd" clip-rule="evenodd" d="M70.8127 41.488C70.8127 41.488 70.7428 40.3961 71.3246 39.8284C71.9065 39.2609 73.0562 39.0054 73.6743 39.5711C74.2923 40.1369 74.2678 41.4654 73.9538 41.7331C73.6399 42.0007 72.7743 42.5304 71.8465 42.3215C70.9186 42.1125 70.8127 41.488 70.8127 41.488Z" fill="white"/>
<path fill-rule="evenodd" clip-rule="evenodd" d="M20.8184 86.7877C20.8184 86.7877 26.0029 90.1048 28.5414 90.0453C31.0798 89.9859 31.6269 87.8554 32.0142 87.1873C32.4015 86.5192 33.254 83.9758 33.254 83.9758C33.254 83.9758 38.2381 67.0384 38.6999 65.8207C39.1616 64.6029 41.2214 59.0148 41.2214 59.0148C41.2214 59.0148 41.9473 55.7515 43.3225 53.9937C44.6977 52.2359 46.3701 50.3174 47.0831 49.2725C47.7961 48.2275 48.0655 46.8784 47.8767 46.383C47.6877 45.8875 46.1663 41.6846 46.1663 41.6846C46.1663 41.6846 45.5982 41.2084 45.5867 39.6858C45.5752 38.1631 45.7851 34.4344 45.7994 33.1678C45.8136 31.9014 45.261 30.6033 44.9631 30.4074C44.6652 30.2113 44.1587 30.6951 43.8703 31.7099C43.5819 32.7247 43.4098 34.3467 43.4417 35.5399C43.4735 36.7331 43.5304 39.1846 43.1228 39.9305C42.7151 40.6765 42.6326 40.966 42.3922 40.3012C42.1518 39.6366 41.6914 39.1159 41.1416 39.1053C40.5918 39.0949 39.7962 40.2439 39.7962 40.2439C39.7962 40.2439 39.4651 40.1443 38.9017 40.4105C38.3384 40.6765 38.0879 40.8566 37.7256 41.6008C37.3634 42.3449 37.4243 42.5115 36.9063 42.8399C36.3883 43.1683 36.1392 43.7099 36.2421 44.5766C36.345 45.4433 37.3491 50.6294 37.3491 50.6294C37.3491 50.6294 36.1734 53.9543 34.166 57.8757C32.1586 61.7971 27.7654 71.6716 27.1377 72.7503C26.51 73.829 22.9717 81.4059 22.2774 83.2028C21.5832 84.9997 20.8184 86.7877 20.8184 86.7877Z" fill="#FFEDF0"/>
<path fill-rule="evenodd" clip-rule="evenodd" d="M49.8521 63.4166C49.8521 63.4166 53.128 62.5527 54.1189 62.2461C55.1097 61.9395 59.2841 61.1408 60.0484 60.7291C60.8129 60.3175 62.1102 59.9689 62.1102 59.9689L61.9615 61.4723C61.9615 61.4723 62.9106 63.3628 64.1377 64.0377C65.3649 64.7126 67.7995 65.4598 68.2172 65.871C68.635 66.2822 68.5941 67.1484 68.6931 67.971C68.792 68.7937 68.9833 71.2667 69.2277 70.6058C69.4721 69.9448 69.7616 68.9359 69.6822 68.3285C69.603 67.7211 69.4558 66.142 69.7517 66.0028C70.0477 65.8636 70.3927 66.0386 71.5675 65.0617C72.7423 64.0847 73.456 62.9892 73.456 62.9892C73.456 62.9892 73.2116 61.8778 73.0947 61.6078C72.9778 61.3378 72.2011 60.3662 73.0604 60.368C73.9196 60.3699 75.4647 60.6555 75.8301 60.9444C76.1955 61.2332 75.7884 62.0062 80.1777 63.3724C84.5671 64.7387 87.9125 65.6822 88.8428 66.754C89.7731 67.8258 90.71 69.59 91.1442 71.3501C91.5783 73.1103 92.731 77.6098 92.731 77.6098C92.731 77.6098 93.6809 84.9948 95.0234 88.6929C96.3658 92.391 97.6346 100.492 98.439 102.131C99.2435 103.771 100.081 106.603 100.081 106.603C100.081 106.603 99.6539 106.984 97.9183 107.575C96.1826 108.166 88.9164 109.172 88.9164 109.172C88.9164 109.172 87.2781 105.921 86.969 103.773C86.66 101.626 84.2295 90.7513 84.2295 90.7513C84.2295 90.7513 83.6237 91.7087 83.1013 93.9728C82.5789 96.2367 81.7695 100.377 81.2062 102.492C80.643 104.608 80.0502 109.512 80.0502 109.512C80.0502 109.512 76.3133 109.902 72.3434 109.95C68.3734 109.997 53.0496 108.317 53.0496 108.317C53.0496 108.317 53.182 105.469 53.2237 104.228C53.2654 102.986 52.111 98.1211 50.7653 94.7852C49.4197 91.4492 48.7427 88.9247 48.5711 87.0607C48.3994 85.1967 48.7485 81.2419 48.7485 81.2419C48.7485 81.2419 46.1005 83.2789 43.5761 85.6093C41.0515 87.9397 33.0363 92.9855 31.9425 93.7851C30.8487 94.5846 25.1815 97.3196 23.2799 97.0836C21.3783 96.8476 20.4611 95.8485 20.0302 94.0982C19.5994 92.3479 19.8152 90.9356 19.8152 90.9356C19.8152 90.9356 19.05 89.8887 18.9716 89.3524C18.8931 88.8161 19.3345 87.3421 19.7286 86.4571C20.1226 85.5721 20.86 84.4312 21.2631 84.4785C21.6661 84.5257 21.6007 84.8776 21.5549 85.565C21.5092 86.2523 22.9022 87.5624 23.3568 87.6791C23.8113 87.7958 26.6335 88.5046 27.8385 88.4118C29.0435 88.319 31.1201 87.8048 31.6776 87.3425C32.2352 86.8802 32.6685 85.6465 32.7919 85.3216C32.9154 84.9966 35.8552 74.9527 35.8552 74.9527C35.8552 74.9527 37.2649 74.3158 37.6447 73.9489C38.0245 73.5819 42.8445 69.6325 44.6021 67.6477C46.3596 65.663 47.504 65.0361 48.323 64.3626C49.1419 63.6892 49.8521 63.4166 49.8521 63.4166Z" fill="white"/>
<path fill-rule="evenodd" clip-rule="evenodd" d="M57.7595 37.0474C57.8893 39.78 58.0086 43.9189 58.9684 47.458C59.6201 49.8608 60.6625 51.9866 62.3349 53.241C63.4807 54.1003 64.8617 54.5124 66.1984 54.958C66.3215 54.999 66.4549 54.9324 66.4959 54.8092C66.537 54.686 66.4703 54.5527 66.3471 54.5116C65.0581 54.0819 63.7223 53.6933 62.6173 52.8645C61.0211 51.6674 60.0445 49.628 59.4225 47.3348C58.472 43.8301 58.3581 39.7312 58.2296 37.0251C58.2234 36.8954 58.1131 36.795 57.9834 36.8012C57.8537 36.8074 57.7534 36.9177 57.7595 37.0474Z" fill="#232124"/>
<path fill-rule="evenodd" clip-rule="evenodd" d="M75.8148 38.812C75.7234 39.1499 75.7323 39.5167 75.7533 39.8872C75.7718 40.2143 75.8001 40.5445 75.7483 40.8551C75.0933 44.7847 74.9567 49.2165 72.5676 52.6295C72.1979 53.1577 71.472 53.5323 70.9793 53.9264C70.878 54.0075 70.8615 54.1557 70.9427 54.2571C71.0238 54.3584 71.1719 54.3749 71.2733 54.2938C71.7978 53.8742 72.5594 53.4618 72.9531 52.8993C75.3826 49.4287 75.5464 44.9285 76.2124 40.9325C76.2698 40.5885 76.2436 40.2228 76.2231 39.8606C76.2051 39.5418 76.1903 39.2257 76.269 38.9349C76.3029 38.8095 76.2287 38.6802 76.1034 38.6463C75.9781 38.6124 75.8488 38.6866 75.8148 38.812Z" fill="#232124"/>
<path fill-rule="evenodd" clip-rule="evenodd" d="M72.4327 53C72.1062 56.276 72.0969 59.2476 72.8971 62.4483C72.9286 62.5743 73.0564 62.651 73.1824 62.6194C73.3083 62.5881 73.385 62.4602 73.3536 62.3341C72.5671 59.188 72.58 56.2668 72.9009 53.0467C72.9138 52.9175 72.8193 52.8022 72.6901 52.7893C72.561 52.7764 72.4456 52.8708 72.4327 53Z" fill="#232124"/>
<path fill-rule="evenodd" clip-rule="evenodd" d="M62.8957 53.3984C62.8091 53.889 62.9072 54.4537 62.8894 54.9524C62.8254 56.743 62.5976 58.5415 62.0538 60.2506C62.0047 60.4047 61.968 60.6167 61.9143 60.8201C61.873 60.9762 61.8271 61.1298 61.7354 61.2215C61.6435 61.3133 61.6435 61.4624 61.7354 61.5542C61.8272 61.6461 61.9763 61.6461 62.0681 61.5542C62.1856 61.4367 62.2712 61.263 62.3322 61.069C62.4051 60.8372 62.4445 60.5743 62.5022 60.3932C63.0589 58.6435 63.2941 56.8025 63.3596 54.9691C63.3766 54.4913 63.2761 53.9503 63.3591 53.4801C63.3816 53.3522 63.2962 53.2301 63.1683 53.2075C63.0404 53.185 62.9183 53.2704 62.8957 53.3984Z" fill="#232124"/>
<path fill-rule="evenodd" clip-rule="evenodd" d="M69.2 70.0328C69.1729 69.8178 69.1495 69.6026 69.127 69.3894C69.0654 68.8039 69.0911 67.9857 68.9981 67.2395C68.9314 66.7037 68.8021 66.2043 68.5558 65.8347C68.3994 65.6001 68.1042 65.4424 67.7575 65.3317C67.338 65.1979 66.8384 65.1305 66.5433 64.9666C65.6882 64.4915 64.5544 64.1238 63.8087 63.4966C63.4836 63.223 63.3059 62.8173 63.012 62.5106C62.7631 62.2508 62.4931 62.0455 62.3316 61.7216C62.2738 61.6053 62.1324 61.5579 62.0162 61.6157C61.8999 61.6736 61.8525 61.815 61.9105 61.9314C62.0937 62.2991 62.3897 62.5412 62.6723 62.8361C62.9778 63.155 63.1679 63.5723 63.5058 63.8567C64.273 64.502 65.435 64.889 66.3148 65.3779C66.5832 65.5269 67.0039 65.6113 67.4021 65.7183C67.5765 65.7651 67.7459 65.817 67.8903 65.8864C68.0054 65.9417 68.1042 66.0056 68.1643 66.0958C68.3745 66.411 68.4743 66.8406 68.5312 67.2977C68.6237 68.0407 68.5977 68.8556 68.6591 69.4387C68.709 69.913 68.7642 70.397 68.8497 70.8669C68.8625 70.9375 68.8732 71.0803 68.8977 71.1535C68.9202 71.2207 68.956 71.2661 68.9876 71.293C69.0366 71.3347 69.0912 71.3533 69.1487 71.3543C69.2035 71.3551 69.2729 71.3421 69.3416 71.2734C69.4217 71.1932 69.495 71.056 69.5474 70.8667C69.6084 70.6459 69.6492 70.3416 69.6753 69.9892C69.7708 68.7028 69.672 66.735 69.8424 66.0537C69.8519 66.0155 69.8861 65.9859 69.9245 65.9537C69.9933 65.8962 70.083 65.8447 70.1811 65.7963C70.535 65.622 70.9865 65.4924 71.173 65.3858C72.1646 64.8192 72.9762 63.9328 73.6034 62.992C73.6755 62.8839 73.6462 62.7377 73.5382 62.6657C73.4302 62.5937 73.2839 62.6229 73.212 62.7309C72.6245 63.6122 71.8683 64.4465 70.9396 64.9772C70.7237 65.1006 70.1497 65.2543 69.7896 65.4744C69.574 65.6063 69.4285 65.769 69.3859 65.9395C69.2121 66.6347 69.3035 68.642 69.2061 69.9544C69.2041 69.9809 69.2021 70.007 69.2 70.0328Z" fill="#232124"/>
<path fill-rule="evenodd" clip-rule="evenodd" d="M60.8878 31.3375C60.9096 31.3789 60.9377 31.4383 60.9571 31.5001C61.514 33.2825 63.4936 34.6701 65.1522 35.3255C67.8957 36.4096 70.9309 36.5659 73.6345 37.8137C73.7523 37.8681 73.8923 37.8166 73.9467 37.6987C74.0011 37.5807 73.9495 37.4409 73.8317 37.3865C71.12 36.1349 68.0768 35.9752 65.3251 34.8879C63.7846 34.2792 61.9234 33.0152 61.4062 31.3598C61.3038 31.0325 61.1532 30.8892 61.0311 30.8455C60.8991 30.7981 60.7569 30.8218 60.6202 30.9409C60.4609 31.0797 60.2885 31.4112 60.1549 31.8222C59.9798 32.3611 59.6088 32.8052 59.3637 33.3142C59.0211 34.0258 58.3974 35.1244 58.4134 35.9186C58.416 36.0485 58.5235 36.1518 58.6533 36.1492C58.7832 36.1465 58.8864 36.039 58.8838 35.9092C58.8782 35.6305 58.9684 35.3108 59.093 34.9864C59.2955 34.4595 59.5924 33.9238 59.7877 33.5183C60.0418 32.9904 60.4207 32.5266 60.6024 31.9676C60.6913 31.6941 60.7847 31.4586 60.8878 31.3375Z" fill="#232124"/>
<path fill-rule="evenodd" clip-rule="evenodd" d="M68.2154 35.134C69.2943 35.8545 70.65 36.1139 71.7509 36.7866C72.2444 37.0883 72.6745 37.4861 73.2278 37.6936C74.412 38.1377 75.18 38.2851 76.0004 39.3107C76.0816 39.4121 76.2297 39.4285 76.3311 39.3474C76.4325 39.2663 76.449 39.1182 76.3679 39.0167C75.4838 37.9118 74.6689 37.7315 73.393 37.253C72.868 37.0562 72.4646 36.6712 71.9963 36.3851C70.9007 35.7156 69.5504 35.4597 68.4767 34.7427C68.3687 34.6705 68.2225 34.6997 68.1505 34.8077C68.0783 34.9156 68.1074 35.0618 68.2154 35.134Z" fill="#232124"/>
<path fill-rule="evenodd" clip-rule="evenodd" d="M61.8746 23.2199C61.3553 23.1435 60.7676 23.4202 60.1974 23.9093C58.982 24.952 57.8067 26.942 57.458 27.7441C56.8184 29.215 55.9957 30.7101 55.5461 32.2516C54.3581 36.3245 54.4836 40.8762 52.561 44.7215C52.5029 44.8376 52.5501 44.9791 52.6662 45.0372C52.7824 45.0952 52.9238 45.048 52.9819 44.9319C54.917 41.0616 54.8021 36.4829 55.9978 32.3834C56.442 30.8605 57.2577 29.3848 57.8894 27.9317C58.1757 27.2733 59.0431 25.7786 60.018 24.7361C60.3939 24.3341 60.7843 23.9992 61.1643 23.8163C61.386 23.7095 61.6017 23.6553 61.8061 23.6854C61.9346 23.7043 62.0542 23.6153 62.0731 23.4869C62.092 23.3584 62.0031 23.2387 61.8746 23.2199Z" fill="#232124"/>
<path fill-rule="evenodd" clip-rule="evenodd" d="M53.3453 44.4545C53.286 45.0515 53.0437 45.6905 52.8095 46.3821C52.5625 47.1119 52.3231 47.8968 52.2827 48.7458C52.2162 50.1415 52.8408 51.4856 53.8138 52.6443C55.2452 54.3486 57.4283 55.6496 59.1752 56.126C59.3006 56.1602 59.4299 56.0862 59.4641 55.961C59.4983 55.8357 59.4243 55.7062 59.2991 55.6721C57.6288 55.2166 55.5426 53.9711 54.1741 52.3417C53.2806 51.2778 52.6917 50.0497 52.7527 48.7682C52.7909 47.9651 53.0215 47.2233 53.2552 46.533C53.5019 45.8045 53.7511 45.1298 53.8136 44.501C53.8264 44.3718 53.732 44.2565 53.6027 44.2436C53.4735 44.2308 53.3582 44.3253 53.3453 44.4545Z" fill="#232124"/>
<path fill-rule="evenodd" clip-rule="evenodd" d="M57.7176 53.8377C57.6684 53.9899 57.688 54.1889 57.7927 54.4161C57.9749 54.8113 58.4299 55.3351 59.0068 55.8484C59.8509 56.5995 60.953 57.3342 61.7786 57.6287C62.1846 57.7734 62.5344 57.8089 62.7768 57.7281C62.9 57.6871 62.9666 57.5537 62.9256 57.4305C62.8845 57.3073 62.7512 57.2407 62.628 57.2818C62.5481 57.3084 62.4495 57.3072 62.3368 57.291C62.1238 57.2603 61.8712 57.1721 61.5971 57.0455C60.8706 56.7102 60.0062 56.1078 59.3196 55.4969C58.8711 55.0978 58.4984 54.6964 58.2976 54.3636C58.2402 54.2685 58.1976 54.1806 58.1755 54.1012C58.1628 54.0559 58.1544 54.0161 58.1653 53.9825C58.2052 53.859 58.1374 53.7262 58.0138 53.6863C57.8903 53.6463 57.7576 53.7141 57.7176 53.8377Z" fill="#232124"/>
<path fill-rule="evenodd" clip-rule="evenodd" d="M63.2169 23.9536C63.2376 23.8178 63.3643 23.6974 63.5075 23.5757C63.7956 23.3309 64.1767 23.1143 64.376 22.9465C66.6537 21.0283 69.5552 21.2092 72.2152 22.1844C73.2315 22.5571 74.3723 22.8391 75.1759 23.6123C76.8446 25.2177 78.1928 27.1755 79.1391 29.2864C79.9612 31.1205 80.3165 32.8119 80.5571 34.7969C80.7648 36.5107 80.7527 38.3132 81.0232 40.0039C81.3708 42.1768 81.8569 45.1569 81.7112 47.884C81.6161 49.6669 81.2529 51.3414 80.3858 52.5957C80.312 52.7025 80.3387 52.8491 80.4455 52.923C80.5523 52.9968 80.699 52.97 80.7729 52.8633C81.6852 51.5434 82.0809 49.7852 82.1811 47.9091C82.3286 45.1477 81.8399 42.1299 81.4878 39.9295C81.2182 38.2446 81.2312 36.4482 81.0242 34.7403C80.7776 32.7061 80.411 30.9734 79.5685 29.0939C78.5977 26.9284 77.214 24.9202 75.5021 23.2732C74.6514 22.4548 73.453 22.1372 72.3772 21.7427C69.5582 20.7091 66.4869 20.5538 64.0728 22.5866C63.8732 22.7547 63.4914 22.9718 63.2028 23.2171C62.9614 23.4223 62.7867 23.6535 62.7518 23.8826C62.7321 24.011 62.8204 24.1311 62.9488 24.1508C63.0771 24.1704 63.1973 24.0821 63.2169 23.9536Z" fill="#232124"/>
<path fill-rule="evenodd" clip-rule="evenodd" d="M80.239 50.1075C79.7315 51.4306 79.481 52.5376 79.1273 53.5079C78.6154 54.912 77.8755 56.0157 75.7404 57.0832C75.6243 57.1413 75.5771 57.2827 75.6352 57.3988C75.6933 57.515 75.8347 57.5621 75.9509 57.5041C78.2367 56.3612 79.0213 55.1724 79.5694 53.6691C79.9223 52.7009 80.1719 51.5962 80.6784 50.2761C80.7249 50.1549 80.6642 50.0187 80.5429 49.9722C80.4217 49.9257 80.2855 49.9863 80.239 50.1075Z" fill="#232124"/>
<path fill-rule="evenodd" clip-rule="evenodd" d="M76.0221 55.5089C74.9273 56.8096 73.5415 57.4055 72.3828 58.5642C72.291 58.656 72.291 58.8051 72.3828 58.8969C72.4746 58.9887 72.6237 58.9887 72.7155 58.8969C73.884 57.7285 75.2781 57.1235 76.3821 55.8119C76.4657 55.7125 76.4529 55.564 76.3536 55.4804C76.2543 55.3968 76.1057 55.4096 76.0221 55.5089Z" fill="#232124"/>
<path fill-rule="evenodd" clip-rule="evenodd" d="M60.5055 38.4494C60.5189 38.3509 60.6005 38.2839 60.6845 38.2201C60.818 38.1185 60.9745 38.0362 61.087 37.9559C61.6537 37.5511 62.3274 37.3478 62.9847 37.6217C63.1046 37.6717 63.2425 37.6149 63.2924 37.495C63.3423 37.3751 63.2856 37.2373 63.1657 37.1873C62.3526 36.8486 61.5145 37.0722 60.8136 37.5729C60.6703 37.6753 60.4613 37.7827 60.3063 37.9226C60.1648 38.0505 60.0641 38.2035 60.0393 38.3857C60.0217 38.5144 60.1119 38.6331 60.2405 38.6507C60.3692 38.6683 60.4879 38.5781 60.5055 38.4494Z" fill="#232124"/>
<path fill-rule="evenodd" clip-rule="evenodd" d="M70.9252 37.8114C72.0112 37.0926 73.2664 36.8798 74.4658 37.4334C74.5838 37.4878 74.7236 37.4363 74.778 37.3184C74.8324 37.2005 74.7809 37.0606 74.663 37.0062C73.3093 36.3814 71.8912 36.6078 70.6655 37.419C70.5572 37.4906 70.5275 37.6367 70.5991 37.745C70.6708 37.8533 70.8169 37.883 70.9252 37.8114Z" fill="#232124"/>
<path fill-rule="evenodd" clip-rule="evenodd" d="M60.8596 40.992C61.0508 40.3365 61.4895 39.8563 62.0385 39.7375C62.3994 39.6595 62.8025 39.7422 63.205 40.0211C63.6195 40.3083 63.8652 40.8736 64.0089 41.3341C64.0477 41.458 64.1797 41.5273 64.3037 41.4886C64.4276 41.4499 64.4968 41.3179 64.4581 41.1939C64.2859 40.6421 63.9696 39.9785 63.473 39.6343C62.9449 39.2684 62.4124 39.1753 61.939 39.2776C61.2367 39.4296 60.6525 40.0217 60.4079 40.8602C60.3715 40.9849 60.4433 41.1156 60.5679 41.1519C60.6926 41.1883 60.8233 41.1166 60.8596 40.992Z" fill="#232124"/>
<path fill-rule="evenodd" clip-rule="evenodd" d="M61.7244 39.7955C61.5542 39.8608 61.423 39.968 61.3259 40.1024C61.3137 40.0918 61.3003 40.0822 61.2857 40.074C61.1725 40.0104 61.0289 40.0506 60.9653 40.1638C60.6354 40.7511 60.7664 41.5727 61.1762 42.0904C61.471 42.4629 61.9886 42.7647 62.4698 42.4576C62.7506 42.2786 62.8974 41.9211 62.9168 41.5142C62.9431 40.9602 62.7366 40.3291 62.4719 40.0645C62.4373 40.0299 62.2386 39.833 62.133 39.7553C62.0501 39.6943 61.9743 39.6807 61.9402 39.6807C61.9087 39.6807 61.8692 39.6864 61.8261 39.7091C61.8088 39.7182 61.7533 39.7688 61.7244 39.7955ZM62.3035 40.6581L62.3045 40.6999C62.3091 40.6978 62.3137 40.6957 62.3183 40.6939L62.3159 40.6878L62.3035 40.6581Z" fill="#232124"/>
<path fill-rule="evenodd" clip-rule="evenodd" d="M71.2375 40.4694C71.3058 40.2416 71.4706 40.0346 71.6408 39.8716C71.9852 39.5414 72.3193 39.3849 72.6415 39.3827C73.1334 39.3792 73.5759 39.726 73.9582 40.2553C74.0342 40.3605 74.1814 40.3842 74.2867 40.3082C74.3919 40.2322 74.4157 40.085 74.3396 39.9797C73.8536 39.3067 73.2637 38.9077 72.6382 38.9121C72.2155 38.9151 71.7671 39.0987 71.3152 39.5318C71.0885 39.7491 70.8778 40.0308 70.7868 40.3343C70.7495 40.4587 70.8203 40.5899 70.9446 40.6272C71.069 40.6645 71.2003 40.5938 71.2375 40.4694Z" fill="#232124"/>
<path fill-rule="evenodd" clip-rule="evenodd" d="M71.9021 39.5514C71.7985 39.4832 71.6583 39.5074 71.5838 39.6084C71.1791 40.1566 71.1094 40.9313 71.3602 41.5648C71.4944 41.904 71.7463 42.2391 72.1563 42.205C72.3441 42.1894 72.5483 42.0709 72.7214 41.8928C72.9515 41.656 73.1267 41.3209 73.1598 41.0968C73.1932 40.8705 73.1591 40.6018 73.1211 40.3801C73.0942 40.2228 73.0042 39.9511 72.8656 39.7518C72.7439 39.5766 72.5823 39.4598 72.4087 39.4424C72.2043 39.422 72.0373 39.4641 71.9021 39.5514ZM72.3816 39.9154C72.382 39.9324 72.3823 39.958 72.3822 39.9842C72.3976 39.9721 72.4132 39.9613 72.4293 39.9518C72.415 39.9353 72.3995 39.9221 72.3816 39.9154Z" fill="#232124"/>
<path fill-rule="evenodd" clip-rule="evenodd" d="M72.1977 39.9493C72.2295 39.8898 72.2612 39.8503 72.3046 39.8405C72.3518 39.8298 72.4009 39.8498 72.4495 39.8754C72.5542 39.9306 72.6512 40.0269 72.722 40.1272C72.9159 40.4018 72.9614 40.9071 72.8496 41.3073C72.7908 41.518 72.6899 41.7036 72.519 41.7854C72.4125 41.8363 72.2812 41.8407 72.1241 41.7943C71.9995 41.7576 71.8686 41.8288 71.8318 41.9534C71.7951 42.0779 71.8664 42.2088 71.9909 42.2456C72.2822 42.3315 72.5246 42.3043 72.722 42.2099C73.0071 42.0736 73.2047 41.7852 73.3028 41.4339C73.4526 40.8978 73.3662 40.2237 73.1065 39.8558C72.9878 39.6877 72.8184 39.5313 72.6419 39.4455C72.4953 39.3741 72.3426 39.3495 72.2008 39.3816C72.0464 39.4165 71.8956 39.516 71.7826 39.7276C71.7215 39.8422 71.7648 39.9849 71.8794 40.046C71.994 40.1072 72.1366 40.0638 72.1977 39.9493Z" fill="#232124"/>
<path fill-rule="evenodd" clip-rule="evenodd" d="M72.6685 40.5107C72.665 40.4965 72.6547 40.4525 72.6516 40.4229C72.6377 40.2926 72.6458 40.1365 72.6453 40.0479C72.6447 39.918 72.5387 39.8131 72.4089 39.8138C72.2791 39.8144 72.1742 39.9203 72.1747 40.0502C72.1753 40.1699 72.1662 40.3956 72.1955 40.5565C72.2174 40.6766 72.2645 40.7705 72.3197 40.8257C72.4115 40.9175 72.5606 40.9175 72.6524 40.8257C72.7385 40.7396 72.7439 40.6031 72.6685 40.5107Z" fill="#232124"/>
<path fill-rule="evenodd" clip-rule="evenodd" d="M72.707 40.4468C72.7436 40.3968 72.7604 40.3323 72.7485 40.2665C72.7389 40.2134 72.6598 39.9073 72.6359 39.8659C72.598 39.8004 72.549 39.7753 72.5207 39.7633C72.4467 39.7321 72.3786 39.7395 72.3163 39.7731C72.2797 39.793 72.2329 39.8275 72.2061 39.901C72.2007 39.9159 72.1838 39.982 72.2022 40.1227C72.2096 40.1791 72.2211 40.2349 72.2265 40.2914C72.2331 40.3596 72.2344 40.4282 72.2384 40.4967C72.2461 40.6263 72.3575 40.7254 72.4871 40.7177C72.6167 40.7101 72.7158 40.5987 72.7082 40.469L72.707 40.4468Z" fill="#232124"/>
<path fill-rule="evenodd" clip-rule="evenodd" d="M66.8982 44.7091C66.8241 44.9299 66.735 45.1454 66.6622 45.3671C66.5854 45.6009 66.5557 45.7543 66.5715 45.8921C66.5884 46.0394 66.6531 46.1764 66.8008 46.3662C66.9467 46.5538 67.0641 46.6772 67.2042 46.758C67.3516 46.8427 67.5259 46.8854 67.7929 46.8854C67.9227 46.8854 68.0281 46.7799 68.0281 46.6501C68.0281 46.5202 67.9227 46.4149 67.7929 46.4149C67.6333 46.4149 67.527 46.4007 67.4389 46.3501C67.3438 46.2954 67.2712 46.2046 67.1722 46.0773C67.0956 45.9788 67.0478 45.9152 67.039 45.8387C67.0293 45.7528 67.0614 45.6598 67.1092 45.514C67.1831 45.2894 67.2737 45.0712 67.3482 44.8473C67.3575 44.8196 67.3639 44.7638 67.3678 44.7208C67.3977 44.6843 67.417 44.6385 67.4205 44.5877C67.4291 44.4582 67.3311 44.3459 67.2015 44.3372C67.0969 44.3302 67.0246 44.371 66.9713 44.4373C66.9407 44.4753 66.9152 44.5306 66.906 44.5995C66.9019 44.6296 66.899 44.6929 66.8982 44.7091ZM67.1814 44.8072L67.1699 44.8067C67.1738 44.8069 67.1776 44.8071 67.1814 44.8072Z" fill="#232124"/>
<path fill-rule="evenodd" clip-rule="evenodd" d="M64.7689 48.3114C64.9907 48.4567 65.2478 48.494 65.4985 48.5649C66.1683 48.7542 66.865 48.972 67.5726 48.9131C67.9336 48.883 68.2771 48.7365 68.6266 48.6559C69.0771 48.5519 69.4765 48.5044 69.879 48.2631C69.9903 48.1962 70.0265 48.0516 69.9597 47.9402C69.8929 47.8289 69.7482 47.7927 69.6369 47.8595C69.2793 48.074 68.921 48.1051 68.5207 48.1974C68.193 48.273 67.8721 48.416 67.5335 48.4442C66.8821 48.4985 66.243 48.2863 65.6264 48.112C65.4218 48.0542 65.2077 48.0364 65.0267 47.9178C64.9181 47.8467 64.7722 47.8771 64.701 47.9857C64.6299 48.0944 64.6604 48.2403 64.7689 48.3114Z" fill="#232124"/>
<path fill-rule="evenodd" clip-rule="evenodd" d="M62.3138 59.8898C62.1826 59.7558 61.9447 59.7029 61.6548 59.7471C61.1701 59.8211 60.5062 60.1396 60.2793 60.2443C58.674 60.9853 56.8688 61.2958 55.1798 61.7783C54.3547 62.0141 52.1341 62.4026 50.6107 62.7835C49.9237 62.9553 49.3734 63.1314 49.1292 63.2868C48.0174 63.9943 47.24 65.0638 46.241 65.905C45.2898 66.706 44.3342 67.5143 43.4621 68.3866C42.8318 69.0168 42.3077 69.7546 41.6302 70.3507C39.9088 71.8656 38.1385 73.2616 36.1985 74.4741C36.0883 74.5429 36.0548 74.6882 36.1236 74.7983C36.1925 74.9084 36.3377 74.9419 36.4478 74.8731C38.4097 73.6469 40.2003 72.2359 41.941 70.704C42.6262 70.1012 43.1575 69.3566 43.7948 68.7193C44.6576 67.8565 45.6031 67.0573 46.5442 66.2649C47.5271 65.4372 48.2877 64.3801 49.3817 63.6838C49.6026 63.5433 50.1038 63.3952 50.7249 63.2399C52.2534 62.8577 54.4811 62.4673 55.3091 62.2308C57.021 61.7416 58.8494 61.4226 60.4764 60.6716C60.6556 60.5888 61.1292 60.3578 61.5422 60.251C61.6623 60.2199 61.7763 60.199 61.8731 60.2004C61.916 60.2011 61.9551 60.196 61.9775 60.2189C62.0683 60.3117 62.2174 60.3133 62.3102 60.2225C62.403 60.1316 62.4045 59.9826 62.3138 59.8898Z" fill="#232124"/>
<path fill-rule="evenodd" clip-rule="evenodd" d="M49.5317 63.7216C49.615 64.4875 49.9578 65.2478 50.0416 66.0438C50.0552 66.1729 50.171 66.2667 50.3002 66.2531C50.4293 66.2395 50.5231 66.1237 50.5096 65.9945C50.4257 65.198 50.0828 64.4371 49.9994 63.6707C49.9854 63.5416 49.8691 63.4482 49.7401 63.4623C49.611 63.4763 49.5176 63.5925 49.5317 63.7216Z" fill="#232124"/>
<path fill-rule="evenodd" clip-rule="evenodd" d="M73.1873 60.6245C74.1764 60.5652 75.1108 60.9882 76.0173 61.5074C76.9738 62.0553 77.8989 62.7125 78.8137 63.0937C80.2161 63.678 81.669 64.2446 83.1047 64.7441C84.1171 65.0962 85.2771 65.3205 86.3618 65.6742C87.4015 66.013 88.3728 66.4699 89.0547 67.3034C89.5571 67.9173 89.9555 68.82 90.3021 69.8007C90.8377 71.3159 91.2453 73.0158 91.682 74.1803C91.7276 74.3019 91.8633 74.3636 91.9849 74.318C92.1064 74.2723 92.1682 74.1366 92.1225 74.0151C91.6867 72.8528 91.2802 71.1561 90.7458 69.6439C90.3791 68.6064 89.9504 67.6549 89.4189 67.0054C88.6797 66.1019 87.6346 65.5941 86.5076 65.2268C85.4258 64.8742 84.2689 64.6508 83.2593 64.2996C81.8325 63.8034 80.3884 63.24 78.9946 62.6593C78.0966 62.2852 77.1901 61.6369 76.2512 61.0992C75.2625 60.5328 74.2378 60.0901 73.1591 60.1549C73.0295 60.1627 72.9306 60.2742 72.9384 60.4038C72.9462 60.5335 73.0578 60.6324 73.1873 60.6245Z" fill="#232124"/>
<path fill-rule="evenodd" clip-rule="evenodd" d="M86.4278 66.2818C84.7936 68.4179 84.3382 70.5159 84.0343 73.1493C84.0194 73.2784 84.112 73.3951 84.241 73.4101C84.37 73.425 84.4868 73.3323 84.5018 73.2033C84.7952 70.6603 85.2235 68.6304 86.8015 66.5678C86.8805 66.4646 86.8608 66.3169 86.7577 66.238C86.6545 66.1591 86.5067 66.1787 86.4278 66.2818Z" fill="#232124"/>
<path fill-rule="evenodd" clip-rule="evenodd" d="M71.1713 67.9395C73.4227 67.0101 75.5588 64.9594 75.9446 62.4517C75.9644 62.3233 75.8762 62.203 75.7479 62.1833C75.6196 62.1637 75.4993 62.2517 75.4795 62.3801C75.1182 64.7288 73.1003 66.6342 70.9918 67.5046C70.8717 67.5541 70.8145 67.6918 70.864 67.8118C70.9136 67.9318 71.0512 67.9891 71.1713 67.9395Z" fill="#232124"/>
<path fill-rule="evenodd" clip-rule="evenodd" d="M60.2322 61.3406C60.3299 61.3159 60.4043 61.2298 60.4094 61.1239C60.4158 60.9942 60.3157 60.8839 60.1859 60.8775C60.0583 60.8713 59.963 60.9137 59.8917 60.9835C59.8139 61.0597 59.7592 61.1872 59.7598 61.3644C59.7605 61.5775 59.8407 61.8962 59.9703 62.2505C60.2546 63.0274 60.7689 63.9911 61.0344 64.3347C62.6343 66.4051 64.7897 67.2911 67.2331 68.0098C67.3577 68.0464 67.4886 67.9751 67.5252 67.8505C67.5619 67.726 67.4905 67.595 67.3658 67.5584C65.0206 66.8687 62.9423 66.0342 61.4068 64.0469C61.0968 63.646 60.427 62.3385 60.263 61.6003C60.2446 61.5178 60.2329 61.4437 60.2307 61.3803C60.2303 61.368 60.231 61.3537 60.2322 61.3406Z" fill="#232124"/>
<path fill-rule="evenodd" clip-rule="evenodd" d="M68.7292 76.069C68.9385 82.1976 68.4512 88.2251 68.2404 94.3372C68.0882 98.7523 68.4637 103.183 68.4637 107.584C68.4637 107.714 68.5692 107.82 68.699 107.82C68.8288 107.82 68.9343 107.714 68.9343 107.584C68.9343 103.188 68.5586 98.7632 68.7107 94.3533C68.9218 88.2305 69.4091 82.1924 69.1995 76.0529C69.195 75.9231 69.0861 75.8214 68.9563 75.8256C68.8266 75.8302 68.7248 75.9392 68.7292 76.069Z" fill="#232124"/>
<path fill-rule="evenodd" clip-rule="evenodd" d="M84.6182 78.5916C84.3142 80.2711 84.403 82.0125 84.4743 83.7489C84.5439 85.4467 84.5968 87.1397 84.2224 88.7621C83.558 91.6415 82.5619 94.4293 81.8767 97.3073C81.402 99.3009 81.1999 101.355 80.7042 103.338C80.2123 105.305 79.7476 107.383 79.7476 109.428C79.7476 109.557 79.853 109.663 79.9828 109.663C80.1127 109.663 80.2181 109.557 80.2181 109.428C80.2181 107.421 80.678 105.383 81.1607 103.452C81.6569 101.467 81.8593 99.4117 82.3344 97.4162C83.0199 94.5373 84.0162 91.7484 84.6809 88.8679C85.0647 87.205 85.0158 85.4699 84.9444 83.7297C84.8746 82.0279 84.7833 80.3213 85.0812 78.6755C85.1043 78.5477 85.0194 78.4252 84.8916 78.402C84.7639 78.3789 84.6413 78.4639 84.6182 78.5916Z" fill="#232124"/>
<path fill-rule="evenodd" clip-rule="evenodd" d="M48.9 77.1951C48.5334 80.911 47.7147 85.1129 48.6406 88.8162C49.4178 91.9253 50.6792 94.8786 51.6544 97.886C52.6177 100.857 53.3014 103.881 52.9363 107.167C52.9219 107.296 53.0151 107.413 53.1441 107.427C53.2732 107.441 53.3896 107.348 53.4039 107.219C53.7768 103.864 53.0857 100.775 52.1019 97.7409C51.13 94.7436 49.8717 91.8007 49.097 88.702C48.184 85.0498 49.0067 80.9061 49.3683 77.2414C49.3811 77.1121 49.2865 76.9969 49.1573 76.9841C49.028 76.9713 48.9128 77.0659 48.9 77.1951Z" fill="#232124"/>
<path fill-rule="evenodd" clip-rule="evenodd" d="M84.0724 91.2128L84.074 91.2179C84.1512 91.4942 84.4529 92.9524 84.4707 93.0565C84.7125 94.4669 84.9291 95.8666 85.2172 97.271C86.043 101.297 87.0826 105.283 88.3797 109.174C88.4207 109.297 88.5541 109.364 88.6772 109.323C88.8004 109.282 88.8671 109.148 88.8261 109.025C87.5349 105.152 86.5001 101.184 85.6781 97.1765C85.391 95.7771 85.1754 94.3823 84.9345 92.977C84.9162 92.8702 84.6063 91.3747 84.5271 91.0912C84.4898 90.9577 84.4092 90.909 84.3961 90.902C84.2968 90.8484 84.2096 90.8644 84.1329 90.9283C84.0479 90.9992 84.0255 91.1177 84.0724 91.2128ZM84.4242 91.2977C84.3575 91.3475 84.2718 91.3568 84.1985 91.3283C84.2823 91.3644 84.3573 91.3494 84.4242 91.2977Z" fill="#232124"/>
<path fill-rule="evenodd" clip-rule="evenodd" d="M92.022 75.4639C92.2834 78.3638 93.1039 81.2725 93.8083 84.0902C94.8175 88.127 95.5757 92.2138 96.6578 96.2332C97.1901 98.2102 97.7951 100.169 98.323 102.149C98.5061 102.835 98.8709 103.61 99.1913 104.391C99.4954 105.133 99.7612 105.88 99.7612 106.558C99.7612 106.688 99.8666 106.793 99.9964 106.793C100.126 106.793 100.232 106.688 100.232 106.558C100.232 105.825 99.9553 105.014 99.6267 104.213C99.3143 103.451 98.9561 102.697 98.7776 102.027C98.2496 100.047 97.6445 98.0882 97.1122 96.1109C96.0308 92.0942 95.2733 88.0101 94.2648 83.9761C93.5662 81.1817 92.7499 78.2976 92.4906 75.4217C92.4789 75.2924 92.3645 75.1968 92.2352 75.2085C92.1058 75.2202 92.0103 75.3346 92.022 75.4639Z" fill="#232124"/>
<path fill-rule="evenodd" clip-rule="evenodd" d="M42.5293 54.4508C42.5409 54.4851 42.5234 54.5311 42.5076 54.5861C42.479 54.6855 42.4303 54.7985 42.373 54.9161C42.1768 55.3186 41.8883 55.766 41.8218 55.9584C41.0596 58.1601 40.3236 60.3758 39.5688 62.5823C37.6189 68.2818 35.7766 73.9991 34.0246 79.7557C33.3426 81.9967 33.0173 84.6914 31.9668 86.7925C31.9087 86.9087 31.9558 87.0501 32.072 87.1081C32.1881 87.1662 32.3295 87.1191 32.3876 87.0029C33.4494 84.8793 33.7854 82.1578 34.4747 79.8926C36.2252 74.1412 38.0659 68.429 40.014 62.7345C40.7686 60.5287 41.5045 58.3135 42.2665 56.1123C42.3415 55.8953 42.713 55.3452 42.8888 54.9168C42.9919 54.6655 43.0226 54.4413 42.9753 54.3007C42.9339 54.1776 42.8004 54.1113 42.6773 54.1527C42.5542 54.1941 42.4879 54.3277 42.5293 54.4508Z" fill="#232124"/>
<path fill-rule="evenodd" clip-rule="evenodd" d="M36.9459 51.0976C35.0008 55.0987 33.2831 59.2123 31.3379 63.2244C27.8207 70.4786 24.2356 77.7322 21.2459 85.2067C21.1977 85.3273 21.2564 85.4643 21.377 85.5125C21.4975 85.5608 21.6345 85.5021 21.6828 85.3815C24.6684 77.9173 28.249 70.6738 31.7613 63.4297C33.7065 59.4177 35.4241 55.3042 37.3691 51.3034C37.4259 51.1866 37.3771 51.0457 37.2604 50.9889C37.1436 50.9321 37.0026 50.9809 36.9459 51.0976Z" fill="#232124"/>
<path fill-rule="evenodd" clip-rule="evenodd" d="M21.3337 86.4603C23.0883 88.4121 27.1349 89.262 29.679 88.4792C30.2994 88.2883 30.8581 87.9321 31.4983 87.7899C31.6249 87.7617 31.705 87.6359 31.6768 87.5092C31.6487 87.3824 31.5229 87.3024 31.3961 87.3305C30.7438 87.4755 30.1729 87.8349 29.5406 88.0295C27.1466 88.7661 23.3348 87.9824 21.6836 86.1457C21.5968 86.0492 21.4479 86.0413 21.3514 86.1281C21.2548 86.2149 21.2469 86.3638 21.3337 86.4603Z" fill="#232124"/>
<path fill-rule="evenodd" clip-rule="evenodd" d="M21.6939 84.445C21.4828 84.3268 21.2589 84.3255 21.0297 84.4275C20.7646 84.5456 20.4831 84.8253 20.2208 85.2168C19.5704 86.1875 18.9976 87.8604 18.8799 89.0371C18.8242 89.5945 18.8795 90.0488 19.0409 90.3004C20.7372 92.9459 24.5323 93.8409 27.9108 93.1794C31.3061 92.5146 34.255 90.2888 34.255 86.7843C34.255 86.6545 34.1495 86.5491 34.0197 86.5491C33.8899 86.5491 33.7845 86.6545 33.7845 86.7843C33.7845 90.0573 30.9913 92.0968 27.8204 92.7176C24.6327 93.3417 21.0375 92.5425 19.437 90.0464C19.3145 89.8555 19.3059 89.507 19.3482 89.084C19.4593 87.9736 19.998 86.3947 20.6116 85.4788C20.784 85.2215 20.9594 85.0181 21.1352 84.9045C21.2495 84.8308 21.3598 84.7972 21.4641 84.8556C21.5774 84.919 21.721 84.8785 21.7844 84.7652C21.8477 84.6519 21.8072 84.5084 21.6939 84.445Z" fill="#232124"/>
<path fill-rule="evenodd" clip-rule="evenodd" d="M48.3933 81.6964C48.4198 81.7114 48.4497 81.7214 48.4819 81.7251C48.611 81.7398 48.7276 81.6471 48.7424 81.5181C48.7621 81.3458 48.6832 81.2549 48.6015 81.2062C48.5094 81.1512 48.3506 81.1472 48.215 81.244C47.4344 81.8016 46.8291 82.4911 46.0815 83.0892C44.2887 84.5235 42.624 86.1235 40.8163 87.5382C36.6531 90.7964 28.5493 96.4589 23.2114 97.1261C23.0826 97.1423 22.9911 97.2599 23.0072 97.3888C23.0233 97.5177 23.141 97.6091 23.2698 97.5931C28.6741 96.9175 36.8913 91.2075 41.1063 87.9088C42.9153 86.493 44.5813 84.892 46.3755 83.4567C47.0856 82.8885 47.6651 82.236 48.3933 81.6964Z" fill="#232124"/>
<path fill-rule="evenodd" clip-rule="evenodd" d="M20.0342 91.3309L20.0358 91.3215L20.0382 91.3037L20.0406 91.287L20.0398 91.2906C20.1043 90.7329 19.6092 90.9899 19.5752 91.2176C19.5641 91.2921 19.4937 91.7947 19.4937 91.8883C19.4937 92.3765 19.5574 92.9024 19.618 93.3874C19.7328 94.3064 20.0972 95.5161 20.7717 96.3382C21.2478 96.9183 21.875 97.309 22.6688 97.309C22.7986 97.309 22.904 97.2037 22.904 97.0738C22.904 96.944 22.7986 96.8385 22.6688 96.8385C22.0248 96.8385 21.5217 96.5103 21.1354 96.0396C20.5165 95.2854 20.1903 94.1723 20.0849 93.329C20.0266 92.8628 19.9642 92.3575 19.9642 91.8883C19.9642 91.8193 20.0158 91.4577 20.0342 91.3309Z" fill="#232124"/>
<path fill-rule="evenodd" clip-rule="evenodd" d="M43.397 54.3091C43.9249 53.34 44.938 52.3833 45.8686 51.4019C46.8472 50.3697 47.7314 49.3075 47.9535 48.1965C48.2676 46.6268 47.5619 43.6643 46.8038 42.2997C46.5849 41.9058 46.2585 41.5242 45.8996 41.3005C45.6304 41.1328 45.342 41.0524 45.0614 41.0949C44.7627 41.1401 44.4627 41.3224 44.2063 41.7253C44.1398 41.8297 44.0575 41.9228 43.9886 42.0221C43.8959 42.1557 43.8246 42.2991 43.8053 42.4724C43.7412 43.0495 44.0115 43.569 44.3125 44.0826C44.5658 44.5146 44.8443 44.9411 44.8443 45.4228C44.8443 45.5526 44.9498 45.6581 45.0796 45.6581C45.2095 45.6581 45.3149 45.5526 45.3149 45.4228C45.3149 44.8591 45.0148 44.3502 44.7185 43.8447C44.47 43.4207 44.2201 43.0007 44.273 42.5243C44.2858 42.4098 44.3491 42.3234 44.414 42.2366C44.4774 42.1518 44.5455 42.0686 44.6033 41.9779C44.7658 41.7224 44.9424 41.5888 45.1317 41.5601C45.3065 41.5336 45.4831 41.5955 45.6508 41.6999C45.9469 41.8844 46.2119 42.2032 46.3924 42.5283C47.1096 43.8192 47.7892 46.6193 47.4922 48.1042C47.2851 49.1398 46.4394 50.116 45.5272 51.0781C44.5669 52.0908 43.5285 53.084 42.9837 54.084C42.9216 54.198 42.9638 54.341 43.0778 54.4031C43.1919 54.4652 43.3348 54.4231 43.397 54.3091Z" fill="#232124"/>
<path fill-rule="evenodd" clip-rule="evenodd" d="M37.5065 50.8445C37.5483 49.2353 37.0057 47.6886 37.0057 46.1082C37.0057 45.9784 36.9003 45.8729 36.7704 45.8729C36.6406 45.8729 36.5352 45.9784 36.5352 46.1082C36.5352 47.6846 37.0778 49.2272 37.0361 50.8323C37.0328 50.9622 37.1354 51.0702 37.2652 51.0736C37.395 51.077 37.5032 50.9743 37.5065 50.8445Z" fill="#232124"/>
<path fill-rule="evenodd" clip-rule="evenodd" d="M36.5093 43.9078C36.4911 43.6482 36.6329 43.2903 36.8535 43.0447C37.0413 42.8356 37.2981 42.7067 37.5745 42.8777C37.8511 43.0488 38.1085 43.3818 38.333 43.7623C38.6874 44.3631 38.9528 45.0868 39.0417 45.561C39.1484 46.1299 39.1398 46.5447 39.0413 46.8276C38.9671 47.0406 38.8397 47.1628 38.6739 47.1939C38.4374 47.238 38.1545 47.1255 37.8797 46.9208C37.4143 46.5739 36.9847 45.9526 36.8323 45.1903C36.8068 45.063 36.6828 44.9803 36.5554 45.0058C36.4281 45.0312 36.3454 45.1553 36.3709 45.2826C36.5487 46.1719 37.0555 46.8934 37.5986 47.2981C37.9964 47.5945 38.418 47.7203 38.7603 47.6564C39.0767 47.5973 39.344 47.389 39.4856 46.9823C39.6029 46.6455 39.6311 46.1516 39.5042 45.4743C39.4078 44.9602 39.1225 44.1746 38.7384 43.5232C38.4705 43.0691 38.1521 42.6817 37.822 42.4775C37.3207 42.1674 36.8441 42.351 36.5035 42.7303C36.1957 43.0729 36.0146 43.5787 36.04 43.9408C36.0491 44.0703 36.1617 44.1681 36.2912 44.159C36.4207 44.1499 36.5185 44.0373 36.5093 43.9078Z" fill="#232124"/>
<path fill-rule="evenodd" clip-rule="evenodd" d="M37.7972 42.394C37.7778 41.9848 38.1537 41.2796 38.626 40.887C38.895 40.6633 39.201 40.5339 39.4857 40.7118C39.7848 40.8987 40.0945 41.2666 40.3716 41.7213C40.8028 42.4291 41.1484 43.3481 41.221 44.1767C41.2948 45.017 41.092 45.7693 40.3234 46.0255C40.2002 46.0666 40.1335 46.1999 40.1746 46.3231C40.2157 46.4463 40.349 46.513 40.4722 46.472C41.4575 46.1435 41.7843 45.2127 41.6898 44.1356C41.5573 42.624 40.5843 40.8435 39.7351 40.3128C39.2724 40.0236 38.7624 40.1616 38.3251 40.5252C37.7381 41.0132 37.3031 41.9075 37.3271 42.4162C37.3332 42.5459 37.4434 42.6463 37.5732 42.6401C37.7029 42.634 37.8032 42.5237 37.7972 42.394Z" fill="#232124"/>
<path fill-rule="evenodd" clip-rule="evenodd" d="M39.9925 40.5077C40.2181 40.0996 40.4369 39.8149 40.652 39.6361C40.8302 39.4881 40.9997 39.4186 41.1648 39.425C41.3683 39.4329 41.5556 39.5515 41.7323 39.7304C42.0497 40.0514 42.3218 40.5621 42.5405 41.1311C42.7668 41.7193 43.1744 42.655 43.2719 43.4947C43.324 43.943 43.292 44.3629 43.0544 44.6634C42.9017 44.8565 42.6637 44.9934 42.3204 45.062C42.193 45.0875 42.1103 45.2116 42.1358 45.3389C42.1613 45.4662 42.2854 45.5489 42.4126 45.5235C42.8892 45.4281 43.2115 45.2233 43.4235 44.9552C43.6348 44.688 43.7376 44.3531 43.7588 43.9812C43.8153 42.9877 43.2668 41.7083 42.9798 40.9623C42.7349 40.3255 42.422 39.7587 42.0669 39.3996C41.7955 39.125 41.4956 38.9669 41.1831 38.9548C40.6963 38.9358 40.1321 39.2827 39.5807 40.2799C39.5178 40.3935 39.559 40.5368 39.6726 40.5996C39.7863 40.6625 39.9296 40.6213 39.9925 40.5077Z" fill="#232124"/>
<path fill-rule="evenodd" clip-rule="evenodd" d="M43.0425 40.9019C43.3296 40.2824 43.4789 39.2446 43.5546 38.1044C43.6649 36.4454 43.628 34.5653 43.6943 33.5055C43.7232 33.0417 43.7398 32.4886 43.851 31.9709C43.9532 31.4956 44.1334 31.0486 44.5035 30.7525C44.6727 30.6171 44.8088 30.5641 44.9285 30.599C45.0524 30.6353 45.1427 30.7507 45.2211 30.8879C45.4263 31.2466 45.5179 31.7713 45.5313 32.0661C45.6262 34.1541 45.4567 36.3389 45.3264 38.423C45.3042 38.7791 45.3892 39.5338 45.4072 40.1902C45.4176 40.5748 45.4144 40.9223 45.3252 41.1007C45.2671 41.2168 45.3142 41.3582 45.4304 41.4163C45.5465 41.4744 45.6879 41.4273 45.746 41.3111C45.8321 41.1388 45.8744 40.8465 45.88 40.5015C45.8913 39.8022 45.7705 38.8607 45.796 38.4524C45.9273 36.3516 46.097 34.1494 46.0013 32.0447C45.9854 31.6964 45.872 31.078 45.6295 30.6542C45.4841 30.4 45.2901 30.2145 45.0604 30.1474C44.8264 30.079 44.5405 30.1203 44.2095 30.3851C43.8425 30.6787 43.6159 31.0862 43.4767 31.5402C43.2836 32.1699 43.2612 32.8905 43.2246 33.4761C43.1584 34.5355 43.1953 36.4148 43.0851 38.0732C43.0139 39.1446 42.8854 40.1219 42.6156 40.7041C42.561 40.8219 42.6123 40.9619 42.7301 41.0165C42.848 41.071 42.9879 41.0197 43.0425 40.9019Z" fill="#232124"/>
<path fill-rule="evenodd" clip-rule="evenodd" d="M57.7572 37.6865L58.5942 38.6255C58.9474 39.0215 59.0131 39.5979 58.7643 40.0716C58.2071 41.1322 56.9992 42.8923 54.9268 43.4299C54.5177 43.5361 54.0832 43.4315 53.7707 43.1488C52.5656 42.0591 52.3496 42.019 52.3496 42.019C52.3496 42.019 54.9542 41.4918 57.7572 37.6865Z" fill="#8099D6"/>
<path fill-rule="evenodd" clip-rule="evenodd" d="M58.5012 38.7111C58.0102 39.8981 56.809 41.7528 53.9221 42.9133C53.2512 43.183 52.4876 43.0227 51.99 42.5021L46.6794 36.9471L53.6622 31.6748L58.1978 36.8619C58.6401 37.3678 58.7603 38.085 58.5012 38.7111Z" fill="#0A54AD"/>
<mask id="mask2_5295_93961" style="mask-type:luminance" maskUnits="userSpaceOnUse" x="46" y="31" width="13" height="13">
<path d="M58.5012 38.7111C58.0102 39.8981 56.8089 41.7528 53.9221 42.9133C53.2512 43.183 52.4876 43.0227 51.99 42.5021L46.6794 36.9471L53.6622 31.6748L58.1976 36.8619C58.6401 37.3678 58.7603 38.085 58.5012 38.7111Z" fill="#5273AA"/>
</mask>
<g mask="url(#mask2_5295_93961)">
<path fill-rule="evenodd" clip-rule="evenodd" d="M59.2329 36.9083L58.1856 35.6873C58.1856 35.6873 57.9485 40.8809 50.9784 42.5904C52.4211 44.054 52.4211 44.054 52.4211 44.054C52.4211 44.054 58.4532 43.3483 59.2329 36.9083Z" fill="#BAD4FF"/>
</g>
<path fill-rule="evenodd" clip-rule="evenodd" d="M51.6226 41.0036L49.4589 43.365L45.4131 39.3297L47.8398 36.8502L51.6226 41.0036Z" fill="#8099D6"/>
<path fill-rule="evenodd" clip-rule="evenodd" d="M44.0775 39.0829L44.2359 40.1541L47.8298 43.4204L49.459 43.365L45.4132 39.3297L44.0775 39.0829Z" fill="#85AFFF"/>
<path fill-rule="evenodd" clip-rule="evenodd" d="M35.199 31.3381C40.8607 31.5754 45.248 34.6893 46.6795 36.9472C48.3719 37.1285 51.9399 34.6614 53.6623 31.6749C48.8742 24.4715 48.9844 17.7169 48.9844 17.7169L35.199 31.3381Z" fill="#BAD4FF"/>
<path fill-rule="evenodd" clip-rule="evenodd" d="M43.8847 26.2577C40.025 30.1358 35.9051 32.2807 34.6827 31.0486C33.4604 29.8164 35.5983 25.6736 39.458 21.7955C43.3176 17.9174 47.4375 15.7726 48.6599 17.0047C49.8823 18.2368 47.7443 22.3795 43.8847 26.2577Z" fill="#0A54AD"/>
<mask id="mask3_5295_93961" style="mask-type:luminance" maskUnits="userSpaceOnUse" x="34" y="16" width="16" height="16">
<path d="M43.8847 26.2577C40.0249 30.1358 35.9051 32.2807 34.6827 31.0486C33.4604 29.8164 35.5983 25.6736 39.4579 21.7956C43.3176 17.9174 47.4374 15.7725 48.6599 17.0047C49.8823 18.2368 47.7443 22.3795 43.8847 26.2577Z" fill="#1B2744"/>
</mask>
<g mask="url(#mask3_5295_93961)">
<path fill-rule="evenodd" clip-rule="evenodd" d="M40.3861 25.6101C39.6441 27.4384 40.5109 29.5147 42.3219 30.2476C44.1331 30.9806 46.2028 30.0926 46.9447 28.2645C47.6866 26.4362 46.8199 24.3599 45.0088 23.6269C43.1975 22.894 41.128 23.782 40.3861 25.6101Z" fill="white"/>
</g>
<path fill-rule="evenodd" clip-rule="evenodd" d="M46.3572 36.4896L44.0771 39.0829L45.4128 39.3297L47.8395 36.8502L46.3572 36.4896Z" fill="#8099D6"/>
</g>
<defs>
<clipPath id="clip0_5295_93961">
<rect width="91.4679" height="100" fill="white" transform="translate(14 10)"/>
</clipPath>
</defs>
</svg>
