<svg width="120" height="120" viewBox="0 0 120 120" fill="none" xmlns="http://www.w3.org/2000/svg">
<path fill-rule="evenodd" clip-rule="evenodd" d="M79.6249 89.8224H67.7944C68.1678 89.532 68.5362 89.2336 68.8974 88.9288H78.5015C80.6733 88.9288 82.4338 87.1683 82.4338 84.9965V76.4635L82.6522 76.2163L82.6549 76.2133L83.5572 75.1927V85.8901C83.5572 88.0618 81.7967 89.8224 79.6249 89.8224ZM82.4338 70.6684V48.801C82.4338 48.801 82.3647 45.0658 83.3802 43.3788H86.4564L86.4824 43.41C87.9715 45.1969 87.9715 47.7926 86.4824 49.5795L86.4564 49.6107H83.5564C83.5566 49.6647 83.5572 49.6946 83.5572 49.6946V68.7943L82.4338 70.6684Z" fill="#839BA5"/>
<mask id="mask0_5295_93961" style="mask-type:luminance" maskUnits="userSpaceOnUse" x="44" y="83" width="25" height="7">
<path d="M67.7944 89.8225H48.3034C46.4249 89.8225 45.2751 89.8225 45.2751 89.8225L45.2492 89.7913C43.76 88.0043 43.76 85.4086 45.2492 83.6217L45.2751 83.5906H47.18V88.9288H68.8974C68.5361 89.2336 68.1677 89.532 67.7944 89.8225Z" fill="url(#paint0_radial_5295_93961)"/>
</mask>
<g mask="url(#mask0_5295_93961)">
<path fill-rule="evenodd" clip-rule="evenodd" d="M67.7944 89.8225H48.3034C46.4249 89.8225 45.2751 89.8225 45.2751 89.8225L45.2492 89.7913C43.76 88.0043 43.76 85.4086 45.2492 83.6217L45.2751 83.5906H47.18V88.9288H68.8974C68.5361 89.2336 68.1677 89.532 67.7944 89.8225Z" fill="url(#paint1_radial_5295_93961)"/>
</g>
<path fill-rule="evenodd" clip-rule="evenodd" d="M51.0288 48.7172H85.3331L85.3591 48.686C86.8482 46.899 86.8482 44.3034 85.3591 42.5165L85.3331 42.4853H51.0288L51.1985 42.6679C52.7902 44.3809 52.7284 47.0499 51.0591 48.6875L51.0288 48.7172Z" fill="#F2F2F2"/>
<path fill-rule="evenodd" clip-rule="evenodd" d="M78.5011 88.9289H47.1797V46.1812C47.1797 44.1863 48.7968 42.5692 50.7916 42.5692H81.4343C81.4343 42.5692 84.6145 42.3803 84.5502 42.5692C82.3191 42.6128 82.4334 48.8011 82.4334 48.8011V84.9966C82.4334 87.1683 80.6729 88.9289 78.5011 88.9289Z" fill="white"/>
<path fill-rule="evenodd" clip-rule="evenodd" d="M78.4558 88.9289C77.0588 88.9289 44.1515 88.9289 44.1515 88.9289L44.1256 88.8976C42.6365 87.1107 42.6365 84.515 44.1256 82.7281L44.1515 82.697H78.4558L78.2861 82.8795C76.6944 84.5925 76.424 87.5151 78.4558 88.9289Z" fill="#F2F2F2"/>
<path fill-rule="evenodd" clip-rule="evenodd" d="M54.8003 51.2755H76.1112V49.4821H54.8003V51.2755Z" fill="#F7D77F"/>
<path fill-rule="evenodd" clip-rule="evenodd" d="M69.5483 80.5388H79.0767V79.9545H69.5483V80.5388Z" fill="#004686"/>
<path fill-rule="evenodd" clip-rule="evenodd" d="M51.835 55.3732H79.0768V54.6447H51.835V55.3732Z" fill="#E6E6E6"/>
<path fill-rule="evenodd" clip-rule="evenodd" d="M51.835 58.9493H79.0768V58.2209H51.835V58.9493Z" fill="#E6E6E6"/>
<path fill-rule="evenodd" clip-rule="evenodd" d="M51.835 62.5256H79.0768V61.7971H51.835V62.5256Z" fill="#E6E6E6"/>
<path fill-rule="evenodd" clip-rule="evenodd" d="M51.835 66.1017H79.0768V65.3733H51.835V66.1017Z" fill="#E6E6E6"/>
<path fill-rule="evenodd" clip-rule="evenodd" d="M51.835 69.678H79.0768V68.9496H51.835V69.678Z" fill="#E6E6E6"/>
<path fill-rule="evenodd" clip-rule="evenodd" d="M51.835 76.8304H79.0768V76.1019H51.835V76.8304Z" fill="#E6E6E6"/>
<path fill-rule="evenodd" clip-rule="evenodd" d="M51.835 73.2542H79.0768V72.5258H51.835V73.2542Z" fill="#E6E6E6"/>
<path fill-rule="evenodd" clip-rule="evenodd" d="M83.5571 75.1928V73.9005L83.6923 73.7438L92.7701 58.6004L92.9499 58.7081C92.9669 58.7184 92.9857 58.7233 93.0042 58.7233C93.0403 58.7233 93.0753 58.7049 93.0951 58.6718L98.0087 50.4752C98.0387 50.425 98.0224 50.3599 97.9722 50.3299L96.1902 49.2616C96.2087 49.248 96.2309 49.2408 96.2535 49.2408C96.2724 49.2408 96.2915 49.2459 96.3088 49.2564L98.9999 50.9103C99.0497 50.941 99.0653 51.0062 99.0346 51.056L98.5461 51.8511L98.6972 51.944L98.7812 51.9957L99.095 52.1884C99.135 52.213 99.1476 52.2655 99.1229 52.3057L96.0533 57.3004C96.0372 57.3265 96.0094 57.341 95.9808 57.341C95.9655 57.341 95.9501 57.3368 95.9362 57.3283L95.6111 57.1286C95.5709 57.1039 95.5584 57.0514 95.583 57.0113L98.3538 52.5028C98.3784 52.4628 98.366 52.4103 98.3258 52.3857L98.2472 52.3373L94.031 59.1979C94.011 59.2304 93.9762 59.2484 93.9406 59.2484C93.9217 59.2484 93.9026 59.2433 93.8852 59.2327L93.7067 59.123L84.5091 74.089L84.6489 74.1749C84.7179 74.2173 84.7394 74.3074 84.6971 74.3763L84.6955 74.3788C84.6678 74.4238 84.6197 74.4485 84.5706 74.4485C84.5445 74.4485 84.518 74.4416 84.4942 74.4269L84.3256 74.3234L84.2462 74.4133L84.4322 74.5277C84.5011 74.57 84.5226 74.6602 84.4803 74.729L84.4787 74.7315C84.4511 74.7765 84.4031 74.8014 84.3538 74.8014C84.3277 74.8014 84.3012 74.7944 84.2773 74.7797L84.0473 74.6382L83.5571 75.1928Z" fill="#72868F"/>
<path fill-rule="evenodd" clip-rule="evenodd" d="M82.4336 76.4636V75.2023L83.557 73.9005V75.1928L82.6547 76.2134L82.652 76.2164L82.4336 76.4636Z" fill="#5F7077"/>
<path fill-rule="evenodd" clip-rule="evenodd" d="M79.41 79.8468L79.1499 79.6869L79.6215 77.6834L80.1403 77.3571L81.0581 75.3073L81.9049 75.815L82.4337 75.2023V76.4635L81.1146 77.9557L81.0285 78.5194L79.41 79.8468Z" fill="#B8B8B8"/>
<path fill-rule="evenodd" clip-rule="evenodd" d="M81.9049 75.815L80.3252 74.868L81.4027 72.3884L91.6601 55.277L93.9422 56.6451L83.6923 73.7438L81.9049 75.815Z" fill="#153E49"/>
<path fill-rule="evenodd" clip-rule="evenodd" d="M92.9496 58.7081L90.2404 57.0841C90.1903 57.0541 90.174 56.989 90.204 56.9388L95.1175 48.7422C95.1476 48.692 95.2126 48.6757 95.2628 48.7058L97.972 50.3298C98.0222 50.3599 98.0385 50.425 98.0085 50.4752L93.0948 58.6717C93.0648 58.722 92.9997 58.7383 92.9496 58.7081Z" fill="#113542"/>
<path fill-rule="evenodd" clip-rule="evenodd" d="M97.7653 51.4175L97.6808 51.3668L94.4564 49.434C94.4161 49.4098 94.3637 49.4228 94.3395 49.4632L94.1337 49.8066C94.1095 49.8469 94.1226 49.8993 94.163 49.9235L97.3142 51.8125C97.3546 51.8367 97.3678 51.889 97.3435 51.9294L94.6227 56.4682C94.5985 56.5085 94.6117 56.5609 94.6521 56.5851L94.9793 56.7813C95.0197 56.8054 95.072 56.7924 95.0961 56.752L98.1104 51.7237C98.1347 51.6834 98.1215 51.631 98.0811 51.6068L97.7653 51.4175Z" fill="#1A1A1A"/>
<path fill-rule="evenodd" clip-rule="evenodd" d="M80.3866 77.5711L79.4058 76.9833L81.4029 72.3879L83.6852 73.7559L80.3866 77.5711Z" fill="#5D7A7F"/>
<path fill-rule="evenodd" clip-rule="evenodd" d="M80.3863 77.5711L79.4054 76.9833L78.8904 77.3153L78.4409 79.324L78.7027 79.4808L80.3065 78.1357L80.3863 77.5711Z" fill="#DAE7E8"/>
<path fill-rule="evenodd" clip-rule="evenodd" d="M83.7268 74.0053L81.1117 72.4376C81.0423 72.396 81.0198 72.3061 81.0614 72.2368L81.0629 72.2342C81.1045 72.1648 81.1944 72.1424 81.2637 72.184L83.8788 73.7515C83.9482 73.7931 83.9707 73.883 83.9291 73.9524L83.9276 73.955C83.886 74.0243 83.7961 74.0468 83.7268 74.0053Z" fill="#688689"/>
<path fill-rule="evenodd" clip-rule="evenodd" d="M83.5139 74.3604L80.8988 72.7927C80.8294 72.7511 80.8069 72.6612 80.8485 72.5919L80.85 72.5893C80.8916 72.5199 80.9815 72.4975 81.0508 72.5391L83.666 74.1066C83.7353 74.1482 83.7578 74.2381 83.7163 74.3075L83.7147 74.3101C83.6732 74.3794 83.5833 74.4019 83.5139 74.3604Z" fill="#688689"/>
<path fill-rule="evenodd" clip-rule="evenodd" d="M79.509 78.2921C79.4481 78.3938 79.3163 78.4268 79.2146 78.3658C79.113 78.3049 79.08 78.1731 79.141 78.0714C79.2019 77.9698 79.3337 77.9367 79.4353 77.9976C79.537 78.0586 79.57 78.1905 79.509 78.2921Z" fill="#153E49"/>
<path fill-rule="evenodd" clip-rule="evenodd" d="M78.6322 79.4384L78.5435 79.3851L79.2276 78.2437L79.3165 78.2969L78.6322 79.4384Z" fill="#153E49"/>
<path fill-rule="evenodd" clip-rule="evenodd" d="M91.5083 60.7056L92.7702 58.6004L91.5083 60.7056Z" fill="#526167"/>
<path fill-rule="evenodd" clip-rule="evenodd" d="M91.508 60.7056L90.4878 57.2325L92.7699 58.6004L91.508 60.7056Z" fill="#0F2D35"/>
<path fill-rule="evenodd" clip-rule="evenodd" d="M91.7781 58.006L90.4878 57.2325L91.7781 58.006Z" fill="#0C2630"/>
<path fill-rule="evenodd" clip-rule="evenodd" d="M54.8003 51.2755H57.8076V49.4821H54.8003V51.2755Z" fill="#8CAD81"/>
<path fill-rule="evenodd" clip-rule="evenodd" d="M32.6196 42.5015C32.1666 42.4591 30.7474 42.0925 30.4947 41.956C30.2421 41.8193 29.8834 42.1632 29.5417 42.0613C29.2001 41.9593 27.6716 41.2812 27.6716 41.2812C27.6716 41.2812 25.8633 41.58 24.5224 40.5566C23.1816 39.5333 21.8141 37.6457 21.8913 35.4636C21.9685 33.2816 22.9834 30.5737 23.654 28.3936C24.3246 26.2134 24.3518 24.4288 24.3615 24.2558C24.3713 24.0828 24.0348 20.4956 25.9262 17.9299C27.8175 15.3642 28.77 14.5893 29.5875 14.3935C30.4049 14.1977 31.3205 14.1653 31.3205 14.1653L32.3145 12.9189C32.3145 12.9189 35.2373 9.74759 38.1515 10.169C41.0658 10.5904 42.0842 11.4022 42.7524 11.8015C43.4205 12.2008 45.0441 13.9619 45.0441 13.9619C45.0441 13.9619 47.2598 17.4407 48.2953 18.8174C49.3308 20.1942 52.2079 22.6848 52.7567 24.9479C53.3056 27.2108 53.9576 27.6189 53.8124 30.4038C53.6674 33.1886 53.0589 34.6894 52.6954 35.6005C52.3319 36.5117 51.3547 38.013 50.4846 38.5433C49.6145 39.0738 48.2835 39.1822 48.2835 39.1822C48.2835 39.1822 46.7127 39.5726 45.9818 39.7735C45.2511 39.9745 44.6467 40.2709 41.3032 41.1613C37.9599 42.0518 34.672 41.7399 34.672 41.7399C34.672 41.7399 33.0725 42.5439 32.6196 42.5015Z" fill="#415381"/>
<path fill-rule="evenodd" clip-rule="evenodd" d="M33.049 17.7797C33.049 17.7797 32.8353 19.6017 32.0806 20.4907C31.3259 21.3797 29.8584 23.0836 29.456 24.2982C29.0536 25.5131 28.5139 28.1926 28.5139 28.1926C28.5139 28.1926 27.6131 27.6667 27.2189 27.2391C26.8246 26.8115 25.4342 26.8284 25.7832 29.4277C26.132 32.0269 27.6484 32.7387 28.4482 33.4109C29.2484 34.0829 30.4123 33.8125 30.4123 33.8125C30.4123 33.8125 31.4408 36.3048 31.8757 37.2659C32.3106 38.2271 33.9351 38.9229 33.9351 38.9229C33.9351 38.9229 34.0108 39.65 34.0696 40.3128C34.1285 40.9755 34.1555 42.6899 33.8174 43.9859C33.4792 45.2821 32.3296 47.0733 32.3296 47.0733C32.3296 47.0733 32.5602 50.4174 36.1471 54.2201C39.7341 58.0225 42.0929 58.7164 43.5537 56.7789C45.0145 54.8413 46.6456 48.8316 46.7065 48.5688C46.7674 48.3058 46.5401 46.7361 46.5401 46.7361C46.5401 46.7361 45.0785 43.4085 44.6787 41.0006C44.2788 38.5928 44.3054 35.7509 44.3054 35.7509C44.3054 35.7509 44.8896 35.4043 45.0219 34.2161C45.1541 33.028 45.3833 30.3114 45.5084 29.6689C45.6335 29.0264 45.3987 27.579 45.3987 27.579C45.3987 27.579 43.4471 24.6637 41.9831 23.8356C40.5191 23.0073 37.8939 21.8541 36.6228 21.2847C35.3517 20.7153 34.8868 20.3332 34.3552 19.3077C33.8237 18.2823 33.049 17.7797 33.049 17.7797Z" fill="#FFF0F2"/>
<mask id="mask1_5295_93961" style="mask-type:luminance" maskUnits="userSpaceOnUse" x="25" y="17" width="22" height="41">
<path d="M33.049 17.7797C33.049 17.7797 32.8353 19.6017 32.0806 20.4907C31.3259 21.3797 29.8584 23.0836 29.456 24.2982C29.0536 25.5131 28.5139 28.1926 28.5139 28.1926C28.5139 28.1926 27.6131 27.6667 27.2189 27.2391C26.8246 26.8115 25.4342 26.8284 25.7832 29.4277C26.132 32.0269 27.6484 32.7387 28.4482 33.4109C29.2484 34.0829 30.4123 33.8125 30.4123 33.8125C30.4123 33.8125 31.4408 36.3048 31.8757 37.2659C32.3106 38.2271 33.9351 38.9229 33.9351 38.9229C33.9351 38.9229 34.0108 39.65 34.0696 40.3128C34.1285 40.9755 34.1555 42.6899 33.8174 43.9859C33.4792 45.2821 32.3296 47.0733 32.3296 47.0733C32.3296 47.0733 32.5602 50.4174 36.1471 54.2201C39.7341 58.0225 42.0929 58.7163 43.5537 56.7789C45.0145 54.8413 46.6456 48.8316 46.7065 48.5688C46.7674 48.3058 46.5401 46.7361 46.5401 46.7361C46.5401 46.7361 45.0785 43.4085 44.6787 41.0006C44.2788 38.5928 44.3054 35.7509 44.3054 35.7509C44.3054 35.7509 44.8896 35.4043 45.0219 34.2161C45.1541 33.028 45.3833 30.3114 45.5084 29.6689C45.6335 29.0264 45.3987 27.579 45.3987 27.579C45.3987 27.579 43.4471 24.6637 41.9831 23.8356C40.5191 23.0073 37.8939 21.8541 36.6228 21.2847C35.3517 20.7153 34.8868 20.3332 34.3552 19.3077C33.8237 18.2823 33.049 17.7797 33.049 17.7797Z" fill="#FFDDE3"/>
</mask>
<g mask="url(#mask1_5295_93961)">
<path fill-rule="evenodd" clip-rule="evenodd" d="M33.3067 30.3962C34.6993 30.2154 35.9382 30.9016 36.0714 31.9274C36.2045 32.9533 35.1821 33.933 33.7895 34.1138C32.3969 34.2946 31.158 33.6086 31.0249 32.5826C30.8917 31.5567 31.9142 30.5771 33.3067 30.3962Z" fill="#FFDDE3"/>
</g>
<mask id="mask2_5295_93961" style="mask-type:luminance" maskUnits="userSpaceOnUse" x="25" y="17" width="22" height="41">
<path d="M33.049 17.7797C33.049 17.7797 32.8353 19.6017 32.0806 20.4907C31.3259 21.3797 29.8584 23.0836 29.456 24.2982C29.0536 25.5131 28.5139 28.1926 28.5139 28.1926C28.5139 28.1926 27.6131 27.6667 27.2189 27.2391C26.8246 26.8115 25.4342 26.8284 25.7832 29.4277C26.132 32.0269 27.6484 32.7387 28.4482 33.4109C29.2484 34.0829 30.4123 33.8125 30.4123 33.8125C30.4123 33.8125 31.4408 36.3048 31.8757 37.2659C32.3106 38.2271 33.9351 38.9229 33.9351 38.9229C33.9351 38.9229 34.0108 39.65 34.0696 40.3128C34.1285 40.9755 34.1555 42.6899 33.8174 43.9859C33.4792 45.2821 32.3296 47.0733 32.3296 47.0733C32.3296 47.0733 32.5602 50.4174 36.1471 54.2201C39.7341 58.0225 42.0929 58.7163 43.5537 56.7789C45.0145 54.8413 46.6456 48.8316 46.7065 48.5688C46.7674 48.3058 46.5401 46.7361 46.5401 46.7361C46.5401 46.7361 45.0785 43.4085 44.6787 41.0006C44.2788 38.5928 44.3054 35.7509 44.3054 35.7509C44.3054 35.7509 44.8896 35.4043 45.0219 34.2161C45.1541 33.028 45.3833 30.3114 45.5084 29.6689C45.6335 29.0264 45.3987 27.579 45.3987 27.579C45.3987 27.579 43.4471 24.6637 41.9831 23.8356C40.5191 23.0073 37.8939 21.8541 36.6228 21.2847C35.3517 20.7153 34.8868 20.3332 34.3552 19.3077C33.8237 18.2823 33.049 17.7797 33.049 17.7797Z" fill="#FFDDE3"/>
</mask>
<g mask="url(#mask2_5295_93961)">
<path fill-rule="evenodd" clip-rule="evenodd" d="M43.6109 28.6809C45.0035 28.5002 46.2424 29.1862 46.3756 30.2121C46.5088 31.238 45.4863 32.2177 44.0937 32.3985C42.7011 32.5793 41.4622 31.8933 41.3291 30.8674C41.1959 29.8414 42.2184 28.8617 43.6109 28.6809Z" fill="#FFDDE3"/>
</g>
<path fill-rule="evenodd" clip-rule="evenodd" d="M31.175 28.2344C31.2085 28.0641 31.255 27.2347 32.1537 26.5796C33.0525 25.9244 33.9543 26.0739 34.3621 26.7383C34.7699 27.4025 35.0787 28.4807 34.1993 28.9481C33.32 29.4155 32.3557 29.2726 31.8103 29.2807C31.2647 29.2887 31.1415 28.4048 31.175 28.2344Z" fill="white"/>
<path fill-rule="evenodd" clip-rule="evenodd" d="M40.4336 27.4635C40.4336 27.4635 40.2717 26.6306 40.691 25.9259C41.1102 25.2211 42.3783 24.7262 43.1673 25.3125C43.9563 25.8987 44.2816 27.1291 43.7463 27.6252C43.2109 28.1214 41.7464 28.2308 41.0828 28.21C40.4191 28.1891 40.4336 27.4635 40.4336 27.4635Z" fill="white"/>
<path fill-rule="evenodd" clip-rule="evenodd" d="M4.63535 89.0543C4.63535 89.0543 6.95332 78.895 7.56717 76.3C8.18103 73.705 10.1384 65.9139 11.0559 63.4613C11.9735 61.0087 13.8274 56.8751 14.9454 55.4579C16.0633 54.0408 19.3643 52.3177 20.6676 51.8159C21.9709 51.3142 28.4273 48.7216 29.8417 48.0294C31.2559 47.3372 32.6081 46.2143 32.6081 46.2143C32.6081 46.2143 32.3978 47.3494 32.3856 48.2907C32.3735 49.2321 32.2384 52.804 35.5126 55.0993C38.7869 57.3947 40.7107 60.6105 43.4657 57.4235C46.2207 54.2365 46.7323 51.2018 46.7437 50.8729C46.7551 50.5439 46.5086 47.1213 46.5086 47.1213C46.5086 47.1213 46.1358 46.3921 46.5059 46.3849C46.8758 46.3778 47.9934 47.4048 48.7724 47.9616C49.5514 48.5183 53.5664 50.2435 55.5835 50.8526C57.6006 51.4616 61.2045 52.0775 63.3101 55.3873C65.4159 58.697 66.868 64.6465 66.9669 65.0275C67.0658 65.4084 68.4015 71.2679 69.7085 75.9107C71.0155 80.5534 72.1498 86.6973 72.2806 88.7482C72.4115 90.7991 73.0787 96.6999 72.4395 99.1313C71.8002 101.563 70.9939 102.964 69.9738 104.209C68.9536 105.454 66.9871 106.495 66.5622 106.656C66.1373 106.817 64.5019 107.459 61.8053 107.244C59.1087 107.03 57.7761 106.922 57.0063 106.44C56.2366 105.958 55.1054 105.352 54.6366 103.956C54.1676 102.559 53.9865 100.805 54.0031 100.676C54.0198 100.547 51.9805 98.6725 50.9974 98.6727C50.0144 98.673 40.0994 101.029 39.6271 101.456C39.1548 101.882 30.8764 109.511 30.8764 109.511C30.8764 109.511 29.5074 110.135 28.9209 109.907C28.3344 109.68 24.8895 108.782 24.6111 108.786C24.3326 108.791 18.8337 107.205 18.8337 107.205C18.8337 107.205 12.1444 105.282 11.1011 104.938C10.0577 104.595 6.93137 102.655 5.68775 100.262C4.44413 97.8693 4.29474 95.9191 4.2861 95.5047C4.27746 95.0903 4.24618 91.7703 4.34975 90.9431C4.45345 90.1158 4.63535 89.0543 4.63535 89.0543ZM17.2337 92.4956C17.2337 92.4956 18.5823 90.4221 18.9639 88.8114C19.3455 87.2007 20.1949 85.0712 20.1949 85.0712L20.2513 93.8645L17.2337 92.4956Z" fill="white"/>
<path fill-rule="evenodd" clip-rule="evenodd" d="M32.8114 56.4457C32.8114 56.4457 32.6099 54.4227 32.3963 52.4501C32.1826 50.4777 31.9658 48.3379 31.9658 48.3379L32.416 47.1194C32.416 47.1194 32.8388 48.2265 33.048 48.6195C33.257 49.0125 35.4808 52.3725 38.7158 54.7219C41.9506 57.0711 41.9795 56.6162 42.5756 55.6227C43.1716 54.6291 44.0919 53.0972 44.7429 51.9705C45.3938 50.8439 46.6583 47.4433 46.6583 47.4433C46.6583 47.4433 47.268 47.8914 47.1734 49.3555C47.0787 50.8195 47.4603 56.9094 47.4038 57.1977C47.3474 57.4862 47.7259 65.791 47.5732 69.2332C47.4207 72.6755 47.4046 77.0171 47.4046 77.0171C47.4046 77.0171 46.8516 93.0176 45.1492 96.2821C43.4468 99.5467 37.4824 98.5474 37.4824 98.5474L36.7214 95.2062C36.7214 95.2062 35.7391 83.6435 35.3602 80.2162C34.9813 76.7888 34.3649 70.521 34.3649 70.521L32.8114 56.4457Z" fill="#6492FE"/>
<path fill-rule="evenodd" clip-rule="evenodd" d="M38.2824 97.4533C38.2824 97.4533 39.1539 95.6339 40.3955 93.2414C41.6372 90.849 44.6664 83.5959 44.6664 83.5959C44.6664 83.5959 48.3676 75.4483 49.0565 73.4344C49.7455 71.4206 52.7416 63.7564 53.6573 62.8175C54.5731 61.8786 56.0305 62.3625 58.9435 62.3041C61.8567 62.2455 64.228 63.4362 65.0608 63.589C65.8936 63.7418 66.6329 63.711 65.8963 66.1966C65.1595 68.6822 62.7086 74.4601 61.9394 76.4939C61.1701 78.528 59.4903 84.0602 58.9045 85.6276C58.3188 87.1948 55.7471 93.1869 55.7471 93.1869C55.7471 93.1869 52.3021 101.397 51.8663 102.398C51.4305 103.399 50.4406 104.818 50.1169 104.687C49.793 104.557 47.307 104.29 47.307 104.29C47.307 104.29 41.8161 102.497 38.9868 101.96C36.1576 101.423 35.9193 100.204 36.2785 99.656C36.6375 99.1082 38.2824 97.4533 38.2824 97.4533Z" fill="#E7EFFF"/>
<path fill-rule="evenodd" clip-rule="evenodd" d="M56.225 101.36L57.3405 93.1502C57.3405 93.1502 55.6966 92.5321 55.1508 92.0318C54.6049 91.5315 52.6062 88.1916 52.2178 87.3281C51.8295 86.4646 49.7974 84.6214 49.8969 86.6251C49.9963 88.6289 50.0106 89.2037 50.4745 90.0112C50.9384 90.8186 51.1739 91.4875 51.1739 91.4875C51.1739 91.4875 50.7172 91.7627 49.9875 91.4435C49.2579 91.1241 46.3759 90.3225 44.9397 89.4502C43.5034 88.5779 43.1995 87.3391 42.9059 87.3347C42.6124 87.3303 42.1779 87.3713 42.115 87.8855C42.0521 88.3997 41.6464 88.1602 41.4291 88.8147C41.2119 89.4691 40.9827 89.5022 40.8682 89.893C40.7536 90.2839 40.6534 90.7971 40.5506 91.0752C40.448 91.3534 40.2364 91.7007 40.3549 92.711C40.4735 93.7213 42.1428 95.9599 44.6691 97.4886C47.1955 99.0174 50.2461 99.8915 52.069 100.486C53.8919 101.08 56.225 101.36 56.225 101.36Z" fill="#FFF0F2"/>
<path fill-rule="evenodd" clip-rule="evenodd" d="M31.3815 109.229C31.1093 109.214 29.813 109.166 29.7908 108.875C29.7687 108.584 29.8838 107.553 30.0119 105.767C30.1402 103.981 30.6349 100.956 31.0255 100.352C31.4163 99.7484 32.5949 98.6436 32.5949 98.6436C32.5949 98.6436 34.1563 98.9711 35.4435 98.4955C36.7306 98.02 38.5973 96.8383 39.2955 96.5731C39.9936 96.3078 41.622 95.9123 41.6962 96.6674C41.7704 97.4224 41.0333 97.9241 40.3439 98.5213C39.6543 99.1184 37.0365 100.211 37.0365 100.211C37.0365 100.211 39.0516 100.659 43.3428 100.62C47.6339 100.58 48.0449 100.294 48.4936 100.68C48.9424 101.065 48.7122 101.469 48.7122 101.469C48.7122 101.469 49.329 101.581 49.4346 101.888C49.5401 102.196 49.5552 102.689 49.2246 103.29C48.8938 103.892 48.7565 104.316 48.2922 104.887C47.8279 105.459 46.7102 106.478 46.4532 106.639C46.1963 106.799 44.5992 108.28 40.5639 108.775C36.5287 109.271 31.6535 109.243 31.3815 109.229Z" fill="#FFF0F2"/>
<path fill-rule="evenodd" clip-rule="evenodd" d="M32.9703 17.5558C32.9829 18.451 32.6379 19.1955 32.181 19.8923C31.705 20.6181 31.1082 21.293 30.6381 22.0215C29.5186 23.7569 28.5681 25.7547 28.4519 27.8457C28.4466 27.941 28.5196 28.0225 28.6149 28.0278C28.71 28.0332 28.7917 27.9601 28.7969 27.8649C28.9098 25.8333 29.8408 23.8949 30.9286 22.2089C31.3982 21.4811 31.9945 20.807 32.4699 20.0819C32.9646 19.3278 33.3296 18.5196 33.3159 17.5509C33.3145 17.4556 33.236 17.3793 33.1406 17.3805C33.0452 17.3819 32.9689 17.4605 32.9703 17.5558Z" fill="#232124"/>
<path fill-rule="evenodd" clip-rule="evenodd" d="M33.4142 17.7184C33.6113 19.1613 35.0143 20.7755 36.3215 21.4073C36.7794 21.6285 37.3078 21.6992 37.7784 21.894C38.8227 22.3261 39.9142 22.8698 40.9116 23.4102C44.6012 25.4087 46.8659 29.6668 46.8659 33.824C46.8659 33.9194 46.9434 33.9969 47.0388 33.9969C47.1341 33.9969 47.2116 33.9194 47.2116 33.824C47.2116 29.5443 44.8746 25.1637 41.0762 23.1062C40.0685 22.5604 38.9656 22.0111 37.9105 21.5746C37.446 21.3823 36.9238 21.3146 36.472 21.096C35.2556 20.5081 33.9401 19.0141 33.7566 17.6716C33.7437 17.5771 33.6565 17.511 33.5621 17.5239C33.4676 17.5368 33.4013 17.624 33.4142 17.7184Z" fill="#232124"/>
<path fill-rule="evenodd" clip-rule="evenodd" d="M45.1481 27.745C45.1163 28.1229 45.176 28.504 45.1638 28.8833C45.1123 30.4797 45.1334 32.1936 44.8318 33.7869C44.5361 35.3498 43.9284 36.7966 42.6162 37.8902C42.2145 38.2247 41.8469 38.5871 41.3924 38.8523C41.31 38.9003 41.2821 39.0062 41.3302 39.0887C41.3783 39.171 41.4842 39.1988 41.5665 39.1508C42.0378 38.8759 42.421 38.5026 42.8374 38.1556C44.2153 37.0073 44.8607 35.4922 45.1714 33.8512C45.4762 32.2405 45.4572 30.5083 45.5092 28.8944C45.5212 28.5212 45.4612 28.146 45.4924 27.774C45.5004 27.6789 45.4297 27.5952 45.3347 27.5873C45.2398 27.5793 45.1561 27.65 45.1481 27.745Z" fill="#232124"/>
<path fill-rule="evenodd" clip-rule="evenodd" d="M28.7233 29.1523C29.2244 31.0967 29.9437 33.1628 30.7078 35.0184C31.1636 36.1252 31.6136 37.4964 32.603 38.2738C33.2335 38.7691 34.0446 39.1405 34.8115 39.3595C35.2948 39.4977 35.7012 39.5148 36.1725 39.7167C36.2602 39.7543 36.3618 39.7137 36.3994 39.6261C36.437 39.5384 36.3963 39.4368 36.3086 39.3992C35.8227 39.1909 35.4048 39.1695 34.9064 39.0272C34.181 38.8199 33.4129 38.4706 32.8166 38.002C31.873 37.2606 31.4621 35.9424 31.0274 34.8868C30.2693 33.0455 29.5551 30.9955 29.0579 29.066C29.0341 28.9737 28.9398 28.918 28.8474 28.9417C28.7551 28.9656 28.6994 29.0598 28.7233 29.1523Z" fill="#232124"/>
<path fill-rule="evenodd" clip-rule="evenodd" d="M28.666 28.5021C28.5725 28.381 28.4881 28.253 28.3953 28.1314C28.1877 27.86 27.6602 27.2291 27.1381 26.9408C26.7222 26.7111 26.3104 26.6884 26.0108 27.0753C25.9005 27.2176 25.812 27.4571 25.754 27.6229C25.671 27.86 25.646 28.1113 25.6296 28.3593C25.6099 28.6532 25.6071 28.9349 25.6297 29.2283C25.7688 31.0366 26.7898 32.3762 28.211 33.459C28.7618 33.8788 29.4885 34.2576 30.1933 34.0228C30.2837 33.9926 30.3327 33.8947 30.3027 33.8041C30.2725 33.7137 30.1746 33.6648 30.084 33.6949C29.489 33.8933 28.8855 33.5384 28.4205 33.1841C27.0802 32.163 26.1054 30.907 25.9743 29.2018C25.953 28.9251 25.9559 28.6594 25.9744 28.3823C25.9888 28.1652 26.0076 27.9446 26.0802 27.7371C26.1276 27.6017 26.1939 27.4032 26.284 27.2869C26.4656 27.0521 26.7189 27.104 26.971 27.2432C27.4504 27.508 27.9302 28.0921 28.1209 28.3414C28.2142 28.4633 28.2987 28.5918 28.3924 28.7132C28.4507 28.7888 28.5593 28.8028 28.6346 28.7445C28.7104 28.6862 28.7242 28.5775 28.666 28.5021Z" fill="#232124"/>
<path fill-rule="evenodd" clip-rule="evenodd" d="M28.5497 31.1064L28.5409 31.1088C28.4155 31.1432 28.3096 31.2284 28.2678 31.344C28.2088 31.5082 28.2253 31.7458 28.2948 31.9841C28.3936 32.3223 28.5943 32.6577 28.746 32.7714C28.8224 32.8286 28.9307 32.8133 28.9879 32.7369C29.0452 32.6606 29.0297 32.5522 28.9534 32.495C28.8382 32.4086 28.7017 32.1444 28.6266 31.8872C28.5803 31.7284 28.5537 31.5708 28.5932 31.4612C28.5982 31.4472 28.6172 31.4462 28.6325 31.442C28.6554 31.4356 28.681 31.4303 28.6982 31.4407C28.7427 31.4673 28.8179 31.5543 28.8609 31.5916C28.8974 31.6233 28.9306 31.6392 28.9491 31.6452C29.0527 31.6786 29.1168 31.6328 29.1552 31.5712C29.1698 31.5477 29.1997 31.4944 29.1701 31.4055C29.1261 31.2735 29.038 31.1485 28.9391 31.0302C28.8583 30.9334 28.7704 30.8413 28.7078 30.7491C28.2063 30.0104 27.6465 29.4723 27.0176 28.8435C26.9502 28.776 26.8406 28.776 26.7733 28.8435C26.7058 28.9108 26.7058 29.0203 26.7733 29.0878C27.386 29.7005 27.9334 30.2233 28.4218 30.9432C28.4585 30.9971 28.5028 31.0514 28.5497 31.1064Z" fill="#232124"/>
<path fill-rule="evenodd" clip-rule="evenodd" d="M38.632 30.1892C38.628 30.37 38.7192 30.5383 38.8634 30.6775C39.0435 30.8517 39.3058 30.9808 39.4842 31.0402C39.549 31.0619 39.6167 31.0672 39.6818 31.0744C39.7102 31.0775 39.7414 31.072 39.7598 31.1015C39.8471 31.241 39.7938 31.4446 39.7435 31.5874C39.7032 31.7014 39.6162 31.8036 39.5259 31.8819C39.4073 31.9847 39.28 32.0596 39.1366 32.121C39.049 32.1586 39.0082 32.2602 39.0458 32.3479C39.0834 32.4355 39.185 32.4762 39.2727 32.4387C39.4495 32.3628 39.606 32.2698 39.7523 32.1431C39.8861 32.027 40.0097 31.8715 40.0694 31.7023C40.1506 31.472 40.1936 31.1435 40.0529 30.9184C39.9783 30.7991 39.8797 30.7558 39.768 30.7375C39.7122 30.7283 39.6509 30.7316 39.5934 30.7124C39.4531 30.6656 39.2453 30.5661 39.1036 30.4291C39.0331 30.3609 38.9756 30.2851 38.9774 30.1966C38.9794 30.1013 38.9037 30.0222 38.8084 30.0202C38.713 30.0181 38.634 30.0938 38.632 30.1892Z" fill="#232124"/>
<path fill-rule="evenodd" clip-rule="evenodd" d="M36.3544 33.6448C37.1469 34.5021 38.7927 34.8777 39.8514 34.3386C39.9363 34.2954 39.9702 34.1913 39.927 34.1062C39.8837 34.0212 39.7795 33.9874 39.6946 34.0306C38.7598 34.5066 37.3079 34.1673 36.6084 33.4102C36.5436 33.3402 36.4341 33.3358 36.364 33.4006C36.2941 33.4653 36.2897 33.5748 36.3544 33.6448Z" fill="#232124"/>
<path fill-rule="evenodd" clip-rule="evenodd" d="M33.0906 31.8849C31.3228 31.5894 29.7408 29.8214 29.6191 28.0241C29.4687 25.8014 31.1582 23.7919 33.47 24.0636C34.7595 24.2152 36.0015 25.0912 36.5233 26.2838C37.4381 28.3748 36.6637 30.9156 34.4822 31.7337C34.202 31.8388 33.803 31.8396 33.5069 31.8396C33.4116 31.8396 33.3341 31.9171 33.3341 32.0125C33.3341 32.1078 33.4116 32.1852 33.5069 32.1852C33.84 32.1852 34.2881 32.1756 34.6035 32.0573C36.9729 31.1687 37.8335 28.4163 36.8399 26.1453C36.2706 24.844 34.9172 23.8857 33.5104 23.7204C30.9762 23.4226 29.1094 25.6108 29.2743 28.0475C29.406 29.9931 31.12 31.9059 33.0335 32.2258C33.1277 32.2416 33.2168 32.1779 33.2325 32.0839C33.2482 31.9898 33.1846 31.9007 33.0906 31.8849Z" fill="#232124"/>
<path fill-rule="evenodd" clip-rule="evenodd" d="M41.9833 30.2933C40.5718 29.9496 39.6394 28.8338 39.2505 27.5234C38.859 26.2036 39.0158 24.6837 39.7987 23.5384C40.2505 22.8774 41.0236 22.4801 41.7742 22.2707C42.2051 22.1505 42.6626 22.0988 43.1084 22.1586C44.7605 22.38 46.1273 23.8341 46.4201 25.4435C46.5494 26.1549 46.4398 26.9191 46.2404 27.6032C45.9159 28.7154 45.2009 29.8094 44.0458 30.1944C43.5973 30.3439 43.0923 30.353 42.6257 30.3197C42.5305 30.3128 42.4478 30.3845 42.441 30.4797C42.4342 30.5748 42.5059 30.6575 42.601 30.6644C43.112 30.7009 43.6641 30.6859 44.155 30.5223C45.4191 30.101 46.2172 28.917 46.5722 27.6999C46.7862 26.9657 46.8988 26.1452 46.76 25.3817C46.4419 23.632 44.9504 22.0567 43.1544 21.8161C42.662 21.7501 42.157 21.8051 41.6814 21.9378C40.855 22.1683 40.0106 22.6158 39.5133 23.3434C38.6727 24.5731 38.4987 26.2044 38.9192 27.6217C39.3424 29.048 40.365 30.2549 41.9015 30.6291C41.9941 30.6516 42.0877 30.5947 42.1103 30.5021C42.1328 30.4094 42.0759 30.3158 41.9833 30.2933Z" fill="#232124"/>
<path fill-rule="evenodd" clip-rule="evenodd" d="M37.295 27.6175C37.7917 27.4011 38.2855 27.323 38.8536 27.323C38.9489 27.323 39.0264 27.2455 39.0264 27.1502C39.0264 27.0549 38.9489 26.9774 38.8536 26.9774C38.2351 26.9774 37.6978 27.065 37.157 27.3007C37.0696 27.3388 37.0296 27.4407 37.0676 27.5281C37.1057 27.6155 37.2076 27.6555 37.295 27.6175Z" fill="#232124"/>
<path fill-rule="evenodd" clip-rule="evenodd" d="M31.2591 26.1634C31.84 25.2478 32.9683 24.9106 33.9821 24.9668C34.0775 24.9722 34.1591 24.8992 34.1643 24.8039C34.1697 24.7087 34.0966 24.6271 34.0014 24.6218C32.8684 24.5589 31.6163 24.955 30.9673 25.9784C30.9162 26.0589 30.9402 26.1657 31.0207 26.2168C31.1012 26.2679 31.2081 26.2439 31.2591 26.1634Z" fill="#232124"/>
<path fill-rule="evenodd" clip-rule="evenodd" d="M31.3704 28.0177C31.3774 27.842 31.475 27.6838 31.5549 27.5312C31.7592 27.1413 32.0028 26.7862 32.3807 26.5438C33.1054 26.0792 34.0039 26.2753 34.3335 27.0663C34.3702 27.1543 34.4714 27.196 34.5595 27.1594C34.6475 27.1226 34.6892 27.0214 34.6525 26.9333C34.2366 25.9353 33.1087 25.6667 32.1942 26.2528C31.7643 26.5285 31.4811 26.9274 31.2488 27.3708C31.1456 27.5678 31.0341 27.7772 31.025 28.004C31.0213 28.0993 31.0955 28.1797 31.1909 28.1836C31.2862 28.1873 31.3666 28.113 31.3704 28.0177Z" fill="#232124"/>
<path fill-rule="evenodd" clip-rule="evenodd" d="M32.7295 26.3074L32.7291 26.3069C32.6709 26.2313 32.5623 26.2171 32.4868 26.2754C32.0336 26.6243 31.8409 27.4067 31.9643 28.0691C32.0941 28.7652 32.5529 29.3139 33.34 29.1576C33.5016 29.1257 33.6359 29.0303 33.7392 28.9004C33.8751 28.7294 33.9555 28.4973 33.9791 28.3078C34.0553 27.6997 34.0193 27.2177 33.579 26.7774C33.4791 26.6775 33.4027 26.5556 33.3097 26.465C33.1804 26.339 33.0273 26.2587 32.7956 26.2944C32.773 26.2979 32.7509 26.3022 32.7295 26.3074ZM32.8634 28.7774C32.8474 28.779 32.8308 28.7801 32.8138 28.7804C32.8358 28.79 32.8584 28.7984 32.8817 28.8056C32.8749 28.797 32.8687 28.7875 32.8634 28.7774Z" fill="#232124"/>
<path fill-rule="evenodd" clip-rule="evenodd" d="M40.4353 24.6353C40.4583 24.6219 40.4994 24.597 40.5406 24.5679C40.8251 24.3671 41.0715 24.2284 41.3899 24.1029C42.2247 23.7741 43.066 23.5306 43.7618 24.2156C43.8297 24.2826 43.9391 24.2818 44.0061 24.2139C44.073 24.1458 44.0722 24.0363 44.0042 23.9694C43.1992 23.1767 42.2293 23.4008 41.2631 23.7813C40.9177 23.9174 40.6501 24.0676 40.3413 24.2856C40.2751 24.3322 40.2354 24.3499 40.2095 24.3694C40.1545 24.4107 40.1191 24.4512 40.0965 24.5678C40.0782 24.6615 40.1395 24.7521 40.2331 24.7704C40.3262 24.7885 40.4165 24.728 40.4353 24.6353Z" fill="#232124"/>
<path fill-rule="evenodd" clip-rule="evenodd" d="M40.7479 26.1001C40.7409 26.0638 40.7554 26.0281 40.7759 25.9921C40.81 25.9316 40.8639 25.8733 40.9263 25.817C41.146 25.6187 41.4679 25.4539 41.6064 25.3822C42.2964 25.0252 43.3732 25.115 43.6521 25.9517C43.6823 26.0423 43.7802 26.0912 43.8708 26.0611C43.9612 26.0309 44.0102 25.9329 43.98 25.8424C43.6325 24.7997 42.3074 24.6305 41.4476 25.0753C41.266 25.1693 40.8074 25.4113 40.5738 25.6833C40.4409 25.8381 40.3776 26.0065 40.4086 26.1661C40.4269 26.2597 40.5177 26.321 40.6112 26.3028C40.7048 26.2845 40.7661 26.1937 40.7479 26.1001Z" fill="#232124"/>
<path fill-rule="evenodd" clip-rule="evenodd" d="M41.9899 25.0443C41.978 25.0425 41.9657 25.042 41.9532 25.0427C41.7797 25.0539 41.6353 25.1369 41.5209 25.2612C41.3753 25.4193 41.2806 25.6483 41.2349 25.8424C41.2052 25.9687 41.1792 26.2188 41.1712 26.3175C41.1456 26.6324 41.1555 27.1346 41.2993 27.5208C41.3983 27.7872 41.5611 27.9992 41.7987 28.094C41.958 28.1575 42.1537 28.1709 42.3939 28.1015C42.6577 28.0254 42.8882 27.7834 43.0507 27.5735C43.4238 27.0918 43.6138 26.2314 43.2991 25.663C43.1831 25.4535 42.8509 25.2086 42.5134 25.0957C42.3286 25.0339 42.1439 25.0134 41.9899 25.0443ZM41.6183 27.387L41.6231 27.4003C41.6858 27.5689 41.7766 27.713 41.9268 27.773C42.0262 27.8126 42.1482 27.8127 42.298 27.7695C42.495 27.7126 42.6561 27.5186 42.7775 27.3619C43.077 26.975 43.2495 26.2868 42.9968 25.8304C42.9107 25.6749 42.6541 25.5073 42.4037 25.4234C42.2563 25.3741 42.1096 25.348 42.0056 25.4C41.8919 25.4568 41.8112 25.5634 41.75 25.6853C41.643 25.8988 41.598 26.1616 41.5875 26.3631C41.572 26.6558 41.5414 26.9252 41.6539 27.2022C41.6803 27.2673 41.6642 27.3392 41.6183 27.387Z" fill="#232124"/>
<path fill-rule="evenodd" clip-rule="evenodd" d="M41.8952 25.3259C41.8259 25.3472 41.7615 25.3916 41.7058 25.4602C41.6461 25.534 41.5942 25.641 41.5536 25.77C41.421 26.1922 41.3959 26.8781 41.3878 27.145C41.3845 27.2531 41.3525 27.4111 41.3792 27.5128C41.4047 27.6099 41.4623 27.6796 41.5602 27.7122C41.5941 27.7236 41.6266 27.7283 41.6575 27.7265C41.6621 27.7384 41.6675 27.7503 41.6734 27.7621C41.7077 27.831 41.7572 27.8534 41.7945 27.8632C41.8401 27.8752 41.8875 27.8712 41.9347 27.8429C41.9535 27.8316 41.9771 27.8121 41.9981 27.7816L42.0065 27.7904C42.0606 27.8446 42.1145 27.8535 42.1553 27.8521C42.1749 27.8514 42.194 27.848 42.2124 27.8414C42.2324 27.8792 42.261 27.8981 42.2815 27.9095C42.3302 27.9366 42.387 27.9442 42.4495 27.9111C42.4685 27.9011 42.4975 27.8808 42.5221 27.8429C42.5357 27.8221 42.5532 27.7835 42.5654 27.7528C42.58 27.7558 42.5959 27.7575 42.6132 27.7575C42.71 27.7575 42.7807 27.7123 42.8295 27.6324C42.8726 27.562 42.8853 27.4346 42.9114 27.3535C42.9498 27.234 42.9888 27.1103 43.0239 26.984C43.104 26.8381 43.1073 26.8493 43.1855 26.6929C43.2236 26.6166 43.2 26.5257 43.1337 26.4767C43.1621 26.273 43.1678 26.0683 43.1346 25.8687C43.1217 25.7916 43.08 25.7561 43.0471 25.7362C43.0062 25.7115 42.9586 25.7019 42.9043 25.717C42.9003 25.7181 42.8962 25.7195 42.8918 25.7211C42.8815 25.6457 42.8647 25.5763 42.8405 25.5155C42.8108 25.4414 42.762 25.4144 42.7252 25.4017C42.6945 25.391 42.6626 25.3877 42.6296 25.3945C42.613 25.3808 42.5944 25.3687 42.5735 25.3582C42.5268 25.3348 42.4829 25.3299 42.4425 25.3353C42.3995 25.3407 42.3578 25.3587 42.3209 25.3915C42.3095 25.328 42.2818 25.2712 42.2342 25.2235C42.1874 25.1768 42.1394 25.1646 42.0988 25.1635C42.0605 25.1626 42.0235 25.1723 41.9886 25.1952C41.962 25.2128 41.9322 25.2428 41.91 25.2883C41.9048 25.299 41.8999 25.3118 41.8952 25.3259Z" fill="#232124"/>
<path fill-rule="evenodd" clip-rule="evenodd" d="M42.4036 25.6975C42.4446 25.6903 42.5006 25.6818 42.5417 25.68C42.5726 25.6787 42.6017 25.6753 42.6195 25.6824C42.8281 25.7658 42.855 25.9957 42.8756 26.1986C42.8852 26.2936 42.9701 26.3627 43.065 26.3531C43.1598 26.3433 43.2291 26.2586 43.2194 26.1637C43.1862 25.8362 43.0847 25.4963 42.7479 25.3616C42.681 25.3348 42.555 25.3287 42.4384 25.3416C42.3199 25.3547 42.2133 25.3871 42.1849 25.4041C42.1317 25.4359 42.1124 25.4778 42.1037 25.5052C42.0897 25.5498 42.0932 25.5926 42.1128 25.6335C42.1238 25.6567 42.16 25.7283 42.2792 25.7376C42.3261 25.7412 42.3701 25.7257 42.4036 25.6975Z" fill="#232124"/>
<path fill-rule="evenodd" clip-rule="evenodd" d="M41.9111 27.8911C41.9432 27.8911 41.9722 27.9115 42.0033 27.9193C42.0959 27.9425 42.1897 27.8861 42.2129 27.7937C42.2361 27.7011 42.1797 27.6073 42.0871 27.5841C42.0288 27.5695 41.9712 27.5455 41.9111 27.5455C41.8156 27.5455 41.7383 27.6229 41.7383 27.7184C41.7383 27.8137 41.8156 27.8911 41.9111 27.8911Z" fill="#232124"/>
<path fill-rule="evenodd" clip-rule="evenodd" d="M32.3373 26.4782C32.1627 26.5243 32.045 26.6613 31.9769 26.843C31.8997 27.0487 31.8879 27.3146 31.8808 27.477C31.8484 28.2214 32.0875 29.0873 32.9343 29.193C32.9842 29.1993 33.0624 29.2157 33.1358 29.221C33.21 29.2265 33.2805 29.2199 33.3334 29.2003C33.7225 29.0556 33.9463 28.7394 34.0419 28.3613C34.1753 27.8334 34.0491 27.1831 33.8056 26.7773C33.7318 26.6543 33.4603 26.291 33.216 26.1722C33.0502 26.0915 32.8926 26.1002 32.7666 26.2261C32.6993 26.2934 32.6993 26.403 32.7666 26.4704C32.8341 26.5379 32.9436 26.5379 33.0111 26.4704C33.0231 26.4583 33.0381 26.4711 33.054 26.4779C33.0797 26.4889 33.1057 26.5052 33.1318 26.5243C33.2985 26.646 33.4594 26.8719 33.5093 26.9552C33.7124 27.2937 33.8181 27.8361 33.7068 28.2767C33.6392 28.5442 33.4882 28.774 33.213 28.8764C33.1921 28.8841 33.1624 28.8771 33.1329 28.8737C33.0744 28.867 33.0166 28.855 32.9772 28.8501C32.6699 28.8118 32.4805 28.6299 32.3694 28.3919C32.2451 28.1257 32.213 27.7941 32.226 27.4919C32.2319 27.3569 32.2363 27.1354 32.3005 26.9644C32.3266 26.8947 32.3584 26.8301 32.4253 26.8125C32.5177 26.7881 32.5728 26.6936 32.5484 26.6013C32.5241 26.5091 32.4296 26.4539 32.3373 26.4782Z" fill="#232124"/>
<path fill-rule="evenodd" clip-rule="evenodd" d="M32.9449 28.9686L32.9869 28.9431C33.0755 28.9359 33.1453 28.8614 33.1453 28.7709C33.1453 28.6756 33.0678 28.5982 32.9725 28.5982C32.8933 28.5982 32.774 28.6591 32.715 28.7067C32.6514 28.758 32.6337 28.818 32.6308 28.8339C32.6224 28.8816 32.6335 28.9199 32.6507 28.9502C32.668 28.9806 32.6933 29.0062 32.7304 29.0229C32.7514 29.0324 32.7969 29.0521 32.8662 29.0269C32.8987 29.0151 32.9256 28.9944 32.9449 28.9686ZM32.8208 28.6923C32.8032 28.6904 32.7819 28.6913 32.7573 28.699C32.7784 28.6927 32.7999 28.6907 32.8208 28.6923Z" fill="#232124"/>
<path fill-rule="evenodd" clip-rule="evenodd" d="M41.4189 25.3312C41.2935 25.4328 41.221 25.6073 41.1997 25.8191C41.1605 26.2113 41.2893 26.7439 41.3429 26.9582C41.3661 27.0508 41.4599 27.1071 41.5525 27.084C41.645 27.0608 41.7013 26.967 41.6782 26.8744C41.6365 26.7077 41.5413 26.3295 41.5377 26.0007C41.5366 25.9033 41.5435 25.8107 41.565 25.7317C41.5798 25.6772 41.5997 25.6295 41.6366 25.5996C41.7107 25.5397 41.7221 25.4307 41.662 25.3567C41.6019 25.2825 41.493 25.2711 41.4189 25.3312Z" fill="#232124"/>
<path fill-rule="evenodd" clip-rule="evenodd" d="M31.1549 14.0391C29.8543 13.9205 28.7628 14.4768 27.8366 15.3059C26.9359 16.1121 26.1927 17.1764 25.5622 18.098C24.9851 18.9413 24.6656 20.0137 24.4685 21.1541C24.1795 22.8266 24.1533 24.646 23.925 26.0727C23.7389 27.2362 23.5279 28.4246 23.1418 29.5443C22.4198 31.6383 21.5629 33.5105 21.7496 35.7973C21.9499 38.2484 23.3275 40.6209 25.7688 41.3409C26.5389 41.5681 27.1038 41.7354 27.9186 41.5409C28.0115 41.5188 28.0688 41.4255 28.0466 41.3327C28.0245 41.2399 27.9312 41.1826 27.8383 41.2047C27.0906 41.3833 26.5733 41.2179 25.8666 41.0095C23.5645 40.3305 22.2829 38.0805 22.0942 35.7692C21.9115 33.5327 22.7624 31.7048 23.4685 29.657C23.8611 28.5184 24.077 27.3105 24.2663 26.1273C24.4567 24.9372 24.5068 23.4741 24.6855 22.0506C24.8604 20.6579 25.1567 19.3025 25.8474 18.293C26.4633 17.3929 27.1872 16.3511 28.067 15.5634C28.9213 14.7987 29.9238 14.2738 31.1235 14.3833C31.2185 14.3919 31.3025 14.322 31.3113 14.2269C31.32 14.132 31.2499 14.0478 31.1549 14.0391Z" fill="#232124"/>
<path fill-rule="evenodd" clip-rule="evenodd" d="M26.1331 38.6999C26.3532 39.0253 26.5113 39.634 26.6809 39.957C27.1029 40.7609 27.4677 41.2932 27.9422 41.628C28.423 41.9674 29.0183 42.1102 29.911 42.1102C30.0064 42.1102 30.0837 42.0328 30.0837 41.9375C30.0837 41.842 30.0064 41.7646 29.911 41.7646C29.1102 41.7646 28.5728 41.6501 28.1414 41.3456C27.7035 41.0367 27.3763 40.5383 26.9869 39.7963C26.8127 39.4645 26.6456 38.8408 26.4194 38.5063C26.366 38.4273 26.2585 38.4066 26.1795 38.46C26.1005 38.5133 26.0798 38.6209 26.1331 38.6999Z" fill="#232124"/>
<path fill-rule="evenodd" clip-rule="evenodd" d="M28.1408 39.5077C28.7603 40.9335 30.5577 42.5425 32.2241 42.5619C32.3992 42.5639 32.5836 42.5146 32.7658 42.4417C33.006 42.3456 33.2431 42.2078 33.4477 42.1261C33.5363 42.0907 33.5793 41.99 33.5439 41.9015C33.5086 41.8129 33.4079 41.7698 33.3193 41.8052C33.1468 41.8742 32.9514 41.9822 32.7504 42.0726C32.5758 42.1512 32.3973 42.2183 32.228 42.2163C30.6843 42.1984 29.0317 40.6908 28.4578 39.37C28.4198 39.2825 28.3177 39.2423 28.2305 39.2803C28.143 39.3183 28.1028 39.4202 28.1408 39.5077Z" fill="#232124"/>
<path fill-rule="evenodd" clip-rule="evenodd" d="M33.6626 38.8716C34.2921 42.1763 33.7684 44.3431 32.2155 47.1903C32.1698 47.274 32.2006 47.379 32.2843 47.4247C32.3681 47.4704 32.4731 47.4395 32.5188 47.3557C34.1146 44.4301 34.6491 42.2029 34.0022 38.807C33.9843 38.7133 33.8938 38.6517 33.8001 38.6696C33.7064 38.6874 33.6448 38.7779 33.6626 38.8716Z" fill="#232124"/>
<path fill-rule="evenodd" clip-rule="evenodd" d="M44.2876 35.9491C44.1649 39.8541 44.9325 43.7657 46.4647 47.341C46.5023 47.4287 46.604 47.4694 46.6916 47.4319C46.7793 47.3943 46.82 47.2926 46.7824 47.205C45.2698 43.6756 44.5119 39.8146 44.6332 35.96C44.6361 35.8646 44.5612 35.7848 44.4658 35.7817C44.3705 35.7788 44.2907 35.8538 44.2876 35.9491Z" fill="#232124"/>
<path fill-rule="evenodd" clip-rule="evenodd" d="M45.708 35.5463C45.6883 36.0114 45.6198 37.2376 45.3137 38.1742C45.2166 38.4714 45.0961 38.7387 44.9425 38.9378C44.8089 39.1106 44.6515 39.2302 44.4576 39.2534C44.3628 39.2646 44.2951 39.3506 44.3064 39.4454C44.3178 39.5401 44.4038 39.6078 44.4984 39.5965C44.9098 39.5475 45.229 39.2238 45.4569 38.75C45.9301 37.766 46.0293 36.1254 46.0533 35.5609C46.0574 35.4656 45.9834 35.3849 45.888 35.381C45.7928 35.3768 45.7122 35.4509 45.708 35.5463Z" fill="#232124"/>
<path fill-rule="evenodd" clip-rule="evenodd" d="M31.9864 13.5696C32.5963 12.4855 33.8276 11.5926 35.1851 11.0242C36.5453 10.4546 38.0351 10.21 39.1674 10.4428C40.5066 10.7183 41.6837 11.4214 42.8295 12.1159C43.808 12.7088 44.5147 13.5609 45.1424 14.4862C45.7852 15.4338 46.3454 16.4579 47.0159 17.3723C48.2155 19.0081 49.642 20.4375 50.9302 21.9989C52.7302 24.1804 53.479 27.2185 53.5419 29.9826C53.5811 31.713 53.3538 33.8893 52.5884 35.6816C51.8384 37.4377 50.569 38.8253 48.5058 39.0169C48.4109 39.0258 48.3409 39.11 48.3498 39.2049C48.3586 39.2999 48.4428 39.3698 48.5379 39.3611C50.7393 39.1565 52.1061 37.6912 52.9062 35.8173C53.691 33.9797 53.9276 31.749 53.8873 29.9748C53.8228 27.1362 53.0452 24.0191 51.1969 21.779C49.9126 20.2226 48.4903 18.7984 47.2947 17.1679C46.6266 16.2569 46.0689 15.2362 45.4283 14.2922C44.7727 13.3258 44.0306 12.4397 43.0087 11.8203C41.8294 11.1056 40.6153 10.3878 39.2371 10.1044C38.0475 9.85968 36.4807 10.1069 35.0516 10.7054C33.6196 11.3049 32.3286 12.2565 31.6852 13.4001C31.6386 13.4833 31.6681 13.5888 31.7512 13.6355C31.8343 13.6823 31.9397 13.6527 31.9864 13.5696Z" fill="#232124"/>
<path fill-rule="evenodd" clip-rule="evenodd" d="M51.4372 33.4643C51.285 35.2374 50.7589 36.7117 49.8175 37.7753C48.8811 38.8333 47.5342 39.4805 45.7484 39.618C45.6533 39.6252 45.5821 39.7084 45.5894 39.8034C45.5966 39.8986 45.6798 39.9698 45.775 39.9625C47.6644 39.8171 49.0857 39.1237 50.0763 38.0044C51.0621 36.8905 51.6222 35.3505 51.7817 33.4938C51.7898 33.3989 51.7193 33.3151 51.6242 33.307C51.5293 33.2988 51.4455 33.3693 51.4372 33.4643Z" fill="#232124"/>
<path fill-rule="evenodd" clip-rule="evenodd" d="M32.4014 47.9417C33.2768 49.5974 34.5687 51.1912 35.8591 52.5261C36.5339 53.2242 37.2781 53.8141 37.9896 54.4734C38.3466 54.804 39.7117 55.8792 40.742 56.4133C41.0189 56.5568 41.2731 56.6616 41.4798 56.7076C41.6469 56.7447 41.7886 56.7434 41.8964 56.7074C42.1756 56.6144 42.4247 56.3591 42.638 56.0405C42.923 55.6143 43.1503 55.076 43.3431 54.7678C44.4466 53.0021 45.5753 51.155 46.3236 49.2093C46.3579 49.1203 46.3134 49.0202 46.2244 48.986C46.1354 48.9517 46.0353 48.9962 46.0011 49.0852C45.2605 51.0106 44.142 52.8373 43.0501 54.5845C42.8587 54.8905 42.6337 55.4251 42.3508 55.8483C42.1852 56.0958 42.004 56.3073 41.7871 56.3796C41.727 56.3996 41.648 56.391 41.5549 56.3702C41.3715 56.3295 41.1468 56.2339 40.9011 56.1065C39.8992 55.587 38.5716 54.5414 38.2246 54.2199C37.5177 53.565 36.7779 52.9793 36.1077 52.2859C34.8391 50.9737 33.5675 49.4078 32.707 47.7801C32.6624 47.6958 32.5578 47.6635 32.4734 47.7081C32.3892 47.7527 32.3568 47.8574 32.4014 47.9417Z" fill="#232124"/>
<path fill-rule="evenodd" clip-rule="evenodd" d="M32.8078 53.6456C34.4727 56.1739 37.1377 58.3619 39.7032 59.8778C40.1092 60.1177 41.1693 60.9146 42.0306 61.241C42.4501 61.4001 42.8296 61.442 43.0905 61.3115C43.511 61.1012 44.0247 60.567 44.5045 59.9435C45.2082 59.0292 45.8457 57.9283 46.0305 57.4476C46.0646 57.3587 46.0202 57.2586 45.9311 57.2243C45.8421 57.1901 45.7421 57.2346 45.7078 57.3236C45.5294 57.7878 44.9104 58.8495 44.2307 59.7327C43.7884 60.3073 43.3235 60.8087 42.936 61.0025C42.8423 61.0493 42.7257 61.0545 42.5948 61.0377C42.3569 61.007 42.0796 60.9003 41.7932 60.7602C41.0344 60.389 40.2211 59.7825 39.879 59.5803C37.3565 58.0897 34.7335 55.9414 33.0964 53.4554C33.0439 53.3759 32.9368 53.3538 32.8571 53.4062C32.7774 53.4586 32.7553 53.5659 32.8078 53.6456Z" fill="#232124"/>
<path fill-rule="evenodd" clip-rule="evenodd" d="M41.9394 56.9726C41.8537 58.0989 42.4584 59.8691 42.5851 61.1376C42.5946 61.2325 42.6794 61.3018 42.7743 61.2923C42.8692 61.2828 42.9385 61.1981 42.929 61.1031C42.804 59.8528 42.1995 58.1091 42.284 56.9989C42.2913 56.9037 42.22 56.8207 42.1249 56.8134C42.0298 56.8062 41.9467 56.8775 41.9394 56.9726Z" fill="#232124"/>
<path fill-rule="evenodd" clip-rule="evenodd" d="M46.626 47.9088C47.3781 51.9578 47.0608 56.0921 47.218 60.1807C47.3979 64.8539 47.5105 69.4941 47.2183 74.1698C47.2123 74.265 47.2847 74.3471 47.3799 74.3531C47.4751 74.359 47.5573 74.2866 47.5632 74.1914C47.8562 69.504 47.7435 64.8523 47.5634 60.1674C47.4055 56.0621 47.721 51.9111 46.9658 47.8456C46.9483 47.7519 46.8581 47.6899 46.7643 47.7073C46.6706 47.7247 46.6086 47.815 46.626 47.9088Z" fill="#232124"/>
<path fill-rule="evenodd" clip-rule="evenodd" d="M31.7271 48.5601C33.2989 60.5165 34.2637 72.5513 35.6459 84.5296C36.0928 88.4023 36.0465 92.5292 36.8926 96.3366C36.9133 96.4298 37.0058 96.4885 37.0988 96.4679C37.1919 96.4472 37.2508 96.3547 37.2301 96.2617C36.3865 92.4657 36.4347 88.351 35.9892 84.49C34.6069 72.5099 33.6419 60.4732 32.0697 48.5149C32.0574 48.4204 31.9704 48.3538 31.8759 48.3662C31.7814 48.3786 31.7147 48.4654 31.7271 48.5601Z" fill="#232124"/>
<path fill-rule="evenodd" clip-rule="evenodd" d="M46.4797 56.9708L46.7784 56.4532C47.0057 56.0472 47.1974 55.6757 47.3705 55.2427C47.406 55.1542 47.3628 55.0535 47.2743 55.0181C47.1857 54.9827 47.085 55.0258 47.0496 55.1144C46.8821 55.5331 46.6967 55.8918 46.4768 56.2844C46.4749 56.2879 46.2551 56.6322 46.1772 56.7978C46.1499 56.8557 46.1374 56.9026 46.1351 56.9284C46.1321 56.9627 46.1378 56.9901 46.1452 57.0107C46.1773 57.1006 46.2764 57.1473 46.3662 57.1151C46.4306 57.0921 46.4728 57.0346 46.4797 56.9708Z" fill="#232124"/>
<path fill-rule="evenodd" clip-rule="evenodd" d="M46.4804 46.5018C46.6723 46.5423 46.8653 46.656 47.0554 46.7933C47.3712 47.0217 47.6757 47.317 47.9421 47.5168C48.9635 48.2829 50.1928 48.8605 51.3367 49.4325C53.5831 50.5557 56.1223 51.1055 58.5009 51.8984C59.2498 52.148 60.1488 52.5068 60.8201 52.9199C61.0485 53.0605 61.227 53.2886 61.4665 53.4084C61.5518 53.4511 61.6557 53.4165 61.6983 53.3312C61.741 53.2459 61.7064 53.142 61.6211 53.0993C61.3905 52.984 61.2212 52.7609 61.0012 52.6255C60.3089 52.1995 59.3826 51.8279 58.6101 51.5705C56.247 50.7828 53.7232 50.2393 51.4912 49.1234C50.3657 48.5605 49.1546 47.9941 48.1495 47.2404C47.8816 47.0394 47.5754 46.7428 47.2579 46.5133C47.0256 46.3454 46.7863 46.2132 46.5517 46.1637C46.4584 46.1439 46.3666 46.2037 46.347 46.297C46.3273 46.3904 46.3871 46.4821 46.4804 46.5018Z" fill="#232124"/>
<path fill-rule="evenodd" clip-rule="evenodd" d="M32.3797 46.4007L32.3888 46.4006H32.3904C32.3959 46.4033 32.4018 46.4063 32.4077 46.4094C32.493 46.452 32.5969 46.4173 32.6396 46.3321C32.6822 46.2468 32.6475 46.1428 32.5622 46.1002C32.502 46.0701 32.4858 46.0631 32.4697 46.0594C32.4541 46.0559 32.4365 46.0552 32.3699 46.0552C32.3117 46.0552 32.288 46.0552 32.2727 46.0589C32.2383 46.0664 32.2114 46.0793 32.1821 46.1059C32.1726 46.1146 32.1603 46.1319 32.1249 46.1671C30.6349 47.6571 28.2335 48.4405 26.3382 49.3882C23.0797 51.0174 19.3014 51.5803 16.3641 53.8881C13.2594 56.3275 12.0537 60.6659 10.7228 64.2148C9.28742 68.0428 8.28194 71.8325 7.52282 75.8454C6.63173 80.5556 4.19346 87.1845 4.08756 93.1282C4.01609 97.1384 5.00279 100.837 8.19703 103.451C10.316 105.185 12.8692 105.367 15.3701 106.243C19.8515 107.811 24.4651 108.947 29.0825 109.871C29.176 109.889 29.2671 109.829 29.2858 109.735C29.3046 109.642 29.2438 109.551 29.1503 109.532C24.5485 108.612 19.9505 107.48 15.4844 105.916C13.0219 105.055 10.5021 104.89 8.41582 103.183C5.30827 100.641 4.36356 97.0358 4.4331 93.1343C4.53859 87.2103 6.97426 80.6043 7.86232 75.9096C8.61788 71.9165 9.61801 68.1453 11.0464 64.3361C12.3564 60.843 13.5217 56.5609 16.5775 54.1598C19.4963 51.8666 23.2549 51.3162 26.4926 49.6973C28.4194 48.7339 30.8545 47.9262 32.3693 46.4116L32.3797 46.4007Z" fill="#232124"/>
<path fill-rule="evenodd" clip-rule="evenodd" d="M29.3266 109.976C29.7175 110.023 30.2575 109.925 30.6285 109.776C30.7171 109.741 30.7602 109.64 30.7248 109.552C30.6894 109.463 30.5887 109.42 30.5001 109.456C30.1772 109.585 29.7079 109.673 29.3677 109.633C29.273 109.621 29.187 109.689 29.1756 109.784C29.1642 109.878 29.2319 109.964 29.3266 109.976Z" fill="#232124"/>
<path fill-rule="evenodd" clip-rule="evenodd" d="M30.4576 108.954C30.4002 108.976 30.3508 108.985 30.3076 108.974C30.262 108.963 30.2276 108.93 30.1971 108.886C30.1506 108.82 30.1165 108.731 30.0892 108.628C29.8737 107.812 30.1213 106.21 30.1279 106.144C30.2554 104.868 30.4526 102.877 31.0218 101.201C31.3908 100.115 31.9132 99.1598 32.689 98.6425C32.7685 98.5897 32.7899 98.4823 32.7371 98.4029C32.6841 98.3236 32.5767 98.3021 32.4974 98.355C31.665 98.9099 31.0904 99.9246 30.6945 101.09C30.1165 102.792 29.9136 104.814 29.784 106.109C29.777 106.179 29.529 107.86 29.755 108.716C29.8269 108.988 29.9523 109.184 30.118 109.269C30.2436 109.335 30.3967 109.348 30.5826 109.276C30.6716 109.241 30.7158 109.141 30.6812 109.052C30.6468 108.963 30.5465 108.919 30.4576 108.954Z" fill="#232124"/>
<path fill-rule="evenodd" clip-rule="evenodd" d="M14.0206 90.8597C17.7619 93.7333 22.5747 95.0977 27.2556 95.7082C28.3806 95.855 30.308 95.982 31.6695 96.6084C32.5224 97.0007 33.1508 97.5911 33.1508 98.5394C33.1508 98.6347 33.2282 98.7122 33.3236 98.7122C33.419 98.7122 33.4963 98.6347 33.4963 98.5394C33.4963 97.4462 32.797 96.7466 31.8139 96.2944C30.4212 95.6536 28.4511 95.5156 27.3005 95.3656C22.6789 94.7627 17.9249 93.4228 14.2312 90.5856C14.1555 90.5274 14.047 90.5417 13.9888 90.6173C13.9308 90.693 13.945 90.8015 14.0206 90.8597Z" fill="#232124"/>
<path fill-rule="evenodd" clip-rule="evenodd" d="M20.7244 78.6352C19.9701 83.3914 20.0212 88.6438 20.0212 93.498C20.0212 93.5933 20.0986 93.6708 20.1941 93.6708C20.2894 93.6708 20.3668 93.5933 20.3668 93.498C20.3668 88.6615 20.3141 83.4282 21.0657 78.6893C21.0806 78.5951 21.0163 78.5065 20.9221 78.4915C20.828 78.4766 20.7393 78.5411 20.7244 78.6352Z" fill="#232124"/>
<path fill-rule="evenodd" clip-rule="evenodd" d="M17.6881 92.3859C18.1527 91.7989 18.5297 90.7856 18.8704 89.6565C19.3674 88.0098 19.7929 86.1137 20.3483 85.0028C20.391 84.9174 20.3564 84.8136 20.2711 84.7709C20.1858 84.7283 20.0819 84.763 20.0393 84.8482C19.4771 85.9724 19.0426 87.8901 18.5395 89.5568C18.2136 90.6368 17.8616 91.6099 17.4172 92.1713C17.3579 92.2461 17.3707 92.3549 17.4454 92.4141C17.5202 92.4733 17.629 92.4606 17.6881 92.3859Z" fill="#232124"/>
<path fill-rule="evenodd" clip-rule="evenodd" d="M27.2635 95.8164C26.9625 95.9816 26.683 96.2942 26.4352 96.658C26.086 97.1706 25.796 97.7838 25.5761 98.1709C24.8298 99.4845 23.994 101.655 23.6075 103.723C23.3468 105.118 23.2926 106.468 23.5971 107.483C23.6245 107.574 23.721 107.626 23.8123 107.598C23.9037 107.571 23.9555 107.475 23.9281 107.383C23.6368 106.412 23.6978 105.122 23.9472 103.786C24.3261 101.759 25.1447 99.6298 25.8767 98.3417C26.093 97.9608 26.3774 97.3569 26.7208 96.8527C26.9348 96.5384 27.1695 96.2621 27.4296 96.1195C27.5134 96.0736 27.544 95.9686 27.4982 95.8849C27.4524 95.8012 27.3472 95.7706 27.2635 95.8164Z" fill="#232124"/>
<path fill-rule="evenodd" clip-rule="evenodd" d="M32.7626 98.9403C33.3411 99.0398 33.9739 98.9092 34.5371 98.784C35.5766 98.553 36.4421 98.2886 37.3908 97.8143C38.3061 97.3565 39.2838 96.582 40.3286 96.4328C40.5554 96.4004 40.9412 96.3755 41.2461 96.4586C41.3912 96.4981 41.5194 96.5583 41.5771 96.6748C41.614 96.7493 41.6174 96.844 41.5876 96.963C41.5554 97.0918 41.4794 97.2468 41.4124 97.3584C41.3625 97.4417 41.2886 97.5048 41.212 97.5657C41.1141 97.6436 41.0112 97.717 40.9252 97.803C40.4842 98.244 39.8928 98.6189 39.3244 98.9032C38.6215 99.2546 37.8906 99.5051 37.1831 99.8589C37.0978 99.9014 37.0632 100.005 37.1059 100.091C37.1484 100.176 37.2524 100.211 37.3377 100.168C38.0452 99.8141 38.7761 99.5637 39.479 99.2123C40.0798 98.9118 40.7034 98.5136 41.1696 98.0473C41.2466 97.9704 41.3396 97.9059 41.4273 97.8361C41.5363 97.7493 41.6375 97.655 41.7087 97.5362C41.7915 97.3984 41.8831 97.2059 41.9229 97.0468C41.9772 96.8295 41.9541 96.6575 41.8868 96.5215C41.8182 96.3827 41.7012 96.2783 41.5521 96.2049C41.1834 96.0236 40.5979 96.0451 40.2797 96.0907C39.1996 96.245 38.1825 97.032 37.2362 97.5052C36.3141 97.9661 35.4725 98.2221 34.4622 98.4466C33.941 98.5624 33.3565 98.6918 32.8212 98.5997C32.7273 98.5835 32.6378 98.6468 32.6216 98.7407C32.6056 98.8347 32.6687 98.9241 32.7626 98.9403Z" fill="#232124"/>
<path fill-rule="evenodd" clip-rule="evenodd" d="M36.6251 100.218C37.0137 100.331 37.3724 100.502 37.7788 100.573C39.0044 100.787 40.2681 100.752 41.5072 100.752C42.617 100.752 43.7247 100.805 44.8341 100.805C45.4902 100.805 46.1373 100.777 46.7919 100.734C47.3262 100.7 47.9609 100.666 48.4473 100.942C48.5336 100.991 48.526 101.089 48.5068 101.183C48.4772 101.328 48.3986 101.474 48.3385 101.559C47.8981 102.183 47.1363 102.37 46.4234 102.535C43.7717 103.147 40.9399 102.92 38.3027 102.392C38.2092 102.374 38.1181 102.434 38.0993 102.528C38.0806 102.621 38.1414 102.712 38.235 102.731C40.9193 103.268 43.802 103.494 46.5011 102.872C47.2953 102.688 48.1303 102.454 48.6208 101.759C48.7192 101.619 48.8496 101.357 48.8621 101.126C48.873 100.927 48.8061 100.749 48.6182 100.642C48.0743 100.332 47.3671 100.351 46.7697 100.389C46.1225 100.431 45.4828 100.46 44.8341 100.46C43.7247 100.46 42.617 100.407 41.5072 100.407C40.288 100.407 39.0443 100.443 37.8385 100.232C37.4447 100.163 37.0981 99.9959 36.7215 99.8865C36.63 99.8599 36.534 99.9126 36.5074 100.004C36.4808 100.096 36.5336 100.192 36.6251 100.218Z" fill="#232124"/>
<path fill-rule="evenodd" clip-rule="evenodd" d="M38.8301 105.107C41.8213 105.09 44.9104 104.906 47.7718 103.983C48.331 103.802 49.1549 103.452 49.5489 102.993C49.7036 102.812 49.7885 102.547 49.7829 102.289C49.777 102.02 49.6724 101.763 49.4682 101.609C49.3919 101.552 49.2836 101.568 49.2264 101.644C49.169 101.72 49.1845 101.829 49.2609 101.886C49.3827 101.977 49.4338 102.136 49.4373 102.297C49.4412 102.469 49.3896 102.647 49.2864 102.768C48.9287 103.185 48.1734 103.49 47.6657 103.654C44.8377 104.566 41.7842 104.745 38.828 104.762C38.7327 104.762 38.6557 104.84 38.6563 104.936C38.6568 105.031 38.7347 105.108 38.8301 105.107Z" fill="#232124"/>
<path fill-rule="evenodd" clip-rule="evenodd" d="M38.5206 107.12C38.5283 107.12 38.5814 107.12 38.6156 107.123C38.7231 107.134 38.844 107.156 38.9002 107.158C39.2548 107.171 39.6171 107.166 39.9715 107.159C40.7647 107.142 41.5542 107.036 42.3414 106.945C43.197 106.846 43.9916 106.616 44.8328 106.447C45.3807 106.338 45.9511 106.284 46.4645 106.045C47.2909 105.662 48.0505 105.067 48.8058 104.563C48.8851 104.511 48.9066 104.403 48.8537 104.324C48.8009 104.245 48.6935 104.223 48.6141 104.276C47.8732 104.77 47.1296 105.355 46.319 105.732C45.8305 105.959 45.2863 106.004 44.7651 106.108C43.9333 106.275 43.1479 106.504 42.3017 106.602C41.5253 106.691 40.7464 106.796 39.9643 106.813C39.6161 106.82 39.2603 106.825 38.912 106.813C38.8497 106.811 38.7038 106.781 38.5918 106.775C38.5134 106.77 38.4457 106.779 38.4028 106.795C38.3139 106.83 38.2697 106.93 38.3042 107.019C38.3378 107.106 38.4335 107.15 38.5206 107.12Z" fill="#232124"/>
<path fill-rule="evenodd" clip-rule="evenodd" d="M31.1609 109.273C32.0723 109.202 32.9996 109.314 33.9114 109.335C35.921 109.381 37.9275 109.254 39.9189 108.998C41.4334 108.802 42.9052 108.585 44.3048 107.939C45.0916 107.576 45.8151 107.34 46.498 106.803C47.3429 106.139 48.1757 105.412 48.7499 104.494C48.8633 104.312 49.0221 104.111 49.1314 103.899C49.216 103.735 49.2717 103.565 49.2717 103.393C49.2717 103.298 49.1942 103.221 49.0989 103.221C49.0035 103.221 48.9262 103.298 48.9262 103.393C48.9262 103.545 48.8562 103.692 48.772 103.834C48.672 104.003 48.5488 104.163 48.4569 104.31C47.9038 105.195 47.0982 105.892 46.2846 106.531C45.6237 107.051 44.9212 107.274 44.1599 107.625C42.7928 108.256 41.354 108.464 39.8746 108.655C37.9005 108.91 35.9115 109.035 33.9192 108.99C32.996 108.969 32.0569 108.856 31.134 108.928C31.0389 108.936 30.9677 109.019 30.9751 109.114C30.9825 109.209 31.0658 109.28 31.1609 109.273Z" fill="#232124"/>
<path fill-rule="evenodd" clip-rule="evenodd" d="M53.9971 62.3325C53.3963 62.8107 52.8701 63.7056 52.4127 64.7259C51.7455 66.214 51.2171 67.9683 50.7734 69.0103C49.8981 71.0653 48.9561 73.0834 47.9992 75.0979C46.1568 78.9765 44.9049 83.1761 42.9865 87.0132C42.9439 87.0985 42.9784 87.2023 43.0638 87.245C43.1491 87.2877 43.2529 87.2529 43.2956 87.1676C45.2151 83.3287 46.468 79.127 48.3114 75.2462C49.2704 73.2274 50.2142 71.2049 51.0913 69.1457C51.5344 68.1052 52.0618 66.3532 52.7281 64.8673C53.1595 63.9049 53.6455 63.054 54.2123 62.6029C54.2869 62.5435 54.2993 62.4347 54.2399 62.3601C54.1805 62.2855 54.0717 62.2731 53.9971 62.3325Z" fill="#232124"/>
<path fill-rule="evenodd" clip-rule="evenodd" d="M54.5022 62.5712C55.9165 62.3332 57.5574 62.5347 58.9884 62.578C60.8707 62.6351 62.535 63.0679 64.3074 63.5742C64.5512 63.6439 64.8913 63.6462 65.2144 63.6835C65.479 63.7142 65.7351 63.7612 65.8785 63.9403C66.0214 64.1191 66.0356 64.4009 66.0113 64.7019C65.9693 65.2197 65.7923 65.7926 65.7283 66.1127C65.2094 68.7074 64.2065 70.9059 63.1177 73.2875C61.6878 76.4153 60.5047 79.8031 59.5603 83.1088C59.3273 83.9239 59.1692 84.9961 58.7297 85.7287C58.4911 86.1263 57.0688 89.309 56.5098 90.8487C56.3605 91.2595 56.2752 91.5625 56.2752 91.6802C56.2752 91.7757 56.3526 91.8531 56.4479 91.8531C56.5434 91.8531 56.6207 91.7757 56.6207 91.6802C56.6207 91.523 56.8125 91.0004 57.0775 90.3292C57.7196 88.7023 58.8198 86.2503 59.0261 85.9064C59.4799 85.15 59.652 84.0454 59.8926 83.2037C60.8324 79.9145 62.0092 76.5435 63.4321 73.4311C64.5321 71.0247 65.5428 68.8022 66.0671 66.1805C66.133 65.8514 66.3127 65.2621 66.3557 64.7298C66.3881 64.3302 66.3382 63.9617 66.1483 63.7244C65.988 63.524 65.7358 63.4206 65.4501 63.3688C65.0933 63.3041 64.6814 63.3217 64.4024 63.242C62.6019 62.7276 60.9109 62.2905 58.9988 62.2325C57.5461 62.1886 55.8806 61.9887 54.4449 62.2303C54.3509 62.2462 54.2874 62.3354 54.3032 62.4295C54.3191 62.5234 54.4083 62.5869 54.5022 62.5712Z" fill="#232124"/>
<path fill-rule="evenodd" clip-rule="evenodd" d="M61.5866 53.8904C60.5429 54.5006 59.9162 55.7866 59.611 56.9142C59.5861 57.0063 59.6407 57.1013 59.7327 57.1262C59.8247 57.1511 59.9197 57.0966 59.9446 57.0046C60.2278 55.9585 60.7928 54.7548 61.761 54.1888C61.8433 54.1406 61.8711 54.0347 61.823 53.9524C61.7748 53.8701 61.6689 53.8423 61.5866 53.8904Z" fill="#232124"/>
<path fill-rule="evenodd" clip-rule="evenodd" d="M62.0027 54.013C65.658 58.3361 66.626 64.4163 67.8531 69.7701C68.328 71.8425 68.9565 73.8851 69.5628 75.9206C69.9671 77.2777 70.2588 78.6718 70.6642 80.0232C70.807 80.4991 70.8646 81.0628 71.0882 81.5102C71.1309 81.5954 71.2347 81.6301 71.32 81.5874C71.4053 81.5447 71.4399 81.4409 71.3972 81.3556C71.1823 80.9254 71.1325 80.3815 70.9953 79.9239C70.5898 78.5727 70.2982 77.1788 69.8941 75.822C69.2898 73.7936 68.6631 71.758 68.1898 69.6929C66.9511 64.2875 65.9572 58.1546 62.2667 53.7899C62.2051 53.717 62.0959 53.708 62.023 53.7696C61.9503 53.831 61.9411 53.9402 62.0027 54.013Z" fill="#232124"/>
<path fill-rule="evenodd" clip-rule="evenodd" d="M71.2952 82.2535C71.2301 83.6155 71.6904 85.1283 71.8634 86.4775C72.2291 89.3301 72.4657 92.2059 72.4657 95.0803C72.4657 96.479 72.5734 97.858 72.2405 99.2371C71.7211 101.389 70.4405 103.875 68.679 105.265C65.669 107.642 61.4473 107.218 57.9818 106.525C57.1427 106.358 56.4513 105.71 55.7726 105.257C55.6932 105.204 55.5857 105.226 55.5329 105.305C55.48 105.385 55.5015 105.492 55.5808 105.545C56.2951 106.021 57.031 106.688 57.914 106.864C61.4723 107.576 65.8028 107.977 68.8932 105.537C70.7114 104.101 72.0403 101.539 72.5764 99.3181C72.9158 97.9121 72.8113 96.5063 72.8113 95.0803C72.8113 92.1912 72.5737 89.3007 72.2062 86.4336C72.0357 85.1034 71.5761 83.6128 71.6405 82.2701C71.645 82.1748 71.5713 82.0938 71.4761 82.089C71.3808 82.0847 71.2999 82.1583 71.2952 82.2535Z" fill="#232124"/>
<path fill-rule="evenodd" clip-rule="evenodd" d="M57.2702 91.9476C57.1194 92.7741 57.1718 93.6466 57.0579 94.4819C56.6003 97.8376 56.3019 101.21 55.4803 104.497C55.4572 104.589 55.5135 104.683 55.606 104.706C55.6985 104.729 55.7925 104.673 55.8155 104.581C56.6402 101.282 56.941 97.8967 57.4003 94.5285C57.5136 93.6985 57.4602 92.831 57.6102 92.0097C57.6273 91.9159 57.565 91.8258 57.4712 91.8087C57.3775 91.7916 57.2874 91.8538 57.2702 91.9476Z" fill="#232124"/>
<path fill-rule="evenodd" clip-rule="evenodd" d="M57.2946 91.0287C57.4846 91.0228 58.1497 91.1577 58.2426 91.1693C59.1202 91.279 59.753 91.4772 60.2049 91.8779C60.6547 92.2767 60.9197 92.8734 61.084 93.7605C61.8047 97.6527 61.9211 102.499 60.7721 106.329C60.7447 106.42 60.7967 106.517 60.888 106.544C60.9794 106.571 61.0758 106.519 61.1031 106.428C62.2669 102.549 62.1539 97.64 61.4238 93.6975C61.2418 92.7148 60.9325 92.061 60.4342 91.6193C59.9381 91.1794 59.2491 90.9469 58.2854 90.8263C58.1993 90.8156 57.6395 90.7055 57.3796 90.6863C57.2607 90.6775 57.1781 90.7001 57.15 90.7177C57.0692 90.7682 57.0445 90.8749 57.0951 90.9558C57.1379 91.0243 57.2211 91.0525 57.2946 91.0287Z" fill="#232124"/>
<path fill-rule="evenodd" clip-rule="evenodd" d="M60.3911 91.8002C61.9125 91.8847 63.5205 91.6988 65.0348 91.5726C65.1298 91.5646 65.2005 91.4811 65.1925 91.386C65.1847 91.291 65.101 91.2202 65.0059 91.2281C63.5075 91.3531 61.9161 91.5388 60.4103 91.4552C60.3151 91.4498 60.2335 91.5228 60.2283 91.6181C60.223 91.7133 60.2959 91.795 60.3911 91.8002Z" fill="#232124"/>
<path fill-rule="evenodd" clip-rule="evenodd" d="M50.8932 91.5653C50.8826 91.5652 50.8467 91.5643 50.8195 91.5602C50.7645 91.552 50.6996 91.5364 50.6284 91.5162C50.2136 91.3988 49.6102 91.1381 49.4004 91.0962C47.5362 90.7233 45.904 89.9569 44.3719 88.8078C44.2696 88.731 44.1641 88.5774 44.0479 88.4007C43.8483 88.097 43.6288 87.7279 43.3892 87.4782C43.1978 87.2789 42.9892 87.1545 42.7741 87.1498C42.6213 87.1465 42.4602 87.1996 42.2954 87.3409C41.9109 87.6705 41.846 88.1026 41.9209 88.5449C41.9877 88.9392 42.1697 89.3409 42.2952 89.6613C43.1401 91.8206 44.5903 92.3205 46.5589 93.3048C46.6442 93.3475 46.748 93.3129 46.7907 93.2276C46.8334 93.1423 46.7988 93.0384 46.7135 92.9958C44.8312 92.0546 43.4248 91.5999 42.617 89.5354C42.4991 89.2342 42.3244 88.8578 42.2616 88.4871C42.2069 88.1641 42.2394 87.8441 42.5202 87.6033C42.6063 87.5297 42.6868 87.4936 42.7665 87.4954C42.9006 87.4982 43.0207 87.5933 43.1399 87.7176C43.366 87.9532 43.5707 88.3037 43.7591 88.5904C43.9017 88.8074 44.0388 88.99 44.1646 89.0842C45.7391 90.2652 47.4169 91.0519 49.3327 91.435C49.538 91.4762 50.128 91.7338 50.5342 91.8487C50.6768 91.8892 50.8006 91.9122 50.8864 91.9115C50.9501 91.911 51.001 91.898 51.0384 91.8793C51.5298 91.6336 51.4162 91.0654 51.0593 90.7085C51.046 90.6952 51.0413 90.674 51.0343 90.6515C51.0196 90.6039 51.0093 90.5491 50.9978 90.4937C50.9652 90.3375 50.9176 90.1803 50.8176 90.0803C50.6468 89.9095 50.4855 89.5483 50.3462 89.1397C50.1284 88.501 49.9742 87.7446 49.9742 87.3513C49.9742 87.1502 49.9361 86.7819 49.9745 86.4742C49.9856 86.3859 50.0029 86.303 50.032 86.2335C50.0523 86.1849 50.0768 86.1431 50.1147 86.1178C50.4954 85.8641 50.8608 86.0154 51.1719 86.2903C51.5273 86.6043 51.8159 87.0793 51.9906 87.4285C52.8037 89.0549 53.7372 90.9516 55.0191 92.2335C55.2991 92.5135 55.6759 92.6559 56.0637 92.7609C56.4115 92.855 56.7675 92.918 57.0489 93.0523C57.135 93.0934 57.2382 93.0569 57.2793 92.9708C57.3203 92.8848 57.2838 92.7815 57.1977 92.7405C56.8993 92.598 56.5229 92.5272 56.1541 92.4273C55.8251 92.3383 55.5008 92.2265 55.2634 91.989C54.0065 90.7323 53.097 88.8687 52.2997 87.2741C52.0686 86.8118 51.6493 86.1556 51.1473 85.8398C50.772 85.6036 50.3532 85.5435 49.9231 85.8303C49.759 85.9397 49.665 86.1639 49.6316 86.4313C49.5912 86.7541 49.6286 87.1403 49.6286 87.3513C49.6286 87.7689 49.7879 88.573 50.0191 89.2512C50.179 89.7203 50.3771 90.1286 50.5733 90.3247C50.6011 90.3526 50.6152 90.3926 50.628 90.4344C50.6482 90.5 50.6605 90.5715 50.6748 90.6379C50.7033 90.7697 50.7462 90.8842 50.8148 90.9528C50.903 91.041 50.9737 91.1491 51.0056 91.2579C51.0405 91.3766 51.0205 91.4967 50.8932 91.5653Z" fill="#232124"/>
<path fill-rule="evenodd" clip-rule="evenodd" d="M41.8678 87.9956C41.0637 88.6207 40.9884 89.3982 41.2584 90.19C41.6339 91.2911 42.7161 92.4227 43.288 93.1375C43.4859 93.3848 43.823 93.553 44.0497 93.7799C44.2973 94.0276 44.6435 94.3469 45.0168 94.5637C45.2846 94.7191 45.567 94.8211 45.8391 94.8211C45.9345 94.8211 46.0118 94.7436 46.0118 94.6484C46.0118 94.553 45.9345 94.4755 45.8391 94.4755C45.6236 94.4755 45.4022 94.3878 45.1903 94.2648C44.8438 94.0637 44.5239 93.7653 44.2942 93.5355C44.0759 93.3173 43.7482 93.1595 43.5578 92.9216C43.0944 92.3423 42.2813 91.4851 41.8123 90.5952C41.3789 89.773 41.2423 88.9196 42.0799 88.2685C42.1552 88.21 42.1689 88.1014 42.1103 88.0261C42.0518 87.9508 41.9431 87.9371 41.8678 87.9956Z" fill="#232124"/>
<path fill-rule="evenodd" clip-rule="evenodd" d="M41.3415 89.2409C41.4277 89.2382 41.5002 89.1712 41.5079 89.0833C41.5163 88.9882 41.4459 88.9044 41.3508 88.896C41.2665 88.8886 41.1728 88.9239 41.0887 89.0004C40.9724 89.1063 40.8657 89.3006 40.8278 89.3762C40.5702 89.8915 40.5758 90.5297 40.667 91.0766C40.9141 92.5593 41.9753 94.0752 43.1773 94.9339C43.4477 95.127 43.8733 95.3432 44.0979 95.5679C44.1654 95.6353 44.2748 95.6353 44.3423 95.5679C44.4098 95.5004 44.4098 95.391 44.3423 95.3235C44.1063 95.0874 43.6622 94.8556 43.3783 94.6527C42.2452 93.8434 41.2408 92.4172 41.0079 91.0198C40.9281 90.5412 40.9115 89.9818 41.137 89.5308C41.1611 89.4823 41.2211 89.3671 41.2927 89.2856C41.3069 89.2693 41.3321 89.2485 41.3415 89.2409Z" fill="#232124"/>
<path fill-rule="evenodd" clip-rule="evenodd" d="M40.7334 90.9699C40.8138 90.9293 40.8501 90.8329 40.8147 90.7488C40.7778 90.6609 40.6765 90.6195 40.5885 90.6565C40.5189 90.6857 40.4514 90.7532 40.4014 90.8503C40.3308 90.9879 40.2873 91.1967 40.2606 91.2907C40.1091 91.8203 40.0682 92.3653 40.1596 92.9129C40.3936 94.317 41.5654 95.2823 42.5032 96.2202C42.9124 96.6295 43.5138 97.1845 44.0553 97.4166C45.2739 97.9388 46.7501 98.992 47.9831 99.403C49.4149 99.8802 50.9104 100.268 52.3907 100.663C53.2857 100.901 54.2062 101.02 55.0995 101.243C55.247 101.28 55.4909 101.312 55.6962 101.365C55.7981 101.391 55.8909 101.417 55.9374 101.463C56.0049 101.531 56.1143 101.531 56.1818 101.463C56.2492 101.396 56.2492 101.287 56.1818 101.219C56.1195 101.157 56.0172 101.103 55.892 101.062C55.6676 100.989 55.3586 100.952 55.1833 100.908C54.2917 100.685 53.373 100.567 52.4798 100.329C51.0062 99.9357 49.5175 99.5502 48.0924 99.0752C46.8674 98.6669 45.4021 97.6178 44.1916 97.099C43.6859 96.8823 43.1296 96.3579 42.7477 95.9758C41.8579 95.0863 40.7224 94.1879 40.5005 92.8561C40.4178 92.3597 40.4556 91.8657 40.5928 91.3856C40.6131 91.3147 40.6418 91.1689 40.6888 91.0524C40.7013 91.0217 40.7278 90.9789 40.7334 90.9699Z" fill="#232124"/>
<path fill-rule="evenodd" clip-rule="evenodd" d="M53.9582 101.345C53.734 102.683 54.1444 103.984 54.958 105.001C55.0175 105.075 55.1263 105.088 55.2008 105.028C55.2753 104.968 55.2873 104.86 55.2278 104.785C54.4748 103.844 54.0914 102.641 54.2991 101.402C54.3149 101.308 54.2512 101.219 54.1571 101.203C54.0632 101.188 53.974 101.251 53.9582 101.345Z" fill="#232124"/>
<path fill-rule="evenodd" clip-rule="evenodd" d="M39.9917 93.1697C39.6745 93.6962 39.5373 94.3096 39.2792 94.8655C39.0048 95.4566 38.6792 96.0413 38.3874 96.6249C38.3448 96.7102 38.3793 96.814 38.4646 96.8567C38.55 96.8993 38.6538 96.8648 38.6965 96.7795C38.9897 96.1929 39.3169 95.6051 39.5928 95.011C39.8456 94.4664 39.9769 93.864 40.2877 93.348C40.3369 93.2663 40.3106 93.16 40.2288 93.1109C40.1472 93.0616 40.0409 93.088 39.9917 93.1697Z" fill="#232124"/>
<path fill-rule="evenodd" clip-rule="evenodd" d="M52.4297 100.549C51.9615 101.58 51.4884 102.762 50.7781 103.65C50.6834 103.768 50.5793 103.943 50.4649 104.105C50.3708 104.239 50.2726 104.368 50.1592 104.424C50.143 104.433 50.1179 104.43 50.0885 104.429C50.0328 104.428 49.9679 104.42 49.8999 104.408C49.6727 104.369 49.4147 104.292 49.312 104.266C49.2194 104.243 49.1256 104.3 49.1024 104.392C49.0792 104.485 49.1356 104.578 49.228 104.602C49.3545 104.633 49.7037 104.737 49.9641 104.766C50.1138 104.783 50.2408 104.77 50.3138 104.734C50.4422 104.669 50.5642 104.548 50.6749 104.404C50.8139 104.222 50.9371 104.004 51.0479 103.865C51.7756 102.956 52.2648 101.748 52.7444 100.692C52.7839 100.605 52.7453 100.503 52.6585 100.463C52.5716 100.424 52.4692 100.462 52.4297 100.549Z" fill="#232124"/>
<path fill-rule="evenodd" clip-rule="evenodd" d="M28.7973 49.3081C28.3685 52.203 28.1142 55.1021 27.8009 58.0004C27.6819 59.0989 27.4823 60.6302 28.0317 61.6505C28.5367 62.5881 29.3579 63.2889 30.222 63.9601C31.0559 64.6078 31.9295 65.2278 32.5704 66.0288C32.6299 66.1033 32.7387 66.1154 32.8132 66.0558C32.8877 65.9962 32.8998 65.8874 32.8402 65.8129C32.1827 64.9912 31.2895 64.3516 30.4339 63.6871C29.6085 63.0461 28.8183 62.3822 28.336 61.4866C27.8172 60.5229 28.0323 59.0752 28.1442 58.0376C28.4571 55.1436 28.711 52.2491 29.1393 49.3587C29.1531 49.2643 29.088 49.1764 28.9936 49.1624C28.8992 49.1484 28.8113 49.2137 28.7973 49.3081Z" fill="#232124"/>
<path fill-rule="evenodd" clip-rule="evenodd" d="M31.0778 65.49C30.803 66.2203 30.2987 67.086 29.9616 67.9554C29.727 68.5609 29.5736 69.1689 29.6173 69.7372C29.6596 70.2866 29.9279 70.8372 30.2416 71.372C30.5373 71.8763 30.8727 72.3669 31.0668 72.8328C32.1092 75.3347 33.3111 77.7466 34.3196 80.2676C34.355 80.3561 34.4557 80.3993 34.5442 80.3638C34.6328 80.3284 34.6759 80.2279 34.6405 80.1392C33.6314 77.6167 32.429 75.2033 31.3858 72.6999C31.1863 72.221 30.8436 71.7155 30.5397 71.1973C30.2537 70.7097 30.0004 70.2114 29.9619 69.7107C29.9115 69.0561 30.1554 68.3469 30.4616 67.6535C30.7812 66.9295 31.1712 66.2233 31.4013 65.6117C31.4349 65.5224 31.3896 65.4226 31.3003 65.389C31.2111 65.3554 31.1114 65.4007 31.0778 65.49Z" fill="#232124"/>
<path fill-rule="evenodd" clip-rule="evenodd" d="M51.1991 49.8012C51.2143 49.7151 51.1622 49.6295 51.0763 49.6049C50.9847 49.5787 50.8889 49.632 50.8627 49.7236C50.8574 49.7421 50.8516 49.7812 50.8537 49.8391C50.8564 49.914 50.8694 50.0449 50.89 50.2148C51.0033 51.146 51.3497 53.3018 51.3794 53.6803C51.5008 55.218 52.1225 56.9612 51.9296 58.5047C51.6859 60.4547 49.4564 63.4617 48.1336 64.7845C48.0661 64.852 48.0661 64.9615 48.1336 65.029C48.201 65.0963 48.3106 65.0963 48.3779 65.029C49.741 63.6659 52.0214 60.5569 52.2726 58.5476C52.4682 56.9819 51.8472 55.2128 51.724 53.653C51.694 53.2731 51.3468 51.1082 51.2331 50.1731C51.2111 49.9926 51.2002 49.821 51.1991 49.8012Z" fill="#232124"/>
<path fill-rule="evenodd" clip-rule="evenodd" d="M49.9179 63.7379C49.949 63.6543 49.9109 63.5594 49.8286 63.5213C49.742 63.4811 49.6393 63.5188 49.5991 63.6054C49.566 63.6767 49.5637 63.7878 49.6014 63.9135C49.6562 64.0953 49.7907 64.3287 49.8279 64.4215C50.1895 65.3258 50.3883 66.2471 50.6235 67.1882C50.6467 67.2807 50.7405 67.3371 50.8331 67.314C50.9256 67.2908 50.982 67.1969 50.9588 67.1044C50.7197 66.1479 50.5163 65.2121 50.1488 64.2933C50.1179 64.2162 50.0168 64.0397 49.9553 63.88C49.936 63.8296 49.9206 63.752 49.9179 63.7379Z" fill="#232124"/>
<path fill-rule="evenodd" clip-rule="evenodd" d="M15.5226 56.1759C17.2043 59.7095 18.0715 63.3224 19.0583 67.1054C19.0825 67.1977 19.177 67.2531 19.2691 67.229C19.3615 67.205 19.4169 67.1104 19.3927 67.0181C18.4003 63.2136 17.5259 59.581 15.8347 56.0273C15.7937 55.9413 15.6905 55.9047 15.6044 55.9456C15.5184 55.9866 15.4816 56.0897 15.5226 56.1759Z" fill="#232124"/>
<defs>
<radialGradient id="paint0_radial_5295_93961" cx="0" cy="0" r="1" gradientUnits="userSpaceOnUse" gradientTransform="translate(91.7517 -2096.45) scale(3549.12 3549.11)">
<stop stop-color="#839BA5"/>
<stop offset="1" stop-color="#8EA2AA"/>
</radialGradient>
<radialGradient id="paint1_radial_5295_93961" cx="0" cy="0" r="1" gradientUnits="userSpaceOnUse" gradientTransform="translate(91.7517 -2096.45) scale(3549.12 3549.11)">
<stop stop-color="#839BA5"/>
<stop offset="1" stop-color="#8EA2AA"/>
</radialGradient>
</defs>
</svg>
