<svg width="120" height="120" viewBox="0 0 120 120" fill="none" xmlns="http://www.w3.org/2000/svg">
<g clip-path="url(#clip0_5295_93961)">
<path fill-rule="evenodd" clip-rule="evenodd" d="M51.1735 27.4279C51.1735 27.4279 49.6045 24.1704 49.7989 22.2597C49.9933 20.349 50.8086 18.6055 51.7539 17.7543C52.6992 16.9032 52.2352 16.294 53.0915 15.5695C53.9479 14.8449 54.7213 14.1403 55.7222 14.0995C56.7231 14.0586 58.1497 14.2067 58.1497 14.2067C58.1497 14.2067 58.5501 12.8312 58.7813 12.6355C59.0126 12.4398 60.3447 10.9449 61.3722 10.6396C62.3997 10.3343 62.6521 10.138 61.8493 10.8388C61.0465 11.5396 60.4134 12.2396 60.4233 12.7354C60.4333 13.231 60.9975 12.8137 62.2166 12.1238C63.4357 11.4338 66.0377 10.7945 67.6651 11.537C69.2925 12.2795 71.4967 13.9635 72.7945 14.6967C74.0922 15.43 75.3013 16.124 75.9231 16.1893C76.5448 16.2546 75.6924 16.9243 74.924 17.0229C74.1555 17.1215 74.3842 17.7379 74.9887 18.2543C75.5933 18.7707 76.4404 20.1411 76.1331 22.194C75.8259 24.2469 75.748 25.0065 75.0787 25.8636C74.4093 26.7207 73.5265 27.5223 73.5265 27.5223C73.5265 27.5223 73.146 28.815 70.4845 29.7553C67.8231 30.6958 56.3923 31.6298 53.83 30.5226C51.2675 29.4156 51.1735 27.4279 51.1735 27.4279Z" fill="#323C54"/>
<path fill-rule="evenodd" clip-rule="evenodd" d="M55.9399 30.0375C56.1062 29.8078 57.1908 29.055 58.2365 29.1227C59.282 29.1904 59.5846 29.7567 59.7231 30.1226C59.8618 30.4885 59.4577 31.9255 58.8783 32.1648C58.2991 32.404 57.6878 32.3797 56.8465 31.9255C56.0053 31.4714 55.7738 30.2671 55.9399 30.0375Z" fill="white"/>
<path fill-rule="evenodd" clip-rule="evenodd" d="M65.0002 32.6187C65.0002 32.6187 64.936 31.3052 66.0286 30.8559C67.1211 30.4065 68.3404 30.8164 68.6444 31.3929C68.9484 31.9692 68.401 33.7579 68.0572 33.9599C67.7133 34.1621 66.8753 34.1951 66.1474 33.8194C65.4197 33.4438 65.0002 32.6187 65.0002 32.6187Z" fill="white"/>
<path fill-rule="evenodd" clip-rule="evenodd" d="M53.4773 41.4169C53.4773 41.4169 53.4483 42.3425 53.7515 42.9849C54.0547 43.6271 56.3196 46.6856 57.7805 47.5808C59.2413 48.4761 60.165 48.5758 60.7932 48.4404C61.4215 48.3049 63.406 47.6528 64.2279 47.1302C65.0497 46.6075 65.4997 46.6518 65.7041 46.1719C65.9085 45.6921 66.0205 44.9694 66.0205 44.9694C66.0205 44.9694 66.3864 44.3071 66.5679 45.023C66.7494 45.7388 66.7037 46.1051 67.1859 46.3891C67.6682 46.6732 68.1927 47.4116 68.8804 47.9535C69.5679 48.4952 71.4614 49.7017 71.4614 49.7017C71.4614 49.7017 73.1359 51.0353 76.0388 52.5299C78.9419 54.0244 81.3749 55.0159 82.6855 56.3242C83.996 57.6326 85.9155 59.7498 85.9155 59.7498C85.9155 59.7498 87.7518 62.9183 88.2315 65.276C88.7114 67.6337 89.6673 70.8519 89.9364 71.9921C90.2055 73.1325 91.5081 76.5107 91.5081 76.5107C91.5081 76.5107 94.1977 84.016 94.985 86.8311C95.7723 89.6462 96.4186 95.2929 96.4186 95.2929C96.4186 95.2929 96.6621 98.5024 96.0067 99.649C95.3515 100.795 94.5805 101.593 93.3673 102.675C92.1539 103.757 90.6279 104.925 89.3294 105.25C88.0309 105.575 85.0773 105.83 85.0773 105.83C85.0773 105.83 82.2248 106.248 81.4969 105.474C80.7691 104.7 80.8312 103.205 80.9095 102.816C80.9879 102.428 80.5457 101.122 80.5457 101.122L51.8472 109.934L41.6749 109.404C41.6749 109.404 37.7891 109.222 32.7123 106.462C27.6355 103.702 25.6602 102.314 24.6037 100.312C23.5472 98.3106 23.1551 95.1678 23.2649 92.5794C23.3748 89.9911 23.6903 87.9789 23.6903 87.9789C23.6903 87.9789 25.6033 77.9792 25.7369 77.7589C25.8703 77.5387 28.3924 67.1485 28.6326 66.6564C28.8728 66.1641 30.6402 59.6756 32.0243 57.6208C33.4085 55.5659 35.1655 54.5757 35.307 54.4999C35.4486 54.4239 39.4959 52.1472 40.8981 51.5695C42.3002 50.9918 44.9586 49.1897 45.3167 48.9424C45.6748 48.6949 48.0986 47.2856 48.0986 47.2856C48.0986 47.2856 51.5522 43.8473 51.991 43.2552C52.4296 42.6631 52.3837 42.178 52.7495 41.7023C53.1153 41.2266 53.4773 41.4169 53.4773 41.4169Z" fill="white"/>
<path fill-rule="evenodd" clip-rule="evenodd" d="M57.8538 21.4235C57.1207 22.6961 56.7872 23.3517 55.9469 24.106C55.1067 24.8602 53.7753 24.9636 53.7753 24.9636C53.7753 24.9636 53.6582 25.5265 53.6535 26.1402C53.6489 26.754 53.4342 29.2696 53.4342 29.2696C53.4342 29.2696 52.8693 26.8201 52.7781 26.6668C52.687 26.5135 51.4405 25.4363 50.7975 26.9893C50.1545 28.5424 50.1903 29.4477 50.7736 30.7986C51.3569 32.1495 52.1197 32.7849 52.7302 33.0083C53.3408 33.2316 53.4643 33.854 53.4643 33.854C53.4643 33.854 53.3858 34.863 53.6338 35.7906C53.8819 36.7183 54.2242 37.5477 54.2242 37.5477L54.0326 38.8978C54.0326 38.8978 53.553 41.0632 53.5258 41.2542C53.4985 41.445 53.2562 42.734 53.2562 42.734C53.2562 42.734 56.2843 49.7578 59.2874 49.6258C62.2904 49.494 65.1563 47.6472 65.2563 47.4359C65.3563 47.2246 65.8866 45.302 65.8866 45.302L66.6804 40.5312C66.6804 40.5312 67.9673 38.5169 68.3185 37.4313C68.6697 36.3456 68.8895 35.4313 68.8895 35.4313C68.8895 35.4313 69.7921 35.3641 70.0887 34.997C70.3854 34.6299 71.1987 33.635 71.6784 32.4811C72.1583 31.327 72.2826 30.094 72.2062 29.6882C72.1297 29.2824 71.6025 29.0045 71.3086 29.0505C71.0146 29.0966 70.2933 29.0277 70.2933 29.0277C70.2933 29.0277 66.5643 27.6232 66.0156 27.0337C65.4669 26.4443 63.0353 25.6994 62.2494 25.6715C61.4634 25.6435 59.6315 24.8706 59.2535 24.1346C58.8755 23.3987 58.6914 22.7681 58.6977 22.0968C58.704 21.4257 58.833 20.3224 58.833 20.3224C58.833 20.3224 58.587 20.1512 57.8538 21.4235Z" fill="#FFF0F2"/>
<path fill-rule="evenodd" clip-rule="evenodd" d="M57.7191 54.5084C57.7191 54.5084 57.0157 52.515 56.9229 52.0582C56.8302 51.6014 56.557 50.7323 56.557 50.7323C56.557 50.7323 58.0124 49.6416 58.5413 49.3033C59.0701 48.965 59.8895 48.4887 60.0836 48.6208C60.2778 48.753 60.4852 49.3522 60.7271 49.7255C60.9691 50.0989 62.1303 51.8601 62.1303 51.8601L60.9508 54.8639C60.9508 54.8639 61.0111 56.425 60.9989 56.6541C60.9867 56.8832 60.9343 62.4505 61.0687 64.6051C61.2034 66.7597 61.6498 70.8956 61.6498 70.8956C61.6498 70.8956 62.9624 79.5638 63.0877 81.1455C63.2132 82.7273 63.4009 84.4788 63.5797 85.3714C63.7583 86.264 64.2231 88.4343 64.2231 88.4343C64.2231 88.4343 64.0284 91.2912 63.1116 92.4471C62.1948 93.6028 55.4486 96.2057 54.6319 96.1947C53.8152 96.1837 52.6922 95.406 52.6983 94.97C52.7044 94.534 52.516 90.7044 52.516 90.7044L51.6646 80.4432C51.6646 80.4432 52.0817 78.9117 52.1394 78.7213C52.197 78.5307 53.2677 71.3428 53.3654 71.1149C53.4632 70.8871 55.5111 63.1309 55.7406 62.2733C55.9703 61.4158 56.8299 58.1514 56.8299 58.1514C56.8299 58.1514 57.4981 55.4675 57.6056 55.3232C57.7131 55.1788 57.7191 54.5084 57.7191 54.5084Z" fill="#6492FE"/>
<path fill-rule="evenodd" clip-rule="evenodd" d="M85.9824 89.9192C85.9824 89.9192 85.3447 90.2818 84.961 89.4972C84.5774 88.7126 83.6101 87.1966 83.4482 86.0723C83.2862 84.948 83.1225 84.4306 82.4587 83.8617C81.7949 83.293 80.4741 83.232 79.3885 83.2897C78.303 83.3476 76.1002 83.9765 75.4648 84.3349C74.8293 84.6934 72.2582 86.283 71.7888 87.5979C71.3194 88.9128 71.1363 90.3591 71.3642 90.6362C71.5922 90.9133 75.2419 92.7288 76.1087 93.385C76.9754 94.0414 80.4548 99.1055 81.6886 99.356C82.9225 99.6065 83.2851 99.5025 84.0586 99.018C84.832 98.5335 85.805 97.663 85.9096 97.2708C86.0142 96.8785 86.5189 94.2852 86.5757 92.8902C86.6325 91.4952 85.9824 89.9192 85.9824 89.9192Z" fill="#FFF0F2"/>
<path fill-rule="evenodd" clip-rule="evenodd" d="M55.052 99.0056C55.1662 98.7655 55.7137 97.3714 56.1554 96.4344C56.5973 95.4975 57.9787 92.5392 58.4193 91.9201C58.8597 91.301 59.0894 90.3966 59.4581 90.201C59.8267 90.0054 63.0247 89.7739 64.3651 89.6285C65.7054 89.4832 69.8927 89.3975 69.8927 89.3975C69.8927 89.3975 69.9562 88.8375 70.7363 88.9428C71.5166 89.0481 72.1015 88.9015 72.1015 88.9015C72.1015 88.9015 72.081 88.077 72.8431 87.7214C73.605 87.3657 75.1268 87.3902 75.5068 87.8033C75.887 88.2166 76.0767 89.0303 76.0767 89.0303C76.0767 89.0303 77.5101 89.1412 77.7138 89.2687C77.9175 89.3962 77.8758 89.823 77.8758 89.823C77.8758 89.823 79.3194 89.5584 80.8907 89.6127C82.4619 89.6669 84.6096 89.8794 85.1504 90.3823C85.6914 90.8853 86.0008 91.5478 85.5077 92.5896C85.0146 93.6312 83.876 95.6173 82.7918 97.7618C81.7077 99.9065 77.1101 109.315 77.1101 109.315L51.1099 109.808C51.1099 109.808 52.1759 107.562 52.5857 106.392C52.9955 105.222 53.2909 103.885 53.7796 102.758C54.2683 101.631 54.9377 99.2457 55.052 99.0056Z" fill="#AAC7FD"/>
<path fill-rule="evenodd" clip-rule="evenodd" d="M77.0928 83.4663C77.0928 83.4663 78.7267 82.1888 79.3587 81.4091C79.9907 80.6293 82.885 77.391 84.0682 76.3401C85.2513 75.2891 86.6013 73.904 87.1119 73.9788C87.6225 74.0537 88.1606 74.3832 87.5033 75.3294C86.8461 76.2757 86.2835 76.8308 85.4309 77.4367C84.5785 78.0424 83.2057 79.2685 83.1171 79.3222C83.0284 79.3759 80.8924 81.2126 80.2326 81.8478C79.5729 82.4829 78.8512 83.2766 78.7585 83.2859C78.6658 83.2951 77.0928 83.4663 77.0928 83.4663Z" fill="#415381"/>
<path fill-rule="evenodd" clip-rule="evenodd" d="M45.729 94.754C45.729 94.754 47.3816 95.3083 49.0799 95.4203C50.7782 95.5323 52.7149 95.5027 54.1322 95.4509C55.5494 95.3993 56.6976 95.4377 56.6976 95.4377L55.5573 97.5975C55.5573 97.5975 59.77 98.6367 62.0569 98.4643C64.3438 98.2919 65.6789 98.2197 65.909 98.5551C66.1392 98.8905 65.7569 99.7041 65.7569 99.7041C65.7569 99.7041 66.186 100.143 65.7303 100.697C65.2747 101.251 64.6223 101.895 64.3999 102.321C64.1775 102.747 64.1017 103.107 63.458 103.642C62.8143 104.177 59.5673 105.233 59.0878 105.378C58.6083 105.524 55.3364 105.662 54.0796 105.676C52.823 105.69 50.9205 105.694 50.9205 105.694C50.9205 105.694 45.1893 104.96 43.545 104.618C41.9008 104.277 41.2529 104.119 41.2529 104.119C41.2529 104.119 41.4956 100.362 43.1195 98.0551C44.7435 95.7484 45.729 94.754 45.729 94.754Z" fill="#FFF0F2"/>
<path fill-rule="evenodd" clip-rule="evenodd" d="M52.0848 42.9914L52.015 43.9142C52.015 43.9142 51.8452 43.8924 51.4071 44.5054C50.9689 45.1182 50.5595 46.0162 50.1995 46.5839C49.8394 47.1514 48.0973 49.539 47.2175 52.3489C46.3379 55.1587 45.6342 57.4628 45.5154 58.143C45.3966 58.8235 44.4149 63.7067 44.3528 66.0293C44.2907 68.3521 44.3249 70.5241 44.3249 70.5241C44.3249 70.5241 46.5417 71.1325 46.9163 72.1897C47.291 73.2471 47.6224 74.207 47.3317 75.0956C47.041 75.9841 45.2192 78.2882 42.7812 77.6625C40.3431 77.0368 40.2897 74.3928 41.0664 72.6423C41.8432 70.8916 42.949 70.6811 42.949 70.6811L43.0135 69.8012C43.0135 69.8012 43.6331 62.3964 44.1594 59.8298C44.6859 57.2633 45.4402 53.8759 45.5047 53.72C45.5691 53.5642 47.43 48.0783 48.3763 46.6198C49.3226 45.1612 50.5336 43.8736 51.0871 43.5567C51.6407 43.2399 52.0848 42.9914 52.0848 42.9914Z" fill="#E5EEFF"/>
<path fill-rule="evenodd" clip-rule="evenodd" d="M69.0225 47.9413C69.0225 47.9413 71.0102 48.022 71.7531 49.2099C72.4961 50.3978 73.0082 51.5888 73.2913 53.0777C73.5742 54.5667 74.2189 58.7768 74.2189 58.7768C74.2189 58.7768 76.5312 59.5921 77.4247 61.0146C78.3181 62.4373 79.148 64.7036 79.1464 66.4994C79.1447 68.2952 79.1334 71.214 78.8111 73.0744C78.4889 74.9347 78.2407 75.5589 77.7717 76.3698C77.3029 77.1809 76.6144 77.8837 76.8059 77.748C76.9974 77.6122 78.6539 77.1711 79.1284 76.6369C79.6029 76.1028 80.0679 75.6855 80.0679 75.6855C80.0679 75.6855 79.3525 75.6532 79.4597 74.8268C79.567 74.0004 79.8365 73.338 80.5643 73.0672C81.2921 72.7964 81.967 73.7994 81.8541 74.6815C81.7413 75.5636 80.9483 76.7266 80.4373 77.3761C79.9264 78.0254 79.2436 78.4693 78.5157 78.5709C77.788 78.6724 75.8737 78.6374 75.8737 78.6374C75.8737 78.6374 75.1555 79.0814 74.4951 79.398C73.8348 79.7145 72.2777 80.1324 72.2777 80.1324C72.2777 80.1324 72.1076 80.8536 71.3001 81.0388C70.4926 81.2239 69.1281 81.1245 69.0825 79.8894C69.0371 78.6543 69.4796 78.1099 70.1748 78.0318C70.8699 77.9536 71.765 78.387 71.8745 78.6015C71.984 78.816 72.7567 78.7038 73.1789 78.5443C73.6012 78.3849 74.3857 77.9294 74.3857 77.9294L73.2194 77.3929C73.2194 77.3929 70.5094 74.9277 69.9529 70.96C69.3964 66.9924 69.5222 64.1592 70.232 62.7097C70.9418 61.2602 72.9026 59.4407 72.9026 59.4407L73.2003 58.453C73.2003 58.453 72.306 53.6425 71.9576 52.8196C71.609 51.9966 71.1242 50.2053 70.8605 49.7454C70.5966 49.2855 69.0225 47.9413 69.0225 47.9413ZM70.952 64.1016C71.0421 63.8744 71.9393 61.8078 72.3162 61.3827C72.6932 60.9578 73.888 59.9092 74.7489 60.2646C75.61 60.6202 77.0442 61.645 77.5293 64.4682C78.0144 67.2913 77.9339 69.3258 77.8959 69.8212C77.8578 70.3167 77.7674 73.2086 77.4088 74.2907C77.0503 75.3728 76.5524 75.9168 76.283 76.3076C76.0138 76.6985 75.141 77.5775 75.141 77.5775C75.141 77.5775 73.0044 76.2786 72.3516 74.8553C71.6989 73.4322 70.9777 70.967 70.9777 70.967C70.9777 70.967 70.3136 68.427 70.497 66.8136C70.6805 65.2003 70.862 64.3289 70.952 64.1016Z" fill="#E5EEFF"/>
<path fill-rule="evenodd" clip-rule="evenodd" d="M57.8002 21.0798C57.4007 22.013 56.8899 23.0358 56.1739 23.7611C55.481 24.463 54.5923 24.8806 53.4203 24.6378C53.3337 24.62 53.2488 24.6757 53.2309 24.7624C53.213 24.8489 53.2687 24.9339 53.3553 24.9518C54.6516 25.2201 55.6357 24.7626 56.402 23.9863C57.1453 23.2334 57.6801 22.1746 58.0949 21.206C58.1298 21.1247 58.092 21.0305 58.0107 20.9956C57.9294 20.9609 57.8351 20.9985 57.8002 21.0798Z" fill="#232124"/>
<path fill-rule="evenodd" clip-rule="evenodd" d="M58.7552 20.2751C58.3683 21.8139 58.4322 23.0639 58.9749 23.9951C59.5204 24.9311 60.5519 25.5559 62.1295 25.8189C62.2166 25.8334 62.2993 25.7743 62.3138 25.6872C62.3285 25.5999 62.2694 25.5172 62.1822 25.5027C60.7221 25.2593 59.7567 24.6999 59.2519 23.8338C58.7442 22.9628 58.7042 21.7925 59.0661 20.3532C59.0876 20.2675 59.0356 20.1803 58.9497 20.1588C58.864 20.1372 58.7768 20.1894 58.7552 20.2751Z" fill="#232124"/>
<path fill-rule="evenodd" clip-rule="evenodd" d="M61.2401 21.8518C61.2155 22.8154 61.3881 23.4968 61.7243 24.0319C62.2213 24.823 63.0859 25.2947 64.249 25.8762C64.9594 26.2314 65.8545 26.5426 66.666 26.5426C66.7545 26.5426 66.8264 26.4709 66.8264 26.3824C66.8264 26.2939 66.7545 26.2221 66.666 26.2221C65.9022 26.2221 65.0611 25.9239 64.3924 25.5896C63.2933 25.0399 62.4654 24.609 61.9957 23.8614C61.6874 23.3706 61.5381 22.7436 61.5606 21.8599C61.5629 21.7715 61.4929 21.6978 61.4045 21.6955C61.316 21.6934 61.2424 21.7634 61.2401 21.8518Z" fill="#232124"/>
<path fill-rule="evenodd" clip-rule="evenodd" d="M58.4102 14.2607C58.4539 13.4168 58.8836 12.6918 59.4921 12.098C60.4277 11.1853 61.7856 10.5808 62.8763 10.3381C62.9626 10.3189 63.0172 10.2332 62.998 10.1468C62.9787 10.0606 62.893 10.006 62.8067 10.0252C61.6659 10.279 60.2468 10.9139 59.2683 11.8686C58.6009 12.5196 58.138 13.3187 58.0901 14.2442C58.0855 14.3325 58.1534 14.4079 58.2417 14.4125C58.3301 14.4171 58.4056 14.3491 58.4102 14.2607Z" fill="#232124"/>
<path fill-rule="evenodd" clip-rule="evenodd" d="M62.0466 10.4821C61.1925 10.9471 60.382 12.0304 60.3361 13.0247C60.3319 13.1131 60.4004 13.1882 60.4888 13.1923C60.5771 13.1963 60.6522 13.1279 60.6562 13.0396C60.6976 12.1472 61.4335 11.1809 62.1999 10.7636C62.2776 10.7213 62.3062 10.6239 62.264 10.5462C62.2217 10.4685 62.1243 10.4398 62.0466 10.4821Z" fill="#232124"/>
<path fill-rule="evenodd" clip-rule="evenodd" d="M60.9625 13.0019C61.5567 12.4616 62.3354 12.1953 63.0776 11.9195C67.0009 10.4615 69.3617 12.4263 72.3489 14.4635C72.93 14.8598 73.3704 15.2501 74.0378 15.5256C74.1195 15.5593 74.2132 15.5204 74.2471 15.4386C74.2808 15.3569 74.2417 15.263 74.1601 15.2293C73.5148 14.963 73.0914 14.5818 72.5294 14.1986C69.4518 12.0997 67.0081 10.1168 62.9659 11.6191C62.1858 11.9089 61.3715 12.1968 60.7468 12.7646C60.6813 12.8242 60.6765 12.9257 60.736 12.9911C60.7956 13.0565 60.897 13.0613 60.9625 13.0019Z" fill="#232124"/>
<path fill-rule="evenodd" clip-rule="evenodd" d="M72.2636 16.7346C72.558 16.9411 73.0475 17.0709 73.5822 17.1197C74.3682 17.1916 75.2498 17.092 75.722 16.8559C75.801 16.8163 75.8332 16.7198 75.7937 16.6408C75.7541 16.5617 75.6578 16.5295 75.5787 16.5691C75.1448 16.786 74.3336 16.8665 73.6115 16.8005C73.1407 16.7575 72.7068 16.6538 72.4476 16.4721C72.3752 16.4214 72.2751 16.4389 72.2243 16.5113C72.1736 16.5838 72.1911 16.6838 72.2636 16.7346Z" fill="#232124"/>
<path fill-rule="evenodd" clip-rule="evenodd" d="M74.6245 17.8741C75.5336 18.3666 75.9263 19.4461 76.0288 20.6608C76.1873 22.5376 75.6428 24.7452 75.0772 25.7634C75.0342 25.8406 75.062 25.9383 75.1394 25.9813C75.2167 26.0242 75.3143 25.9963 75.3573 25.919C75.9433 24.8641 76.5125 22.5781 76.3483 20.6339C76.2357 19.3013 75.7746 18.1326 74.7772 17.5923C74.6994 17.5502 74.602 17.5792 74.5599 17.6569C74.5177 17.7346 74.5468 17.832 74.6245 17.8741Z" fill="#232124"/>
<path fill-rule="evenodd" clip-rule="evenodd" d="M74.3429 21.9435C74.8537 23.5399 74.4998 25.6957 73.4663 27.2168C72.7871 28.2168 71.8114 28.9427 70.5864 29.037C70.4983 29.0438 70.4321 29.1209 70.439 29.209C70.4457 29.2972 70.5228 29.3634 70.611 29.3566C71.9358 29.2547 72.9967 28.4785 73.7315 27.3969C74.8192 25.7959 75.1859 23.5261 74.6483 21.8459C74.6213 21.7616 74.531 21.7151 74.4467 21.7421C74.3625 21.7691 74.3159 21.8593 74.3429 21.9435Z" fill="#232124"/>
<path fill-rule="evenodd" clip-rule="evenodd" d="M57.5294 13.9585C56.014 13.9274 55.3034 13.8163 54.5426 14.1591C54.0349 14.3878 53.5026 14.8197 52.6973 15.625C52.6347 15.6876 52.6347 15.7891 52.6973 15.8515C52.7598 15.9141 52.8615 15.9141 52.9239 15.8515C53.6898 15.0856 54.1914 14.6689 54.6743 14.4513C55.3996 14.1246 56.0781 14.2493 57.5228 14.279C57.6112 14.2809 57.6845 14.2106 57.6863 14.1222C57.6882 14.0337 57.6178 13.9605 57.5294 13.9585Z" fill="#232124"/>
<path fill-rule="evenodd" clip-rule="evenodd" d="M53.2171 16.4745C51.5003 17.3329 50.3633 19.0514 49.9195 20.9488C49.4765 22.8429 49.7255 24.912 50.765 26.4713C50.8141 26.545 50.9137 26.5648 50.9872 26.5158C51.0609 26.4667 51.0807 26.3671 51.0318 26.2936C50.0395 24.8053 49.8089 22.8296 50.2318 21.0218C50.6538 19.2173 51.7277 17.5775 53.3605 16.7611C53.4395 16.7215 53.4717 16.6252 53.4321 16.5461C53.3926 16.467 53.2963 16.4349 53.2171 16.4745Z" fill="#232124"/>
<path fill-rule="evenodd" clip-rule="evenodd" d="M53.4359 25.6096C53.6005 27.461 53.3278 29.4668 53.264 31.3201C53.2163 32.7043 53.1091 34.2911 53.4119 35.6541C54.0163 38.3734 56.4841 40.6182 58.7114 42.1031C58.785 42.1522 58.8846 42.1322 58.9337 42.0587C58.9827 41.985 58.9628 41.8855 58.8892 41.8364C56.7254 40.3938 54.3119 38.2264 53.7249 35.5846C53.4277 34.247 53.5375 32.6896 53.5843 31.3312C53.6486 29.4652 53.9208 27.4453 53.7552 25.5812C53.7473 25.493 53.6694 25.4279 53.5813 25.4358C53.4932 25.4435 53.4281 25.5214 53.4359 25.6096Z" fill="#232124"/>
<path fill-rule="evenodd" clip-rule="evenodd" d="M70.72 29.4988C70.4726 29.9852 70.3884 30.5813 70.2272 31.1008C69.8722 32.2443 69.4032 33.3518 69.037 34.491C68.6588 35.6676 68.3388 36.992 67.8325 38.2006C67.3374 39.3829 66.664 40.4544 65.5675 41.1521C64.8443 41.6124 64.0161 41.7363 63.2215 42.0013C63.1375 42.0292 63.0921 42.12 63.1201 42.204C63.1481 42.288 63.2389 42.3334 63.3228 42.3054C64.1423 42.0322 64.9937 41.8972 65.7395 41.4226C66.8925 40.6888 67.6075 39.5675 68.1282 38.3243C68.638 37.1074 68.9613 35.774 69.3421 34.5891C69.7086 33.4489 70.1781 32.3404 70.5333 31.1958C70.6893 30.693 70.7663 30.1148 71.0057 29.6441C71.0458 29.5653 71.0144 29.4687 70.9355 29.4287C70.8566 29.3885 70.76 29.42 70.72 29.4988Z" fill="#232124"/>
<path fill-rule="evenodd" clip-rule="evenodd" d="M66.7916 40.193C66.6008 40.436 66.4307 40.9221 66.2898 41.5173C65.9762 42.8436 65.7841 44.7257 65.6754 45.4863C65.663 45.5738 65.7238 45.655 65.8115 45.6676C65.899 45.6801 65.9803 45.6191 65.9928 45.5316C66.1006 44.7765 66.2905 42.9078 66.6018 41.591C66.7289 41.0536 66.8713 40.6105 67.0436 40.391C67.0983 40.3214 67.0863 40.2205 67.0167 40.1659C66.9471 40.1114 66.8463 40.1235 66.7916 40.193Z" fill="#232124"/>
<path fill-rule="evenodd" clip-rule="evenodd" d="M53.9621 37.6989C53.892 38.7414 53.5978 39.7379 53.4688 40.7699C53.4216 41.1476 53.2516 41.5756 53.2994 41.958C53.4147 42.88 54.0592 43.6019 54.4854 44.3691C54.7994 44.9344 55.2708 45.4226 55.6909 45.9028C56.8695 47.2497 58.2732 48.491 60.1151 48.798C60.2023 48.8126 60.2849 48.7536 60.2994 48.6663C60.314 48.579 60.255 48.4963 60.1677 48.4818C58.4008 48.1873 57.0628 46.9838 55.9321 45.6917C55.5266 45.2282 55.0688 44.759 54.7657 44.2134C54.3586 43.4807 53.7275 42.7989 53.6175 41.9182C53.5727 41.5608 53.7427 41.1626 53.7868 40.8097C53.9166 39.7715 54.2115 38.769 54.2819 37.7204C54.2878 37.6321 54.2209 37.5556 54.1328 37.5497C54.0445 37.5438 53.968 37.6106 53.9621 37.6989Z" fill="#232124"/>
<path fill-rule="evenodd" clip-rule="evenodd" d="M60.7441 48.7183C61.1914 48.6653 61.6352 48.3602 62.0489 48.1851C63.0975 47.7415 64.1568 47.4279 65.0745 46.7549C65.1939 46.6672 65.3363 46.5925 65.4694 46.5079C65.625 46.4091 65.7681 46.2968 65.8661 46.1498C65.9152 46.0761 65.8952 45.9766 65.8217 45.9275C65.748 45.8784 65.6485 45.8984 65.5994 45.9719C65.5256 46.0826 65.4144 46.163 65.2975 46.2374C65.1582 46.3258 65.0098 46.4047 64.8849 46.4963C63.9876 47.1545 62.9493 47.4561 61.9241 47.89C61.5364 48.0538 61.1254 48.3504 60.7064 48.4C60.6185 48.4104 60.5556 48.4902 60.5661 48.578C60.5765 48.6659 60.6563 48.7288 60.7441 48.7183Z" fill="#232124"/>
<path fill-rule="evenodd" clip-rule="evenodd" d="M63.0489 32.463C63.0265 32.9501 63.1228 33.4902 63.2284 33.9653C63.2704 34.1543 63.3247 34.3178 63.3625 34.4649C63.3976 34.6014 63.4215 34.72 63.3841 34.8329C63.3465 34.9464 63.2474 35.0474 63.0631 35.1608C62.9437 35.2343 62.8457 35.2578 62.7084 35.2773C62.6209 35.2898 62.56 35.3711 62.5724 35.4586C62.585 35.5462 62.6662 35.6071 62.7538 35.5946C62.939 35.5682 63.0699 35.5331 63.2311 35.4338C63.4611 35.2922 63.5888 35.1527 63.6564 35.0127C63.739 34.8415 63.7364 34.6641 63.6915 34.4617C63.6551 34.2978 63.5898 34.114 63.5412 33.8957C63.4416 33.4472 63.3479 32.9377 63.3691 32.4777C63.3732 32.3893 63.3047 32.3142 63.2164 32.3102C63.128 32.3061 63.053 32.3745 63.0489 32.463Z" fill="#232124"/>
<path fill-rule="evenodd" clip-rule="evenodd" d="M58.9654 36.1551C59.066 36.3514 59.2333 36.4883 59.431 36.5878C59.6893 36.7177 60.0015 36.7814 60.2471 36.857C61.6737 37.2959 62.5863 37.6423 64.1579 37.4372C64.2457 37.4258 64.3075 37.3453 64.2962 37.2575C64.2847 37.1699 64.2042 37.1079 64.1164 37.1194C62.5989 37.3173 61.719 36.9746 60.3412 36.5507C60.1469 36.4909 59.9079 36.4405 59.6917 36.3537C59.508 36.28 59.3391 36.1814 59.2506 36.0089C59.2103 35.9302 59.1136 35.899 59.035 35.9393C58.9562 35.9797 58.9251 36.0764 58.9654 36.1551Z" fill="#232124"/>
<path fill-rule="evenodd" clip-rule="evenodd" d="M55.5351 27.5151C55.8206 27.5233 56.1522 27.4127 56.4497 27.4003C57.7044 27.3481 58.9555 27.3818 60.0781 27.943C60.1571 27.9826 60.2535 27.9505 60.2931 27.8714C60.3326 27.7922 60.3005 27.6959 60.2213 27.6564C59.0499 27.0706 57.7457 27.0255 56.4363 27.08C56.1461 27.0921 55.8227 27.2027 55.5442 27.1947C55.4558 27.1922 55.382 27.262 55.3795 27.3504C55.3769 27.4388 55.4466 27.5126 55.5351 27.5151Z" fill="#232124"/>
<path fill-rule="evenodd" clip-rule="evenodd" d="M65.8413 29.0796C67.0576 28.9428 68.3678 28.7603 69.4739 29.5614C69.5455 29.6133 69.6458 29.5972 69.6977 29.5256C69.7496 29.454 69.7336 29.3537 69.6619 29.3018C68.4865 28.4504 67.098 28.6157 65.8055 28.7611C65.7175 28.771 65.6542 28.8504 65.6641 28.9382C65.674 29.0261 65.7534 29.0895 65.8413 29.0796Z" fill="#232124"/>
<path fill-rule="evenodd" clip-rule="evenodd" d="M55.9636 30.0849C56.45 29.7192 57.3158 29.3222 58.0948 29.2588C58.5323 29.2232 58.9428 29.2911 59.2272 29.5536C59.4145 29.7264 59.5435 29.9827 59.5945 30.3401C59.607 30.4276 59.6883 30.4886 59.7758 30.4761C59.8634 30.4636 59.9243 30.3823 59.9118 30.2948C59.8481 29.8489 59.6783 29.5336 59.4447 29.318C59.0977 28.998 58.6023 28.8958 58.0687 28.9393C57.2291 29.0076 56.2954 29.4345 55.771 29.8288C55.7003 29.8818 55.686 29.9825 55.7392 30.0531C55.7924 30.1238 55.8929 30.1381 55.9636 30.0849Z" fill="#232124"/>
<path fill-rule="evenodd" clip-rule="evenodd" d="M65.7604 31.0887C66.315 30.8953 67.1487 30.7497 67.8138 30.9214C68.2248 31.0273 68.5696 31.2584 68.7182 31.6948C68.7468 31.7786 68.8379 31.8234 68.9216 31.7949C69.0053 31.7663 69.0501 31.6752 69.0216 31.5915C68.835 31.0435 68.4099 30.744 67.894 30.6109C67.1689 30.4239 66.2594 30.5752 65.6548 30.7861C65.5713 30.8153 65.5272 30.9066 65.5563 30.9902C65.5855 31.0737 65.6769 31.1178 65.7604 31.0887Z" fill="#232124"/>
<path fill-rule="evenodd" clip-rule="evenodd" d="M57.9083 32.197C58.042 32.2437 58.1615 32.2479 58.2674 32.2236C58.4458 32.1825 58.5911 32.057 58.7007 31.8795C58.9292 31.5097 59.0007 30.9019 59.0007 30.6367C59.0007 30.5128 59.0111 30.2991 58.9657 30.1248C58.9244 29.9662 58.8384 29.8385 58.6973 29.7798C58.4677 29.6846 58.1921 29.7895 58.0105 29.9206C57.42 30.3471 57.3465 30.8878 57.4554 31.562C57.4762 31.6911 57.4678 31.8802 57.5194 32.0014C57.5494 32.0723 57.5952 32.1274 57.6573 32.1633C57.7155 32.1969 57.7911 32.2156 57.8916 32.2004C57.8973 32.1995 57.9028 32.1984 57.9083 32.197Z" fill="#232124"/>
<path fill-rule="evenodd" clip-rule="evenodd" d="M66.2595 32.1921C66.1492 32.4657 66.1003 32.7802 66.1114 33.0063C66.119 33.1621 66.123 33.3593 66.1839 33.5212C66.2217 33.6213 66.2791 33.7095 66.3643 33.7755C66.4739 33.9147 66.6263 34.0082 66.789 34.0325C66.9818 34.0612 67.1943 33.9997 67.3741 33.7941C67.7555 33.3582 67.859 32.6154 67.7561 32.0664C67.7311 31.9329 67.6887 31.7227 67.5985 31.5648C67.5194 31.4265 67.4054 31.3262 67.2534 31.3009C66.9445 31.2494 66.6807 31.4462 66.5122 31.685C66.4012 31.8421 66.3155 32.0138 66.2595 32.1921ZM66.8085 33.4784C66.8214 33.4617 66.8402 33.4367 66.8508 33.4177C66.8983 33.3331 66.9338 33.2376 66.9527 33.2019C67.1118 32.9025 67.1873 32.6186 67.173 32.2752C67.1708 32.221 67.1585 32.1577 67.1309 32.1039C67.1129 32.0686 67.0891 32.0357 67.0499 32.0245C67.0307 32.0189 67.0131 32.029 66.9951 32.0394C66.9681 32.0549 66.9428 32.0766 66.9186 32.1008C66.8419 32.1771 66.779 32.2766 66.7391 32.3402C66.613 32.5419 66.544 32.7863 66.5596 33.0212C66.5718 33.0579 66.5862 33.0944 66.6027 33.1303C66.6363 33.203 66.689 33.3292 66.7603 33.4219C66.7765 33.443 66.791 33.4653 66.8085 33.4784Z" fill="#232124"/>
<path fill-rule="evenodd" clip-rule="evenodd" d="M66.838 33.5303C66.8547 33.5348 66.872 33.5365 66.8894 33.5363C66.9155 33.536 66.9696 33.5335 67.0203 33.4701C67.1009 33.3695 67.1519 33.229 67.1836 33.0756L67.186 33.0634L67.192 33.0643C67.2796 33.0762 67.3605 33.0148 67.3724 32.9271C67.386 32.8275 67.4039 32.7283 67.4131 32.628C67.4224 32.5262 67.427 32.4238 67.427 32.3216C67.427 32.163 67.3982 32.0858 67.3801 32.0592C67.3424 32.0035 67.2943 31.986 67.2502 31.9826H67.2494C67.2567 31.9529 67.2557 31.9209 67.2445 31.89C67.2146 31.8068 67.1226 31.7635 67.0394 31.7935C66.9562 31.8236 66.8868 31.8834 66.8305 31.9601C66.7709 32.0416 66.7267 32.1439 66.6866 32.2211C66.5295 32.5232 66.4387 32.8194 66.4167 33.1606C66.4145 33.194 66.3927 33.4098 66.4319 33.5093C66.4611 33.5836 66.5128 33.6267 66.5729 33.6437C66.659 33.668 66.7502 33.6391 66.8223 33.5513C66.8276 33.5447 66.8329 33.5377 66.838 33.5303Z" fill="#232124"/>
<path fill-rule="evenodd" clip-rule="evenodd" d="M53.5042 29.164C53.5016 29.1543 53.4771 29.0644 53.47 29.0012C53.4503 28.8281 53.4494 28.6199 53.4339 28.5236C53.3697 28.126 53.2823 27.7878 53.1482 27.4097C52.9724 26.9141 52.9238 26.5443 52.4736 26.244C52.3063 26.1325 52.1616 26.1336 51.967 26.1336C51.408 26.1336 51.0222 26.4332 50.7626 26.8555C50.5208 27.2493 50.3921 27.7527 50.3325 28.1935C50.1951 29.2102 50.3767 30.4064 50.8766 31.3956C51.385 32.4014 52.2204 33.1924 53.3746 33.3848C53.4619 33.3994 53.5444 33.3403 53.5589 33.2531C53.5736 33.1658 53.5145 33.0832 53.4273 33.0686C52.3776 32.8937 51.625 32.1657 51.1628 31.251C50.6921 30.3196 50.5208 29.1937 50.6502 28.2365C50.7041 27.8372 50.8167 27.3799 51.0358 27.0233C51.2374 26.6951 51.5326 26.4541 51.967 26.4541C52.0921 26.4541 52.1881 26.439 52.2957 26.5107C52.5124 26.6552 52.6079 26.823 52.6812 27.0191C52.7373 27.1692 52.7813 27.3344 52.8461 27.5168C52.9736 27.8758 53.0565 28.1971 53.1173 28.5747C53.1353 28.6856 53.1331 28.9471 53.1643 29.1281C53.1846 29.2468 53.2257 29.3384 53.2715 29.3842C53.334 29.4467 53.4355 29.4467 53.4981 29.3842C53.5586 29.3237 53.5606 29.2269 53.5042 29.164Z" fill="#232124"/>
<path fill-rule="evenodd" clip-rule="evenodd" d="M52.0103 27.9117C52.0314 27.932 52.0683 27.9691 52.0916 28.0023C52.228 28.1967 52.3409 28.4998 52.3451 28.5111C52.5714 29.1201 52.675 29.7619 52.732 30.406C52.7146 30.4037 52.6969 30.4034 52.6792 30.405C52.6249 30.41 52.5646 30.4329 52.5062 30.4962C52.3241 30.6937 52.2249 31.0413 52.2249 31.3031C52.2249 31.3391 52.2135 31.4011 52.2146 31.4527C52.2155 31.4986 52.2243 31.5401 52.2389 31.5724C52.2595 31.6179 52.2913 31.6513 52.3325 31.6729C52.3679 31.6914 52.4128 31.7027 52.471 31.6934C52.5582 31.6793 52.6178 31.597 52.6037 31.5097C52.5967 31.4661 52.5726 31.4294 52.5394 31.4054C52.5422 31.3696 52.5454 31.3238 52.5454 31.3031C52.5454 31.1329 52.5965 30.9105 52.7021 30.7628C52.7099 30.7733 52.7174 30.7839 52.7224 30.792C52.7458 30.8307 52.7658 30.8639 52.7787 30.8798C52.796 30.9009 52.8135 30.9139 52.8269 30.9221C52.8778 30.9527 53.0955 30.9883 53.0778 30.7228C53.0254 29.9357 52.9222 29.1442 52.6457 28.3995C52.6399 28.384 52.4565 27.9073 52.2637 27.7068C52.1841 27.624 52.0969 27.5815 52.0189 27.578C51.9484 27.575 51.8777 27.5971 51.8126 27.6623C51.75 27.7249 51.75 27.8264 51.8126 27.8888C51.8661 27.9425 51.9486 27.9502 52.0103 27.9117Z" fill="#232124"/>
<path fill-rule="evenodd" clip-rule="evenodd" d="M51.979 29.3705C52.0621 29.2748 52.1562 29.1639 52.2627 29.0713C52.3524 28.9932 52.4504 28.9269 52.5604 28.907C52.6476 28.8914 52.7055 28.8079 52.6898 28.7209C52.674 28.6338 52.5906 28.5759 52.5035 28.5916C52.194 28.6474 51.9341 28.9335 51.737 29.1603C51.679 29.2271 51.6861 29.3284 51.7529 29.3864C51.8197 29.4444 51.921 29.4373 51.979 29.3705Z" fill="#232124"/>
<path fill-rule="evenodd" clip-rule="evenodd" d="M71.4783 29.3251C71.5895 29.2608 71.6822 29.2433 71.7604 29.2726C71.8424 29.3032 71.9029 29.3775 71.952 29.4671C72.0752 29.6916 72.1173 30.0154 72.0906 30.2425C72.0115 30.9145 71.6531 32.1042 71.1865 33.1037C70.8823 33.7551 70.5351 34.3269 70.1845 34.6074C70.0242 34.7357 69.8023 34.9873 69.5809 35.1681C69.4669 35.2612 69.3589 35.3413 69.2594 35.3413C69.1709 35.3413 69.0991 35.413 69.0991 35.5016C69.0991 35.59 69.1709 35.6617 69.2594 35.6617C69.4171 35.6617 69.6031 35.564 69.7837 35.4163C70.0042 35.2363 70.2251 34.9854 70.3847 34.8577C70.7636 34.5546 71.1484 33.9432 71.477 33.2393C71.9594 32.2058 72.3271 30.9748 72.4089 30.2799C72.4423 29.9966 72.3868 29.5932 72.2331 29.313C72.1439 29.1503 72.0214 29.0279 71.8727 28.9723C71.7201 28.9153 71.5349 28.9222 71.3178 29.0476C71.2412 29.0919 71.215 29.19 71.2593 29.2666C71.3034 29.3432 71.4017 29.3694 71.4783 29.3251Z" fill="#232124"/>
<path fill-rule="evenodd" clip-rule="evenodd" d="M53.3659 41.0204C52.802 41.2537 52.4743 41.7094 52.2727 42.2428C52.0827 42.7456 52.0065 43.3177 51.9352 43.8161C51.4857 46.9622 51.1806 50.3157 51.4978 53.4882C51.539 53.9 51.5792 55.1569 51.751 56.004C51.8333 56.4102 51.9575 56.7264 52.1059 56.8536C52.2717 56.9957 52.4402 56.9798 52.5927 56.8848C52.7575 56.7821 52.9001 56.5606 52.966 56.4227C53.2771 55.7726 53.5332 55.0457 53.9178 54.4303C54.8546 52.9315 55.8399 51.2485 57.386 50.3209C57.6129 50.1848 57.8761 49.9411 58.1543 49.7308C58.3977 49.5467 58.6507 49.3834 58.9043 49.3834C58.9927 49.3834 59.0645 49.3115 59.0645 49.2231C59.0645 49.1346 58.9927 49.0628 58.9043 49.0628C58.6474 49.0628 58.3853 49.1817 58.1338 49.3512C57.8018 49.5747 57.4866 49.8867 57.2211 50.0461C55.6322 50.9994 54.6087 52.72 53.646 54.2605C53.2552 54.8858 52.993 55.6236 52.6769 56.2844C52.6372 56.3673 52.5624 56.4948 52.4694 56.5775C52.4222 56.6195 52.3692 56.657 52.3146 56.6102C52.2763 56.5774 52.245 56.5224 52.2142 56.4539C52.1547 56.3213 52.1062 56.1433 52.0651 55.9404C51.8956 55.104 51.8575 53.8629 51.8168 53.4563C51.502 50.3091 51.8067 46.9825 52.2525 43.8615C52.3206 43.3848 52.3908 42.8371 52.5725 42.356C52.7428 41.9055 53.0121 41.5136 53.4885 41.3166C53.5702 41.2827 53.6091 41.189 53.5753 41.1072C53.5414 41.0255 53.4477 40.9865 53.3659 41.0204Z" fill="#232124"/>
<path fill-rule="evenodd" clip-rule="evenodd" d="M64.8285 57.8863C64.7844 57.8157 64.7344 57.7342 64.7287 57.7201C64.6874 57.6172 64.6862 57.4916 64.6878 57.3652C64.6898 57.2082 64.6989 57.0493 64.6804 56.914C64.5704 56.1071 64.3289 55.2477 64.0304 54.4903C63.2342 52.4691 61.5771 50.8995 60.5153 49.0412C60.4714 48.9644 60.3734 48.9377 60.2966 48.9816C60.2199 49.0255 60.193 49.1234 60.2369 49.2003C61.2914 51.0454 62.9416 52.6008 63.7322 54.6078C64.0215 55.3421 64.2561 56.1751 64.3629 56.9573C64.3794 57.0784 64.3691 57.2205 64.3673 57.361C64.3652 57.5318 64.3755 57.7001 64.4311 57.8392C64.4463 57.8774 64.5976 58.1625 64.6909 58.2411C64.7966 58.33 64.893 58.3042 64.9551 58.2423C65.1145 58.0828 65.2215 57.8388 65.3003 57.5676C65.4043 57.2092 65.4607 56.8015 65.572 56.5309C65.7155 56.1827 65.7778 55.828 65.8961 55.4729C65.9241 55.389 65.8787 55.2981 65.7947 55.2701C65.7108 55.2423 65.62 55.2877 65.592 55.3715C65.476 55.7195 65.4163 56.0676 65.2757 56.4089C65.1789 56.644 65.1196 56.9779 65.0402 57.299C64.9867 57.5154 64.9264 57.7271 64.8285 57.8863Z" fill="#232124"/>
<path fill-rule="evenodd" clip-rule="evenodd" d="M66.1727 44.9095C66.7584 46.0789 66.5461 47.3989 66.4284 48.6551C66.2238 50.8373 66.1365 53.1154 65.5316 55.2327C65.5073 55.3177 65.5567 55.4065 65.6416 55.4308C65.7268 55.4551 65.8156 55.4058 65.8399 55.3208C66.4502 53.1847 66.5411 50.8867 66.7475 48.685C66.8708 47.3702 67.0724 45.99 66.4593 44.7658C66.4196 44.6868 66.3233 44.6548 66.2442 44.6943C66.1652 44.734 66.1331 44.8303 66.1727 44.9095Z" fill="#232124"/>
<path fill-rule="evenodd" clip-rule="evenodd" d="M56.4265 50.9623C56.5124 51.36 56.8718 52.8434 57.265 53.8214C57.448 54.2764 57.6497 54.6233 57.8257 54.7406C57.9114 54.7978 58.0587 54.8462 58.234 54.8803C58.5937 54.9502 59.0799 54.9713 59.2825 54.9713C59.7547 54.9713 60.1025 55.0078 60.3734 54.9966C60.5832 54.988 60.7527 54.9508 60.8999 54.8633C61.1327 54.725 61.3173 54.4523 61.5009 53.9013C61.5988 53.6078 61.6481 53.2947 61.7602 53.0065C61.896 52.6573 62.1204 52.2588 62.1204 51.8715C62.1204 51.7831 62.0485 51.7112 61.9601 51.7112C61.8717 51.7112 61.7999 51.7831 61.7999 51.8715C61.7999 52.2207 61.5839 52.5755 61.4615 52.8902C61.3475 53.1834 61.2963 53.5016 61.1969 53.7999C61.0491 54.2432 60.9234 54.4765 60.7362 54.5877C60.6012 54.668 60.4385 54.6799 60.2269 54.6782C59.9798 54.6763 59.6742 54.6508 59.2825 54.6508C59.0918 54.6508 58.6338 54.6315 58.2951 54.5657C58.1709 54.5415 58.0642 54.5144 58.0036 54.474C57.9532 54.4405 57.9041 54.3775 57.8517 54.2961C57.7555 54.1469 57.6582 53.94 57.5625 53.7018C57.1764 52.7416 56.8241 51.2852 56.7397 50.8946C56.7212 50.8081 56.6358 50.7531 56.5493 50.7717C56.4629 50.7904 56.4078 50.8757 56.4265 50.9623Z" fill="#232124"/>
<path fill-rule="evenodd" clip-rule="evenodd" d="M57.6673 54.688C57.32 56.0789 56.7701 57.4135 56.4488 58.8058C55.9726 60.8695 55.4791 62.9469 54.9652 65.0023C54.6972 66.074 54.3023 67.1079 54.0059 68.1704C52.9717 71.8761 52.1663 75.8907 51.8467 79.7254C51.8395 79.8136 51.905 79.8911 51.9932 79.8985C52.0813 79.9058 52.1588 79.8402 52.1662 79.752C52.4841 75.937 53.2858 71.9431 54.3146 68.2566C54.6119 67.1912 55.0074 66.1547 55.2761 65.08C55.7904 63.0228 56.2845 60.9435 56.7611 58.878C57.082 57.4874 57.6315 56.1547 57.9783 54.7656C57.9997 54.6799 57.9474 54.5929 57.8616 54.5714C57.7757 54.55 57.6887 54.6023 57.6673 54.688Z" fill="#232124"/>
<path fill-rule="evenodd" clip-rule="evenodd" d="M61.1462 54.8111C61.1649 54.7878 61.1774 54.7588 61.1804 54.7268C61.1891 54.6388 61.1246 54.5603 61.0365 54.5517C60.9958 54.5477 60.9556 54.5567 60.9176 54.5849C60.8923 54.6037 60.848 54.6555 60.8295 54.757C60.7926 54.9618 60.7879 55.5711 60.8107 56.4595C60.8541 58.1491 60.7971 59.8424 60.8982 61.5291C60.9727 62.77 60.8789 64.0141 60.9565 65.2548C61.2059 69.2447 61.7877 73.1491 62.3841 77.0851C62.693 79.1239 62.8238 81.1765 63.2294 83.2045C63.2467 83.2912 63.3313 83.3476 63.418 83.3302C63.5047 83.3129 63.5611 83.2284 63.5438 83.1416C63.1391 81.1185 63.0092 79.0709 62.701 77.0372C62.1061 73.1104 61.5252 69.2153 61.2764 65.2349C61.1989 63.9944 61.2926 62.7506 61.2182 61.5099C61.1172 59.8268 61.1743 58.1373 61.1312 56.4513C61.1138 55.7715 61.1112 55.2598 61.1286 54.976C61.1328 54.9067 61.1419 54.8408 61.1462 54.8111Z" fill="#232124"/>
<path fill-rule="evenodd" clip-rule="evenodd" d="M51.7712 44.2472C51.8444 44.2605 51.9193 44.2212 51.9482 44.1495C51.9814 44.0675 51.9417 43.974 51.8597 43.9409C51.7679 43.9038 51.6383 43.9276 51.5069 44.0428C51.2092 44.3038 50.79 45.0929 50.756 45.1449C49.9332 46.4065 49.2517 47.6633 48.5177 48.9817C45.2926 54.7742 44.0723 63.4135 44.0723 69.9498C44.0723 70.0382 44.144 70.11 44.2324 70.11C44.321 70.11 44.3928 70.0382 44.3928 69.9498C44.3928 63.4625 45.5968 54.8867 48.7977 49.1377C49.5281 47.8259 50.2059 46.5752 51.0244 45.32C51.0527 45.2768 51.3567 44.6946 51.622 44.3837C51.6715 44.3257 51.749 44.2643 51.7712 44.2472Z" fill="#232124"/>
<path fill-rule="evenodd" clip-rule="evenodd" d="M51.9759 42.847C48.8698 44.7254 47.7827 47.1431 46.4363 50.4343C44.8542 54.3016 44.1331 58.2305 43.5952 62.3544C43.2461 65.0311 42.8364 67.6874 42.8364 70.3882C42.8364 70.4768 42.9082 70.5485 42.9966 70.5485C43.0852 70.5485 43.1569 70.4768 43.1569 70.3882C43.1569 67.7013 43.5657 65.0588 43.913 62.3958C44.4474 58.2998 45.1616 54.3969 46.733 50.5556C48.0507 47.3347 49.1019 44.9596 52.1418 43.1213C52.2175 43.0755 52.2418 42.9769 52.196 42.9012C52.1502 42.8255 52.0516 42.8012 51.9759 42.847Z" fill="#232124"/>
<path fill-rule="evenodd" clip-rule="evenodd" d="M44.4372 70.5271C44.4337 70.507 44.4263 70.4872 44.4148 70.4687C44.3602 70.3827 44.2636 70.3316 44.1387 70.321C43.9673 70.3066 43.7249 70.3774 43.6107 70.3954C42.7958 70.5241 42.1309 70.8152 41.612 71.4781C40.9677 72.3014 40.4994 73.4836 40.4645 74.6047C40.4288 75.7532 40.8434 76.8359 41.9607 77.4295C42.2705 77.594 42.5682 77.744 42.9144 77.8169C44.8289 78.22 47.1115 76.7897 47.5317 74.8288C47.8709 73.2454 46.9121 71.5177 45.5162 70.766C45.1889 70.5898 44.7986 70.5714 44.4372 70.5271ZM44.1495 70.6484C44.1382 70.6463 44.0915 70.6384 44.0606 70.6398C43.9178 70.6459 43.7477 70.6982 43.6607 70.712C42.9299 70.8274 42.3298 71.0811 41.8645 71.6757C41.2588 72.4496 40.8177 73.5607 40.7849 74.6148C40.7529 75.6415 41.1121 76.6157 42.1111 77.1465C42.3939 77.2967 42.6644 77.4367 42.9804 77.5032C44.7374 77.8732 46.8326 76.5612 47.2182 74.7616C47.5288 73.3126 46.6417 71.7361 45.3643 71.0482C45.066 70.8877 44.707 70.884 44.3786 70.843C44.3064 70.834 44.2514 70.7781 44.2403 70.7098C44.2048 70.7009 44.1723 70.6799 44.1495 70.6484Z" fill="#232124"/>
<path fill-rule="evenodd" clip-rule="evenodd" d="M44.9789 73.0209C44.7753 72.7691 44.5917 72.4761 44.2602 72.3727C43.7191 72.2038 43.1098 72.4907 42.6795 72.9615C42.2531 73.4282 42.0125 74.0657 42.1615 74.5622C42.541 75.8274 44.0262 75.7274 44.7601 74.9017C45.0583 74.5662 45.0797 74.0043 45.0797 73.586C45.0797 73.4976 45.0078 73.4257 44.9194 73.4257C44.8309 73.4257 44.759 73.4976 44.759 73.586C44.759 73.7699 44.7583 73.986 44.7242 74.193C44.6937 74.3781 44.6377 74.5569 44.5205 74.6887C43.9426 75.3388 42.7673 75.4663 42.4685 74.4701C42.3473 74.0664 42.5695 73.5571 42.9162 73.1777C43.2592 72.8024 43.7335 72.544 44.1646 72.6786C44.2864 72.7165 44.3776 72.7934 44.4587 72.8817C44.5564 72.988 44.6396 73.1111 44.7297 73.2224C44.7853 73.2912 44.8863 73.3019 44.955 73.2463C45.0238 73.1907 45.0345 73.0897 44.9789 73.0209Z" fill="#232124"/>
<path fill-rule="evenodd" clip-rule="evenodd" d="M46.8815 72.8194C46.7613 73.1446 46.7507 73.5026 46.7437 73.8631C46.7375 74.1882 46.7346 74.5154 46.6285 74.8163C46.4688 75.2689 46.2912 75.8293 45.9268 76.1657C45.202 76.8348 44.1198 77.1835 43.152 77.1835C43.0636 77.1835 42.9917 77.2554 42.9917 77.3438C42.9917 77.4322 43.0636 77.5041 43.152 77.5041C44.1963 77.5041 45.3622 77.123 46.1442 76.4012C46.5454 76.0309 46.7549 75.4213 46.9308 74.9229C47.0482 74.5902 47.0573 74.2289 47.0642 73.8694C47.0705 73.5453 47.0741 73.2228 47.1823 72.9304C47.2129 72.8475 47.1705 72.7552 47.0875 72.7246C47.0046 72.6939 46.9123 72.7363 46.8815 72.8194Z" fill="#232124"/>
<path fill-rule="evenodd" clip-rule="evenodd" d="M66.7148 46.2256C67.5751 46.6948 68.0952 47.4804 68.7718 48.157C69.0271 48.4123 69.5484 48.7183 69.9877 49.0242C70.253 49.209 70.4886 49.3902 70.5927 49.5637C70.9207 50.1103 71.0224 50.8265 71.2779 51.414C72.1601 53.4431 72.9179 56.8894 72.9179 59.1612C72.9179 59.2496 72.9897 59.3215 73.0782 59.3215C73.1666 59.3215 73.2385 59.2496 73.2385 59.1612C73.2385 56.8519 72.4686 53.3487 71.5719 51.2863C71.311 50.6863 71.2023 49.9569 70.8675 49.3987C70.7462 49.1967 70.4799 48.9765 70.1708 48.7612C69.7483 48.4669 69.2442 48.1761 68.9984 47.9303C68.3 47.2319 67.7563 46.4285 66.8684 45.9441C66.7906 45.9018 66.6932 45.9304 66.6509 46.0081C66.6086 46.0858 66.6372 46.1832 66.7148 46.2256Z" fill="#232124"/>
<path fill-rule="evenodd" clip-rule="evenodd" d="M69.0973 48.0784C69.2985 48.0001 69.6103 48.0662 69.9398 48.1788C70.4781 48.3626 71.0569 48.6925 71.3233 48.9104C71.5742 49.1156 71.6984 49.4508 71.8986 49.7011C72.6897 50.6899 72.8248 52.0517 73.0646 53.2505C73.1655 53.7552 73.3607 54.2307 73.4987 54.7238C73.8471 55.9682 74.0199 57.459 74.0199 58.7539C74.0199 58.8424 74.0917 58.9141 74.1802 58.9141C74.2686 58.9141 74.3405 58.8424 74.3405 58.7539C74.3405 57.4313 74.1633 55.9084 73.8074 54.6374C73.6715 54.152 73.4783 53.6845 73.3789 53.1877C73.1295 51.9405 72.9718 50.5296 72.1489 49.5009C71.935 49.2335 71.7942 48.8816 71.5262 48.6623C71.1923 48.3891 70.4023 47.9501 69.7564 47.7902C69.4515 47.7146 69.1756 47.7041 68.9811 47.7796C68.8986 47.8117 68.8578 47.9047 68.8898 47.9871C68.9219 48.0696 69.0149 48.1104 69.0973 48.0784Z" fill="#232124"/>
<path fill-rule="evenodd" clip-rule="evenodd" d="M72.6213 59.4217C70.662 60.5662 69.8119 62.7223 69.5026 64.8872C69.1206 67.5619 69.4866 70.2607 70.3366 72.8105C71.1156 75.1476 72.0064 76.8884 74.1972 78.1205C75.5969 78.9079 77.8979 79.0606 79.3662 78.3265C79.6426 78.1883 79.8391 77.9013 80.0646 77.6946C81.1094 76.737 82.0939 75.2726 81.9171 73.7707C81.8343 73.0663 81.0596 72.6277 80.402 72.8467C79.6285 73.1046 79.1526 73.809 79.1526 74.5983C79.1526 74.8666 79.2463 75.2372 79.4481 75.4913C79.5974 75.6794 79.8028 75.8064 80.0666 75.8064C80.155 75.8064 80.2269 75.7345 80.2269 75.6461C80.2269 75.5577 80.155 75.4858 80.0666 75.4858C79.8645 75.4858 79.7248 75.3539 79.6309 75.191C79.5229 75.004 79.4731 74.7731 79.4731 74.5983C79.4731 73.9465 79.8646 73.3638 80.5034 73.1509C80.9767 72.9931 81.5391 73.3011 81.5988 73.8081C81.7637 75.2093 80.8227 76.5648 79.8481 77.4583C79.6436 77.6456 79.4734 77.9146 79.2229 78.0398C77.8399 78.7312 75.6727 78.5829 74.3543 77.8411C72.2404 76.6522 71.3923 74.9642 70.6407 72.7092C69.8064 70.2065 69.445 67.5577 69.8199 64.9326C70.1156 62.8633 70.9103 60.7924 72.783 59.6984C72.8594 59.6537 72.8852 59.5555 72.8405 59.4792C72.7959 59.4029 72.6977 59.377 72.6213 59.4217Z" fill="#232124"/>
<path fill-rule="evenodd" clip-rule="evenodd" d="M74.3552 59.9152C73.6805 59.9713 73.151 60.4113 72.6768 60.8592C71.7519 61.7328 71.3112 62.9087 70.802 64.0542C70.4203 64.913 70.3621 65.9032 70.3104 66.8313C70.1969 68.8762 70.6379 70.5314 71.1991 72.4554C71.4559 73.3362 71.78 74.2766 72.2848 75.0532C72.8081 75.8583 73.4582 76.8479 74.2808 77.38C75.3114 78.047 77.1103 78.075 78.1936 77.4972C78.8262 77.1598 79.4332 76.5984 79.9412 76.0903C80.0038 76.0278 80.0038 75.9262 79.9412 75.8636C79.8787 75.8012 79.7772 75.8012 79.7146 75.8636C79.2278 76.3504 78.6488 76.8912 78.0428 77.2144C77.0495 77.7442 75.4 77.7224 74.4549 77.111C73.6682 76.6018 73.054 75.6486 72.5535 74.8785C72.0655 74.1276 71.7552 73.2172 71.5067 72.3657C70.9563 70.4783 70.519 68.8552 70.6305 66.8491C70.68 65.9589 70.7288 65.008 71.0949 64.1845C71.5869 63.0776 72.0033 61.9363 72.8969 61.0923C73.3192 60.6934 73.7809 60.2845 74.3818 60.2346C74.4699 60.2272 74.5355 60.1498 74.5282 60.0616C74.5208 59.9734 74.4433 59.9079 74.3552 59.9152Z" fill="#232124"/>
<path fill-rule="evenodd" clip-rule="evenodd" d="M74.7593 60.3485C75.17 60.4644 75.5595 60.8044 75.9054 61.2224C76.4465 61.8761 76.8755 62.7254 77.0855 63.2927C77.5869 64.6462 77.7798 66.163 77.811 67.5974C77.8536 69.5569 77.8251 71.5535 77.4282 73.4812C77.1777 74.6984 76.6072 75.7274 75.8259 76.6649C75.6331 76.8962 75.4227 77.1969 75.1261 77.2957C75.0423 77.3237 74.9969 77.4146 75.0249 77.4984C75.0527 77.5824 75.1436 77.6278 75.2275 77.5998C75.5789 77.4827 75.8437 77.1442 76.0721 76.8702C76.8876 75.8917 77.4806 74.8163 77.7422 73.5458C78.1438 71.5947 78.1746 69.5738 78.1315 67.5905C78.0995 66.1212 77.8997 64.5679 77.3862 63.1813C77.1666 62.5885 76.7177 61.7014 76.1523 61.0181C75.7607 60.5448 75.3112 60.1712 74.8464 60.04C74.7612 60.016 74.6727 60.0656 74.6486 60.1507C74.6246 60.2359 74.6742 60.3245 74.7593 60.3485Z" fill="#232124"/>
<path fill-rule="evenodd" clip-rule="evenodd" d="M76.8379 77.2879C76.7548 77.2937 76.6891 77.3631 76.6891 77.4477C76.6891 77.5362 76.761 77.608 76.8494 77.608C76.9373 77.608 77.0526 77.5474 77.1602 77.4307C77.3261 77.251 77.5051 76.9359 77.5856 76.825C78.3196 75.8159 78.6576 74.5915 78.9001 73.3795C79.2494 71.633 79.3246 69.8251 79.2708 68.0486C79.2023 65.7871 79.148 63.4996 77.9808 61.4837C77.3963 60.4742 76.6769 59.6603 75.6379 59.1063C75.4608 59.0117 75.2512 58.8759 75.0375 58.7971C74.8704 58.7354 74.7003 58.708 74.5379 58.7423C74.4514 58.7605 74.3958 58.8454 74.4141 58.9321C74.4323 59.0186 74.5173 59.0741 74.604 59.0559C74.7393 59.0274 74.8811 59.0736 75.0191 59.1359C75.1861 59.2114 75.3471 59.3144 75.487 59.3891C76.4713 59.9139 77.1498 60.6881 77.7035 61.6444C78.8433 63.6133 78.8835 65.8495 78.9504 68.0584C79.0034 69.8106 78.9303 71.5939 78.5858 73.3167C78.3524 74.4836 78.0331 75.6649 77.3265 76.6365C77.2598 76.7281 77.1244 76.9654 76.9863 77.1405C76.9475 77.1899 76.9088 77.2337 76.8715 77.2649C76.861 77.2737 76.8438 77.2845 76.8379 77.2879Z" fill="#232124"/>
<path fill-rule="evenodd" clip-rule="evenodd" d="M72.2675 80.3043C72.4673 80.2401 73.0976 80.0811 73.1718 80.0493C74.0235 79.6842 74.8138 79.4113 75.5874 78.8956C75.6611 78.8465 75.681 78.7468 75.632 78.6733C75.5829 78.5996 75.4833 78.5798 75.4097 78.6288C74.653 79.1334 73.8787 79.3976 73.0455 79.7547C72.9681 79.7878 72.2735 79.9604 72.1257 80.0139C72.0455 80.043 72.0158 80.0931 72.0093 80.1061C71.7402 80.6443 71.1658 81.0855 70.5353 81.0113C69.1625 80.8498 68.7432 79.0244 69.9544 78.312C70.6282 77.9157 71.313 78.3697 71.7637 78.8204C71.7951 78.8518 71.8603 78.8849 71.9549 78.8883C72.1251 78.8943 72.4665 78.8202 72.5283 78.8099C73.1754 78.7022 73.6055 78.425 74.2058 78.2289C74.2899 78.2014 74.3358 78.1108 74.3083 78.0267C74.2808 77.9426 74.1903 77.8967 74.1062 77.9242C73.5222 78.115 73.1051 78.3888 72.4756 78.4938C72.4367 78.5003 72.2793 78.535 72.1322 78.555C72.0742 78.5629 71.9956 78.5653 71.9623 78.5659C71.4179 78.0333 70.5913 77.5654 69.7918 78.0358C68.3142 78.905 68.8229 81.1326 70.4978 81.3297C71.241 81.4171 71.9297 80.9308 72.2675 80.3043Z" fill="#232124"/>
<path fill-rule="evenodd" clip-rule="evenodd" d="M51.2347 46.1109C50.3266 50.6886 50.4724 55.5916 50.5916 60.2389C50.7842 67.7525 51.0412 75.2172 51.6405 82.7078C51.8671 85.5406 52.162 88.4128 52.2852 91.2505C52.3327 92.3396 52.2805 94.1754 52.786 95.1863C52.8255 95.2654 52.9219 95.2976 53.001 95.258C53.08 95.2184 53.1122 95.122 53.0727 95.043C52.5841 94.0658 52.6513 92.2892 52.6055 91.2366C52.4819 88.395 52.1869 85.519 51.9601 82.6822C51.3612 75.1975 51.1046 67.7386 50.9121 60.2308C50.7935 55.6066 50.6456 50.728 51.5491 46.1733C51.5664 46.0865 51.5099 46.0022 51.4232 45.985C51.3364 45.9677 51.252 46.0242 51.2347 46.1109Z" fill="#232124"/>
<path fill-rule="evenodd" clip-rule="evenodd" d="M66.5363 52.279C66.758 55.8417 66.2113 59.614 65.9153 63.1652C65.5772 67.2229 65.7899 71.3214 65.4315 75.3825C65.0144 80.109 64.2212 84.9361 64.2212 89.671C64.2212 89.7594 64.2931 89.8312 64.3815 89.8312C64.4699 89.8312 64.5418 89.7594 64.5418 89.671C64.5418 84.9454 65.3346 80.1279 65.7508 75.4106C66.1092 71.349 65.8966 67.2501 66.2348 63.1917C66.532 59.6255 67.0788 55.837 66.8563 52.2592C66.8507 52.1709 66.7746 52.1037 66.6863 52.1089C66.598 52.1146 66.5309 52.1907 66.5363 52.279Z" fill="#232124"/>
<path fill-rule="evenodd" clip-rule="evenodd" d="M63.3533 84.1126C63.2929 84.9564 63.4708 85.8268 63.6657 86.7003C63.8547 87.5467 64.0597 88.3962 64.0597 89.2274C64.0597 89.3159 64.1316 89.3877 64.2201 89.3877C64.3085 89.3877 64.3804 89.3159 64.3804 89.2274C64.3804 88.3735 64.1727 87.5 63.9786 86.6305C63.7905 85.788 63.6148 84.9492 63.673 84.1354C63.6793 84.0472 63.6128 83.9704 63.5245 83.9642C63.4363 83.9578 63.3596 84.0243 63.3533 84.1126Z" fill="#232124"/>
<path fill-rule="evenodd" clip-rule="evenodd" d="M47.5339 47.2431C46.9119 47.9708 46.1138 48.2708 45.3087 48.7135C44.0936 49.382 43.031 50.3079 41.7953 50.9552C39.9084 51.9435 37.468 52.9364 35.3958 54.2621C33.9955 55.1578 32.7632 56.2057 31.9717 57.5008C29.8621 60.9531 29.0998 65.1153 27.9535 68.9364C26.5972 73.4574 23.7104 83.6225 23.168 91.4512C22.9336 94.8355 23.1411 97.7861 24.0836 99.6711C25.9392 103.382 29.7763 105.06 33.1844 106.895C35.6075 108.199 38.6842 109.46 41.5058 109.46C41.5942 109.46 41.6661 109.388 41.6661 109.3C41.6661 109.211 41.5942 109.14 41.5058 109.14C38.735 109.14 35.7159 107.894 33.3364 106.612C29.9846 104.808 26.1953 103.178 24.3702 99.5278C23.4469 97.6811 23.2581 94.7889 23.4879 91.4733C24.0285 83.6688 26.9085 73.5355 28.2605 69.0285C29.3991 65.2332 30.1497 61.097 32.2453 57.668C33.2061 56.0958 34.8418 54.9051 36.6213 53.9013C38.4243 52.8844 40.3759 52.0606 41.944 51.2392C43.1818 50.5909 44.2461 49.6638 45.4632 48.9944C46.3029 48.5326 47.1288 48.2103 47.7776 47.4514C47.8351 47.3841 47.8271 47.283 47.7599 47.2255C47.6927 47.168 47.5914 47.1758 47.5339 47.2431Z" fill="#232124"/>
<path fill-rule="evenodd" clip-rule="evenodd" d="M35.6465 55.9998C37.812 57.7767 39.1927 59.714 39.8957 62.4144C39.918 62.5 40.0057 62.5516 40.0913 62.529C40.1768 62.5068 40.2282 62.4194 40.2059 62.3336C39.4848 59.5636 38.0712 57.5747 35.8498 55.7521C35.7815 55.696 35.6804 55.7059 35.6242 55.7742C35.5681 55.8426 35.5781 55.9437 35.6465 55.9998Z" fill="#232124"/>
<path fill-rule="evenodd" clip-rule="evenodd" d="M72.8752 50.8567C73.7082 51.6854 77.8452 53.579 79.0147 54.133C80.8654 55.0097 83.8399 57.3332 85.204 59.0004C87.9792 62.3925 88.3759 67.0578 89.5391 71.1291C91.3255 77.3816 94.1292 83.3243 95.4779 89.7309C95.8119 91.3173 96.3158 94.0588 96.2708 96.4945C96.2414 98.0872 95.9824 99.549 95.2667 100.451C95.2117 100.52 95.2233 100.621 95.2925 100.676C95.3619 100.731 95.4628 100.719 95.5177 100.65C96.2693 99.7031 96.5603 98.1729 96.5913 96.5005C96.6367 94.0388 96.129 91.2682 95.7915 89.6649C94.4413 83.2508 91.6358 77.3008 89.8472 71.0411C88.6724 66.9291 88.2549 62.2232 85.4521 58.7975C84.0635 57.1004 81.0358 54.7356 79.1519 53.8433C78.0005 53.2978 73.9213 51.4453 73.1013 50.6295C73.0386 50.567 72.9371 50.5673 72.8747 50.63C72.8124 50.6927 72.8126 50.7943 72.8752 50.8567Z" fill="#232124"/>
<path fill-rule="evenodd" clip-rule="evenodd" d="M82.8366 57.1994C82.2429 58.8892 81.8296 61.0351 81.5917 62.8186C81.5802 62.9064 81.6417 62.9869 81.7295 62.9986C81.8172 63.0103 81.8978 62.9486 81.9095 62.861C82.1447 61.0979 82.5522 58.9761 83.1391 57.3056C83.1683 57.2222 83.1244 57.1307 83.041 57.1013C82.9575 57.072 82.8659 57.1159 82.8366 57.1994Z" fill="#232124"/>
<path fill-rule="evenodd" clip-rule="evenodd" d="M77.9416 82.9557C78.3189 82.4657 78.849 82.0931 79.2576 81.6261C80.6992 79.9785 82.3435 78.5202 83.8388 76.9253C84.5492 76.1674 85.9584 74.5622 86.9739 74.156C87.4387 73.9701 87.7862 74.4867 87.5659 74.8906C87.0689 75.8017 86.0613 76.5982 85.2963 77.2715C84.5364 77.9402 83.7196 78.5594 82.9462 79.2138C81.6401 80.319 80.2778 81.4253 79.0717 82.6314C79.0091 82.6939 79.0091 82.7956 79.0717 82.858C79.1342 82.9206 79.2359 82.9206 79.2983 82.858C80.4983 81.6582 81.8538 80.558 83.1533 79.4585C83.9282 78.8027 84.7465 78.1822 85.508 77.5121C86.2988 76.8162 87.3334 75.986 87.8472 75.0442C88.2084 74.3819 87.6165 73.5538 86.8548 73.8584C85.806 74.278 84.3388 75.9233 83.6049 76.7061C82.1071 78.3037 80.4604 79.7648 79.0164 81.415C78.6034 81.887 78.0691 82.2649 77.6876 82.7602C77.6336 82.8303 77.6467 82.9311 77.7168 82.985C77.7869 83.0389 77.8875 83.0258 77.9416 82.9557Z" fill="#232124"/>
<path fill-rule="evenodd" clip-rule="evenodd" d="M84.8828 75.8923C85.2094 76.1899 85.4869 76.4928 85.6626 76.9028C85.6974 76.9841 85.7917 77.0219 85.8731 76.9871C85.9544 76.9522 85.9921 76.8579 85.9572 76.7766C85.7628 76.3228 85.46 75.9846 85.0987 75.6554C85.0334 75.5957 84.9319 75.6004 84.8724 75.6658C84.8128 75.7312 84.8174 75.8326 84.8828 75.8923Z" fill="#232124"/>
<path fill-rule="evenodd" clip-rule="evenodd" d="M83.9206 76.8043C83.9472 76.9286 84.0394 77.0832 84.1628 77.2314C84.3299 77.4321 84.5506 77.6249 84.689 77.7172C84.7626 77.7663 84.8622 77.7463 84.9113 77.6728C84.9603 77.5991 84.9404 77.4995 84.8668 77.4505C84.7462 77.3701 84.5547 77.201 84.4091 77.0263C84.3242 76.9243 84.2523 76.8228 84.2339 76.7372C84.2155 76.6506 84.1301 76.5954 84.0437 76.614C83.9572 76.6326 83.902 76.7178 83.9206 76.8043Z" fill="#232124"/>
<path fill-rule="evenodd" clip-rule="evenodd" d="M80.6449 66.3456C80.6881 68.1906 80.5738 70.0654 80.7052 71.9063C80.7116 71.9946 80.7883 72.0611 80.8764 72.0548C80.9647 72.0484 81.0313 71.9717 81.0249 71.8835C80.8939 70.0478 81.0084 68.178 80.9652 66.3381C80.9632 66.2497 80.8898 66.1796 80.8014 66.1816C80.7128 66.1838 80.6427 66.2572 80.6449 66.3456Z" fill="#232124"/>
<path fill-rule="evenodd" clip-rule="evenodd" d="M80.6907 77.1579C80.6279 77.8512 80.6725 78.5548 80.5862 79.2443C80.5753 79.3321 80.6376 79.4122 80.7254 79.4232C80.8132 79.4341 80.8933 79.3718 80.9043 79.284C80.9909 78.591 80.9468 77.8836 81.0099 77.1869C81.0179 77.0987 80.9529 77.0207 80.8647 77.0127C80.7767 77.0048 80.6987 77.0699 80.6907 77.1579Z" fill="#232124"/>
<path fill-rule="evenodd" clip-rule="evenodd" d="M42.0598 109.379C43.6493 108.963 45.0949 107.046 45.6767 105.591C45.7096 105.509 45.6696 105.416 45.5874 105.383C45.5054 105.35 45.412 105.39 45.3792 105.472C44.8292 106.847 43.4807 108.675 41.9785 109.069C41.8929 109.092 41.8418 109.179 41.8641 109.265C41.8865 109.351 41.9743 109.402 42.0598 109.379Z" fill="#232124"/>
<path fill-rule="evenodd" clip-rule="evenodd" d="M47.1207 93.9261C46.6429 93.9052 46.1239 94.1762 45.6375 94.5765C44.9487 95.1433 44.3188 95.9619 43.956 96.4502C42.1207 98.9208 41.0371 102.204 41.0371 105.267C41.0371 105.819 41.0332 106.443 41.1318 107.035C41.2344 107.651 41.448 108.233 41.8776 108.678C41.9391 108.741 42.0406 108.743 42.1042 108.682C42.1678 108.62 42.1696 108.518 42.108 108.455C41.7238 108.057 41.5397 107.534 41.448 106.982C41.3523 106.408 41.3576 105.802 41.3576 105.267C41.3576 102.271 42.4178 99.0583 44.2132 96.6414C44.5649 96.1681 45.1737 95.3732 45.8412 94.8241C46.259 94.4802 46.6963 94.2284 47.1067 94.2463C47.195 94.2502 47.27 94.1816 47.2738 94.0932C47.2776 94.0047 47.209 93.9299 47.1207 93.9261Z" fill="#232124"/>
<path fill-rule="evenodd" clip-rule="evenodd" d="M34.4835 88.6588C38.0323 90.3778 41.9872 91.0668 45.4984 92.8875C46.1533 93.227 46.9307 93.3648 47.6174 93.6083C48.2526 93.8336 48.8085 94.1521 49.0754 94.8638C49.1064 94.9466 49.1989 94.9887 49.2817 94.9576C49.3646 94.9266 49.4066 94.8341 49.3755 94.7513C49.0712 93.9396 48.4488 93.5632 47.7245 93.3063C47.0513 93.0675 46.2879 92.9358 45.6459 92.603C42.1321 90.781 38.1746 90.0906 34.6232 88.3704C34.5436 88.3319 34.4477 88.3652 34.4091 88.4448C34.3706 88.5244 34.4039 88.6203 34.4835 88.6588Z" fill="#232124"/>
<path fill-rule="evenodd" clip-rule="evenodd" d="M37.0857 88.1898C36.9721 88.0695 36.9111 87.9045 36.877 87.7271C36.8198 87.429 36.8403 87.0959 36.8637 86.8378C36.8717 86.7498 36.8067 86.6716 36.7186 86.6638C36.6305 86.6557 36.5525 86.7208 36.5445 86.8088C36.5186 87.0929 36.4992 87.4596 36.5623 87.7877C36.6085 88.0276 36.6989 88.2471 36.8527 88.4099C36.9134 88.4742 37.0149 88.4771 37.0793 88.4164C37.1436 88.3556 37.1465 88.2541 37.0857 88.1898Z" fill="#232124"/>
<path fill-rule="evenodd" clip-rule="evenodd" d="M38.1849 88.8253C38.069 88.6705 38.0741 88.4167 38.1116 88.1442C38.1767 87.6722 38.3659 87.1474 38.4486 86.869C39.0408 84.8769 39.7006 82.8902 40.073 80.8418C40.0889 80.7547 40.031 80.6711 39.944 80.6554C39.857 80.6396 39.7735 80.6974 39.7576 80.7844C39.3873 82.8214 38.7303 84.7966 38.1414 86.7776C38.0556 87.0662 37.8616 87.611 37.794 88.1004C37.7433 88.469 37.7715 88.808 37.9282 89.0173C37.9812 89.0882 38.0817 89.1027 38.1525 89.0496C38.2234 88.9966 38.2378 88.8961 38.1849 88.8253Z" fill="#232124"/>
<path fill-rule="evenodd" clip-rule="evenodd" d="M55.8999 97.4703C56.5689 96.3364 57.0225 95.0924 57.5305 93.8855C57.8128 93.2145 58.2925 92.6439 58.6282 92.006C58.8948 91.4996 59.0347 90.8845 59.4511 90.4681C59.7201 90.1991 60.0997 90.1359 60.4918 90.117C60.9315 90.0959 61.3888 90.1333 61.7607 90.0714C64.336 89.6421 67.0033 89.4744 69.6174 89.4744C69.7058 89.4744 69.7777 89.4025 69.7777 89.3141C69.7777 89.2257 69.7058 89.1538 69.6174 89.1538C66.9857 89.1538 64.3006 89.323 61.7079 89.7552C61.3471 89.8153 60.9033 89.7763 60.4765 89.7968C60.002 89.8196 59.5499 89.916 59.2244 90.2413C58.7854 90.6805 58.6257 91.3226 58.3446 91.8567C58.0046 92.5027 57.521 93.0818 57.2351 93.7611C56.7327 94.9548 56.2855 96.1859 55.6238 97.3075C55.5789 97.3837 55.6042 97.4821 55.6804 97.527C55.7566 97.5719 55.855 97.5466 55.8999 97.4703Z" fill="#232124"/>
<path fill-rule="evenodd" clip-rule="evenodd" d="M69.8127 89.0574C69.615 89.2274 69.539 89.4176 69.4379 89.663C69.2071 90.2237 69.2333 90.5685 69.3798 90.7734C69.5304 90.984 69.8277 91.0738 70.2075 91.0842C70.6342 91.0958 71.1735 91.0195 71.6672 91.0195C73.3332 91.0195 75.5359 91.3715 77.1538 91.048C77.2536 91.028 77.3652 90.9597 77.4718 90.8489C77.6717 90.6409 77.8684 90.275 77.9662 89.9368C78.0258 89.7309 78.0477 89.5346 78.0214 89.3859C77.9977 89.2512 77.9359 89.1489 77.8419 89.0862C77.6297 88.9447 77.3157 88.8817 76.9736 88.8626C76.5081 88.8367 75.9881 88.8873 75.6483 88.8702C75.0185 88.8388 74.3788 88.8386 73.7484 88.8386C72.7791 88.8386 71.2548 88.6626 70.3237 88.9729C70.2398 89.0009 70.1943 89.0918 70.2223 89.1756C70.2503 89.2596 70.3412 89.305 70.4251 89.277C71.3284 88.9758 72.8078 89.1591 73.7484 89.1591C74.3735 89.1591 75.0078 89.1592 75.6324 89.1905C75.9716 89.2074 76.4908 89.1566 76.9557 89.1827C77.2338 89.1982 77.4917 89.2379 77.6641 89.3529C77.7022 89.3783 77.7078 89.4308 77.7114 89.4909C77.7172 89.5938 77.6959 89.718 77.6583 89.8477C77.5863 90.0966 77.4538 90.3639 77.3091 90.5476C77.2339 90.643 77.1625 90.7192 77.0909 90.7336C75.4917 91.0535 73.3141 90.699 71.6672 90.699C71.1764 90.699 70.6404 90.7753 70.2162 90.7638C70.0732 90.7599 69.9442 90.7462 69.837 90.7124C69.7536 90.686 69.6847 90.6486 69.6407 90.587C69.5956 90.5241 69.579 90.4387 69.5861 90.3272C69.595 90.1841 69.6432 90.0064 69.7343 89.7851C69.8142 89.5909 69.8652 89.4349 70.0216 89.3004C70.0887 89.2428 70.0964 89.1415 70.0387 89.0744C69.9811 89.0074 69.8798 88.9998 69.8127 89.0574Z" fill="#232124"/>
<path fill-rule="evenodd" clip-rule="evenodd" d="M72.2437 88.9448C72.1862 88.4986 72.4234 88.1695 72.7742 87.9405C73.3457 87.5675 74.2121 87.4488 74.76 87.5484C75.5037 87.6836 75.6812 88.2159 75.8315 88.817C75.8528 88.9028 75.94 88.955 76.0257 88.9336C76.1116 88.9121 76.1638 88.8251 76.1424 88.7392C75.9608 88.0131 75.7158 87.3964 74.8173 87.233C74.2051 87.1217 73.2376 87.2554 72.599 87.6722C72.143 87.9698 71.8509 88.4059 71.9257 88.9858C71.937 89.0736 72.0175 89.1357 72.1052 89.1243C72.193 89.113 72.255 89.0326 72.2437 88.9448Z" fill="#232124"/>
<path fill-rule="evenodd" clip-rule="evenodd" d="M78.1413 89.9149C80.0016 89.6587 82.0775 89.9578 83.9018 90.3227C84.1807 90.3785 84.5507 90.3841 84.8869 90.448C85.1708 90.5018 85.4338 90.5924 85.5558 90.8363C85.7056 91.1361 85.6245 91.6048 85.4479 92.1396C85.0013 93.4921 83.8888 95.2256 83.5104 95.8881C81.5492 99.3199 79.9743 102.928 78.2086 106.459C77.8182 107.24 77.576 108.086 77.1408 108.848C77.0969 108.925 77.1236 109.023 77.2003 109.067C77.2771 109.11 77.3751 109.084 77.419 109.007C77.8573 108.24 78.1022 107.389 78.4953 106.603C80.2584 103.076 81.8305 99.4738 83.7886 96.0471C84.1729 95.3746 85.2989 93.6132 85.7523 92.2401C85.9615 91.6065 86.0201 91.0484 85.8424 90.693C85.7065 90.4213 85.4565 90.2686 85.1576 90.1826C84.7726 90.0718 84.3026 90.076 83.9647 90.0084C82.1067 89.6368 79.9922 89.3364 78.0975 89.5973C78.01 89.6094 77.9486 89.6903 77.9606 89.778C77.9727 89.8655 78.0536 89.927 78.1413 89.9149Z" fill="#232124"/>
<path fill-rule="evenodd" clip-rule="evenodd" d="M46.1525 95.1009C49.4953 96.0439 52.821 95.6391 56.2321 95.6391C56.3207 95.6391 56.3924 95.5672 56.3924 95.4788C56.3924 95.3905 56.3207 95.3185 56.2321 95.3185C52.8506 95.3185 49.5535 95.7272 46.2395 94.7924C46.1544 94.7683 46.0657 94.818 46.0417 94.9032C46.0177 94.9883 46.0674 95.0769 46.1525 95.1009Z" fill="#232124"/>
<path fill-rule="evenodd" clip-rule="evenodd" d="M54.5646 97.5214C57.0104 98.3292 59.78 98.6347 62.3492 98.6347C62.7641 98.6347 64.0133 98.4338 64.8672 98.4754C65.0698 98.4853 65.2487 98.5083 65.3838 98.5548C65.4509 98.5777 65.5056 98.6041 65.5396 98.6429C65.6902 98.8152 65.7506 98.9659 65.731 99.1045C65.7113 99.2433 65.6151 99.3616 65.4856 99.4684C65.0136 99.8576 64.1058 100.071 63.765 100.147C61.2292 100.71 58.2072 100.728 55.6591 100.303C55.572 100.288 55.4893 100.347 55.4748 100.435C55.4602 100.522 55.5192 100.604 55.6065 100.619C58.193 101.05 61.2605 101.032 63.8346 100.46C64.2029 100.378 65.1795 100.136 65.6895 99.7157C65.8873 99.5526 66.0182 99.3616 66.0483 99.1495C66.0785 98.9372 66.0117 98.6958 65.7808 98.4319C65.7155 98.3573 65.6165 98.2957 65.4879 98.2515C65.3295 98.1971 65.1203 98.1667 64.8827 98.1553C64.0238 98.1134 62.7666 98.3142 62.3492 98.3142C59.8132 98.3142 57.0792 98.0144 54.6652 97.2171C54.5812 97.1894 54.4904 97.235 54.4627 97.319C54.435 97.403 54.4806 97.4937 54.5646 97.5214Z" fill="#232124"/>
<path fill-rule="evenodd" clip-rule="evenodd" d="M55.4362 102.178C57.8501 102.737 60.2012 102.651 62.6603 102.227C63.1986 102.134 64.4456 101.711 65.2709 101.213C65.6487 100.985 65.9383 100.736 66.0559 100.501C66.0954 100.422 66.0632 100.326 65.9841 100.286C65.9051 100.246 65.8087 100.278 65.7691 100.358C65.6713 100.553 65.4199 100.749 65.1052 100.938C64.3149 101.415 63.1214 101.822 62.6059 101.911C60.1898 102.328 57.88 102.415 55.5084 101.866C55.4222 101.846 55.336 101.9 55.3162 101.986C55.2962 102.072 55.35 102.158 55.4362 102.178Z" fill="#232124"/>
<path fill-rule="evenodd" clip-rule="evenodd" d="M55.3877 104.3C55.7985 104.312 56.2149 104.386 56.6103 104.465C57.9074 104.724 60.7737 104.061 62.076 103.706C62.9587 103.465 63.7244 102.869 64.5335 102.465C64.6126 102.425 64.6448 102.329 64.6052 102.25C64.5657 102.171 64.4693 102.138 64.3902 102.178C63.5995 102.573 62.8542 103.161 61.9917 103.396C60.7239 103.742 57.9358 104.403 56.6732 104.151C56.2604 104.068 55.8257 103.992 55.3969 103.979C55.3085 103.977 55.2346 104.047 55.232 104.135C55.2295 104.223 55.2992 104.297 55.3877 104.3Z" fill="#232124"/>
<path fill-rule="evenodd" clip-rule="evenodd" d="M41.9775 104.437C46.2794 105.465 50.7714 105.977 55.197 105.824C58.9247 105.695 62.0337 105.418 64.7645 102.687C64.8271 102.624 64.8271 102.523 64.7645 102.46C64.7019 102.398 64.6004 102.398 64.5378 102.46C61.8705 105.128 58.827 105.378 55.1859 105.504C50.789 105.655 46.3261 105.146 42.0519 104.126C41.9659 104.105 41.8794 104.158 41.8589 104.244C41.8383 104.33 41.8915 104.417 41.9775 104.437Z" fill="#232124"/>
<path fill-rule="evenodd" clip-rule="evenodd" d="M52.6831 105.753C52.5521 106.408 52.2353 107.002 51.9201 107.599C51.5906 108.223 51.2628 108.85 51.1242 109.542C51.1069 109.629 51.1633 109.714 51.25 109.731C51.3367 109.748 51.4212 109.692 51.4386 109.605C51.571 108.943 51.8885 108.345 52.2036 107.749C52.5332 107.124 52.8603 106.501 52.9975 105.815C53.0148 105.729 52.9584 105.644 52.8717 105.627C52.785 105.609 52.7006 105.666 52.6831 105.753Z" fill="#232124"/>
<path fill-rule="evenodd" clip-rule="evenodd" d="M85.381 89.8361C84.9258 89.0412 84.3842 88.3553 84.0991 87.4592C83.9108 86.8674 83.8078 86.1289 83.6206 85.4335C83.4236 84.7015 83.132 84.0184 82.5807 83.5775C82.2679 83.3271 81.8624 83.1962 81.4272 83.1333C80.811 83.0443 80.1344 83.0913 79.6057 83.0913C77.9506 83.0913 75.6605 83.7966 73.94 84.9774C72.7765 85.7758 71.8753 86.7925 71.5863 87.948C71.565 88.0338 71.6171 88.1209 71.703 88.1424C71.7888 88.1639 71.8759 88.1116 71.8973 88.0257C72.1689 86.9393 73.0274 85.9924 74.1215 85.2416C75.7872 84.0983 78.0033 83.412 79.6057 83.412C80.1212 83.412 80.7807 83.3637 81.3814 83.4505C81.7575 83.5048 82.1101 83.6115 82.3805 83.8277C82.8802 84.2275 83.1325 84.8533 83.3111 85.5168C83.4996 86.2169 83.604 86.9606 83.7936 87.5564C84.086 88.4751 84.6362 89.1807 85.1029 89.9955C85.1469 90.0723 85.2449 90.0989 85.3216 90.055C85.3984 90.0109 85.425 89.913 85.381 89.8361Z" fill="#232124"/>
<path fill-rule="evenodd" clip-rule="evenodd" d="M77.8242 85.4686C77.3289 85.7869 76.6981 85.9907 76.0849 86.2236C75.439 86.4689 74.8129 86.7466 74.3624 87.1971C74.2998 87.2597 74.2998 87.3612 74.3624 87.4238C74.425 87.4863 74.5265 87.4863 74.589 87.4238C75.0091 87.0038 75.5966 86.7519 76.1986 86.5233C76.8335 86.2822 77.4849 86.0678 77.9975 85.7382C78.0719 85.6905 78.0935 85.5911 78.0457 85.5168C77.9979 85.4424 77.8986 85.4208 77.8242 85.4686Z" fill="#232124"/>
<path fill-rule="evenodd" clip-rule="evenodd" d="M78.3339 87.8284C77.6757 88.019 77.0189 88.3091 76.4226 88.6668C76.3467 88.7124 76.3221 88.8109 76.3675 88.8868C76.4131 88.9626 76.5117 88.9872 76.5875 88.9418C77.1603 88.598 77.7909 88.3194 78.4231 88.1362C78.5081 88.1116 78.5571 88.0227 78.5324 87.9377C78.5079 87.8527 78.4188 87.8037 78.3339 87.8284Z" fill="#232124"/>
<path fill-rule="evenodd" clip-rule="evenodd" d="M86.1591 89.6357C86.1612 89.6248 86.1623 89.6135 86.1621 89.6019C86.1607 89.5135 86.0877 89.4429 85.9993 89.4443C85.9347 89.4453 85.8899 89.4741 85.859 89.5198C85.8387 89.5497 85.8158 89.6106 85.8383 89.6956C85.8723 89.825 86.0616 90.1558 86.0955 90.2331C86.2324 90.546 86.349 90.832 86.3934 91.176C86.5593 92.4619 86.4331 93.8053 86.1975 95.0722C85.7621 97.4119 84.8125 99.8489 83.7864 101.994C83.6143 102.354 83.4269 102.609 83.2347 102.764C83.0705 102.896 82.9065 102.951 82.7512 102.924C82.5922 102.896 82.4485 102.785 82.3251 102.61C82.1838 102.409 82.0726 102.129 82.0025 101.778C81.9852 101.692 81.9007 101.635 81.8139 101.652C81.7272 101.67 81.6708 101.754 81.6882 101.841C81.7854 102.327 81.9588 102.695 82.1698 102.928C82.3271 103.103 82.507 103.206 82.6957 103.239C82.9316 103.281 83.1863 103.214 83.4357 103.013C83.6568 102.835 83.8777 102.547 84.0756 102.132C85.1134 99.9628 86.0723 97.4972 86.5126 95.1307C86.7544 93.8316 86.8815 92.4537 86.7114 91.1349C86.6629 90.7593 86.5386 90.4461 86.3891 90.1047C86.3623 90.0434 86.2025 89.7226 86.1591 89.6357ZM86.061 89.7535C86.046 89.7595 86.03 89.7633 86.0132 89.7644C86.0308 89.7633 86.0467 89.7596 86.061 89.7535Z" fill="#232124"/>
<path fill-rule="evenodd" clip-rule="evenodd" d="M81.9139 99.5896C82.9402 99.8333 83.8365 99.594 84.6079 98.8225C84.6705 98.7599 84.6705 98.6584 84.6079 98.5958C84.5454 98.5333 84.4439 98.5333 84.3813 98.5958C83.6959 99.2812 82.8997 99.4943 81.9879 99.2777C81.9018 99.2572 81.8154 99.3106 81.7949 99.3966C81.7744 99.4827 81.8277 99.5691 81.9139 99.5896Z" fill="#232124"/>
<path fill-rule="evenodd" clip-rule="evenodd" d="M80.74 102.603C80.6977 103.28 80.7016 104.419 81.0253 105.066C81.2998 105.615 81.8842 105.914 82.568 106.036C83.5414 106.209 84.7131 106.027 85.3659 105.794C85.4492 105.764 85.4927 105.672 85.4629 105.589C85.4332 105.506 85.3413 105.462 85.2581 105.492C84.6435 105.711 83.5406 105.883 82.6241 105.72C82.0479 105.617 81.5433 105.386 81.3121 104.923C81.01 104.319 81.0204 103.255 81.06 102.623C81.0655 102.535 80.9983 102.459 80.91 102.453C80.8217 102.448 80.7456 102.515 80.74 102.603Z" fill="#232124"/>
<path fill-rule="evenodd" clip-rule="evenodd" d="M85.0252 88.0541C85.5744 87.9915 86.4623 87.8349 87.2833 87.8192C87.8055 87.8093 88.2999 87.8538 88.6505 88.0292C89.1996 88.3037 89.626 88.7855 89.9651 89.3503C90.4901 90.2243 90.8051 91.2972 91.019 92.1526C92.0174 96.1467 91.0907 101.58 88.5388 104.897C88.4849 104.967 88.4981 105.068 88.5682 105.122C88.6383 105.176 88.7389 105.163 88.7929 105.092C91.3996 101.704 92.3499 96.1547 91.3299 92.0748C91.1093 91.1925 90.7814 90.0868 90.2399 89.1853C89.8682 88.5662 89.3957 88.0434 88.7939 87.7425C88.4045 87.5479 87.857 87.4877 87.2772 87.4988C86.4453 87.5147 85.5455 87.6723 84.9888 87.7357C84.901 87.7457 84.8378 87.8251 84.8477 87.913C84.8578 88.0009 84.9373 88.0642 85.0252 88.0541Z" fill="#232124"/>
<path fill-rule="evenodd" clip-rule="evenodd" d="M86.3479 105.945C88.896 105.803 91.028 104.762 92.9684 103.145C93.5301 102.677 94.7019 101.737 95.0103 101.12C95.0498 101.041 95.0178 100.945 94.9386 100.905C94.8595 100.866 94.7632 100.898 94.7236 100.977C94.4292 101.566 93.2994 102.452 92.7632 102.898C90.8772 104.47 88.8068 105.487 86.3301 105.625C86.2418 105.63 86.174 105.705 86.179 105.794C86.1839 105.882 86.2595 105.95 86.3479 105.945Z" fill="#232124"/>
<path fill-rule="evenodd" clip-rule="evenodd" d="M86.7855 87.283C87.1356 86.9631 87.5376 86.7479 87.9602 86.5367C88.0393 86.4971 88.0714 86.4008 88.0318 86.3217C87.9922 86.2425 87.8959 86.2105 87.8168 86.25C87.3675 86.4746 86.9416 86.7061 86.5692 87.0464C86.5039 87.106 86.4993 87.2075 86.559 87.2728C86.6187 87.3381 86.7201 87.3427 86.7855 87.283Z" fill="#232124"/>
<path fill-rule="evenodd" clip-rule="evenodd" d="M36.6076 106.541C36.0099 104.997 36.1651 102.904 36.7695 100.799C37.6816 97.6239 39.6216 94.4204 41.6183 93.0226C41.6907 92.9719 41.7083 92.8719 41.6576 92.7995C41.6069 92.727 41.5069 92.7093 41.4344 92.7601C39.3912 94.1903 37.3949 97.4615 36.4615 100.711C35.8356 102.89 35.6898 105.058 36.3087 106.657C36.3407 106.739 36.4335 106.78 36.516 106.748C36.5985 106.716 36.6395 106.623 36.6076 106.541Z" fill="#232124"/>
<mask id="mask0_5295_93961" style="mask-type:luminance" maskUnits="userSpaceOnUse" x="50" y="20" width="23" height="30">
<path d="M58.833 20.3224C58.833 20.3224 58.587 20.1512 57.8538 21.4235C57.1207 22.6961 56.7872 23.3517 55.9469 24.106C55.1067 24.8602 53.7753 24.9636 53.7753 24.9636C53.7753 24.9636 53.6582 25.5265 53.6535 26.1402C53.6489 26.754 53.4342 29.2696 53.4342 29.2696C53.4342 29.2696 52.8693 26.8201 52.7781 26.6668C52.687 26.5135 51.4405 25.4363 50.7975 26.9893C50.1545 28.5424 50.1903 29.4477 50.7736 30.7986C51.3569 32.1495 52.1197 32.7849 52.7302 33.0083C53.3408 33.2316 53.4643 33.854 53.4643 33.854C53.4643 33.854 53.3858 34.863 53.6338 35.7906C53.8819 36.7183 54.2242 37.5477 54.2242 37.5477L54.0326 38.8978C54.0326 38.8978 53.553 41.0632 53.5258 41.2542C53.4985 41.445 53.2562 42.734 53.2562 42.734C53.2562 42.734 56.2843 49.7578 59.2874 49.6258C62.2904 49.494 65.1563 47.6472 65.2563 47.4359C65.3563 47.2246 65.8866 45.302 65.8866 45.302L66.6804 40.5312C66.6804 40.5312 67.9672 38.5169 68.3185 37.4313C68.6697 36.3456 68.8895 35.4313 68.8895 35.4313C68.8895 35.4313 69.7921 35.3641 70.0887 34.997C70.3854 34.6299 71.1987 33.635 71.6784 32.4811C72.1583 31.327 72.2826 30.094 72.2062 29.6882C72.1297 29.2825 71.6025 29.0045 71.3086 29.0505C71.0146 29.0966 70.2933 29.0277 70.2933 29.0277C70.2933 29.0277 66.5643 27.6232 66.0156 27.0337C65.4669 26.4443 63.0353 25.6994 62.2494 25.6715C61.4634 25.6435 59.6315 24.8706 59.2535 24.1346C58.8755 23.3987 58.6914 22.7681 58.6977 22.0968C58.704 21.4257 58.833 20.3224 58.833 20.3224Z" fill="#FFDDE3"/>
</mask>
<g mask="url(#mask0_5295_93961)">
<path fill-rule="evenodd" clip-rule="evenodd" d="M56.2016 32.1937C57.5894 32.1937 58.7163 33.1881 58.7163 34.4129C58.7163 35.6377 57.5894 36.6321 56.2016 36.6321C54.8137 36.6321 53.687 35.6377 53.687 34.4129C53.687 33.1881 54.8137 32.1937 56.2016 32.1937Z" fill="#FFDDE3"/>
</g>
<mask id="mask1_5295_93961" style="mask-type:luminance" maskUnits="userSpaceOnUse" x="50" y="20" width="23" height="30">
<path d="M58.833 20.3224C58.833 20.3224 58.587 20.1512 57.8538 21.4235C57.1207 22.6961 56.7872 23.3517 55.9469 24.106C55.1067 24.8602 53.7753 24.9636 53.7753 24.9636C53.7753 24.9636 53.6582 25.5265 53.6535 26.1402C53.6489 26.754 53.4342 29.2696 53.4342 29.2696C53.4342 29.2696 52.8693 26.8201 52.7781 26.6668C52.687 26.5135 51.4405 25.4363 50.7975 26.9893C50.1545 28.5424 50.1903 29.4477 50.7736 30.7986C51.3569 32.1495 52.1197 32.7849 52.7302 33.0083C53.3408 33.2316 53.4643 33.854 53.4643 33.854C53.4643 33.854 53.3858 34.863 53.6338 35.7906C53.8819 36.7183 54.2242 37.5477 54.2242 37.5477L54.0326 38.8978C54.0326 38.8978 53.553 41.0632 53.5258 41.2542C53.4985 41.445 53.2562 42.734 53.2562 42.734C53.2562 42.734 56.2843 49.7578 59.2874 49.6258C62.2904 49.494 65.1563 47.6472 65.2563 47.4359C65.3563 47.2246 65.8866 45.302 65.8866 45.302L66.6804 40.5312C66.6804 40.5312 67.9672 38.5169 68.3185 37.4313C68.6697 36.3456 68.8895 35.4313 68.8895 35.4313C68.8895 35.4313 69.7921 35.3641 70.0887 34.997C70.3854 34.6299 71.1987 33.635 71.6784 32.4811C72.1583 31.327 72.2826 30.094 72.2062 29.6882C72.1297 29.2825 71.6025 29.0045 71.3086 29.0505C71.0146 29.0966 70.2933 29.0277 70.2933 29.0277C70.2933 29.0277 66.5643 27.6232 66.0156 27.0337C65.4669 26.4443 63.0353 25.6994 62.2494 25.6715C61.4634 25.6435 59.6315 24.8706 59.2535 24.1346C58.8755 23.3987 58.6914 22.7681 58.6977 22.0968C58.704 21.4257 58.833 20.3224 58.833 20.3224Z" fill="#FFDDE3"/>
</mask>
<g mask="url(#mask1_5295_93961)">
<path fill-rule="evenodd" clip-rule="evenodd" d="M66.9502 34.2037C68.3381 34.2037 69.4648 35.1981 69.4648 36.4228C69.4648 37.6476 68.3381 38.642 66.9502 38.642C65.5623 38.642 64.4355 37.6476 64.4355 36.4228C64.4355 35.1981 65.5623 34.2037 66.9502 34.2037Z" fill="#FFDDE3"/>
</g>
</g>
<defs>
<clipPath id="clip0_5295_93961">
<rect width="73.6641" height="100" fill="white" transform="translate(23 10)"/>
</clipPath>
</defs>
</svg>
