<svg width="120" height="120" viewBox="0 0 120 120" fill="none" xmlns="http://www.w3.org/2000/svg">
<mask id="mask0_5295_93961" style="mask-type:luminance" maskUnits="userSpaceOnUse" x="23" y="21" width="73" height="78">
<path d="M23.5571 21.5385H95.4559V98.4615H23.5571V21.5385Z" fill="#FFFFFE" fill-opacity="0.7"/>
</mask>
<g mask="url(#mask0_5295_93961)">
<path fill-rule="evenodd" clip-rule="evenodd" d="M74.2966 98.4719C70.5451 98.4716 66.5639 97.5171 62.6373 95.5265C58.758 93.5597 54.5432 91.4773 50.4086 89.0744C55.2575 90.4824 60.641 91.3556 65.9668 91.3556C72.9994 91.3556 79.9274 89.8316 85.3685 86.0018C86.5409 87.4383 87.3723 88.4732 87.3723 88.4732L93.059 82.0543C93.059 84.3403 92.5177 86.6395 91.0385 89.1288C87.4407 95.1833 81.2624 98.4726 74.2966 98.4719ZM27.5889 49.4429C28.064 46.9831 28.6384 45.5001 28.6384 45.5001C28.6384 45.5001 32.2332 34.7957 45.5783 26.4718C50.9225 23.1385 56.9565 21.5385 62.7339 21.5385C71.3581 21.5385 79.4093 25.1053 83.7306 31.7957C82.4763 30.5041 81.1113 29.3193 79.6295 28.2611C76.704 26.172 73.2778 24.9766 69.9197 24.9766C66.6279 24.9766 63.4015 26.1258 60.7778 28.7083C59.6033 29.8644 58.5654 31.1487 57.4963 32.4039L54.7049 33.9707L53.7744 29.9824L53.7745 29.9829C53.5758 29.1043 52.8049 28.5754 52.0098 28.5754C52.0093 28.5754 52.0088 28.5754 52.0085 28.5754C52.0081 28.5754 52.0076 28.5754 52.0076 28.5754C51.5943 28.5754 51.1724 28.7186 50.8226 29.027C50.6498 29.1359 46.8141 31.5576 42.754 34.6314C42.7202 34.6571 42.686 34.6831 42.6519 34.7088H42.0875V34.8825H42.4239C40.452 36.3884 38.4494 38.0369 36.806 39.6404C35.0718 41.3339 33.7365 42.9728 33.2598 44.3606C33.2546 44.375 33.253 44.391 33.2561 44.407L33.306 44.6659C31.1361 45.927 29.1658 47.5206 27.5889 49.4429ZM39.6594 34.8825H40.8733V34.7088H39.6594V34.8825Z" fill="#FFFFFE" fill-opacity="0.7"/>
</g>
<mask id="mask1_5295_93961" style="mask-type:luminance" maskUnits="userSpaceOnUse" x="23" y="21" width="73" height="78">
<path d="M23.5571 21.5385H95.4559V98.4615H23.5571V21.5385Z" fill="#67BC93"/>
</mask>
<g mask="url(#mask1_5295_93961)">
<path fill-rule="evenodd" clip-rule="evenodd" d="M23.9845 64.9939C23.223 61.42 23.4328 57.6403 24.9897 53.7913C26.996 48.8319 31.3055 45.3081 36.1344 43.2518C43.152 40.2636 50.0408 40.2069 55.7449 34.3515C57.5042 32.5455 58.9809 30.4769 60.7779 28.7082C66.0783 23.491 73.8364 24.1244 79.6296 28.261C91.7147 36.8908 96.0613 53.9821 95.3892 68.1124C95.0877 74.4536 92.0603 80.3552 87.2685 84.5156C76.4314 93.9253 58.0299 92.3425 45.5828 87.4307C36.301 83.7682 26.1641 75.2235 23.9845 64.9939Z" fill="#1975DC"/>
</g>
<mask id="mask2_5295_93961" style="mask-type:luminance" maskUnits="userSpaceOnUse" x="23" y="21" width="73" height="78">
<path d="M23.5571 21.5385H95.4559V98.4615H23.5571V21.5385Z" fill="#C9E4D1"/>
</mask>
<g mask="url(#mask2_5295_93961)">
<path fill-rule="evenodd" clip-rule="evenodd" d="M65.9668 91.3555C58.7944 91.3555 51.5139 89.7711 45.5828 87.4307C43.1111 86.4554 40.5781 85.1336 38.1516 83.5261C38.0858 82.5915 38.0469 81.8286 38.0469 81.3262C38.0469 81.016 38.0616 80.805 38.0938 80.7142C38.3663 79.945 38.4053 79.3295 38.4053 79.0393C38.4053 78.9226 38.3989 78.8585 38.3989 78.8585C39.2247 78.7671 39.5943 77.6393 39.5943 77.6393L39.5092 76.879L40.627 82.6832C40.6294 82.6964 40.6349 82.7084 40.6426 82.7187C40.6999 82.8003 40.7932 82.8449 40.908 82.8745C41.0255 82.904 41.1714 82.9168 41.3466 82.9168C41.9126 82.9165 42.7899 82.78 43.9014 82.5429C47.7883 81.7126 54.5238 79.6409 60.2912 77.776C66.0582 75.9113 70.8548 74.2539 70.8552 74.2538C71.4163 74.0658 71.8454 73.6558 72.0717 73.1508C74.5919 75.1131 77.3838 77.0436 78.0271 77.5375C78.306 77.7511 78.8117 78.2732 79.4493 78.9797V79.9849H79.623V79.1732C80.9587 80.6671 82.798 82.8708 84.35 84.7581C84.7081 85.1938 85.0507 85.6126 85.3685 86.0018C79.9274 89.8316 72.9995 91.3555 65.9668 91.3555ZM79.4493 82.4382H79.623V81.2115H79.4493V82.4382ZM92.9967 77.1638C92.9851 77.1535 92.9734 77.1431 92.9616 77.1329L92.9602 77.1315C89.8774 74.4153 87.1806 71.3158 86.2739 68.4274C86.1636 68.0743 83.9092 59.3418 83.1593 57.703C82.7338 56.7735 82.2147 56.769 82.2041 56.769C82.2041 56.769 81.8072 56.5169 81.0872 55.2524C80.6839 54.5424 80.0855 54.3064 79.623 54.2388V54.2242H79.4979C79.4241 54.2176 79.355 54.215 79.2923 54.215C79.0797 54.215 78.9415 54.2445 78.9415 54.2445C78.9415 54.2445 77.9258 53.1714 75.8133 52.7128C75.2067 52.5801 74.3995 52.0096 73.6238 51.421C73.0867 51.0122 72.5644 50.5941 72.1358 50.3058V50.3045H72.1329C71.9578 50.1867 71.7994 50.0901 71.6607 50.0252C70.6888 49.5679 69.3519 49.2254 69.3519 49.2254C69.3519 49.2254 67.9097 47.9634 66.4762 44.7873C66.5716 44.5961 66.6881 44.414 66.8251 44.2447L68.4604 42.224C68.7581 41.8562 68.9165 41.4005 68.9165 40.9358C68.9165 40.7921 68.9014 40.6476 68.8704 40.5045L67.319 33.3051C67.1914 32.7128 66.6676 32.2899 66.0618 32.2899H63.0547C62.8315 32.2899 62.6098 32.3265 62.3984 32.3982L62.3934 32.4001L61.3326 32.8345C61.1504 32.6664 60.9104 32.5693 60.6655 32.569C60.5344 32.569 60.4014 32.5973 60.2765 32.6581L60.2767 32.6579L60.2605 32.6657L60.1492 32.2322C60.0406 31.8097 59.6627 31.5445 59.2638 31.5445C59.2636 31.5445 59.2635 31.5445 59.2633 31.5445C59.2631 31.5445 59.2631 31.5445 59.2629 31.5445C59.1127 31.5445 58.959 31.5823 58.8168 31.6626H58.817L57.4964 32.4038C58.5655 31.1487 59.6033 29.8644 60.7779 28.7082C63.4015 26.1257 66.628 24.9766 69.9198 24.9766C73.2779 24.9766 76.7041 26.1719 79.6296 28.261C90.918 36.3218 95.4547 51.7657 95.4559 65.2828C95.4559 66.2367 95.4335 67.181 95.3892 68.1124C95.2379 71.2951 94.3998 74.3672 92.9967 77.1638ZM79.4493 52.9974H79.623V51.7708H79.4493V52.9974ZM79.4493 50.5441H79.623V49.3173H79.4493V50.5441ZM79.4493 48.0907H79.623V46.864H79.4493V48.0907ZM79.4493 45.6374H79.623V44.4106H79.4493V45.6374ZM79.4493 43.1839H79.623V41.9571H79.4493V43.1839ZM79.4493 40.7305H79.623V39.5038H79.4493V40.7305ZM79.4493 38.2772H79.623V37.0505H79.4493V38.2772ZM76.0799 34.8824H77.294V34.7088H76.0799V34.8824ZM73.652 34.8824H74.8659V34.7088H73.652V34.8824ZM71.2239 34.8824H72.4378V34.7088H71.2239V34.8824ZM68.7958 34.8824H70.0099V34.7088H68.7958V34.8824ZM28.1843 74.1247C26.1705 71.3192 24.6764 68.2412 23.9845 64.9939C23.7056 63.6851 23.557 62.3487 23.5571 60.9913C23.5573 58.6424 24.0029 56.2308 24.9897 53.7913C26.5936 49.8265 29.6695 46.7793 33.306 44.6659L35.0842 53.9002C35.0038 54.0532 34.9232 54.1987 34.8435 54.3375L34.8437 54.3388C34.2739 55.3281 33.7475 55.9681 33.6523 56.4903C33.4493 57.6091 30.9805 60.4964 30.5144 61.9898C30.0497 63.483 29.897 68.5613 29.1657 70.5611C28.9906 71.0396 28.5844 72.0488 28.1843 74.1247Z" fill="#ECF5FF"/>
</g>
<path fill-rule="evenodd" clip-rule="evenodd" d="M78.5083 34.8825H79.1162V34.7088H78.5083V34.8825Z" fill="#132529"/>
<path fill-rule="evenodd" clip-rule="evenodd" d="M76.0801 34.8825H77.2943V34.7088H76.0801V34.8825ZM73.6522 34.8825H74.8662V34.7088H73.6522V34.8825ZM71.2241 34.8825H72.4381V34.7088H71.2241V34.8825ZM68.796 34.8825H70.0101V34.7088H68.796V34.8825ZM66.3681 34.8825H67.582V34.7088H66.3681V34.8825ZM63.94 34.8825H65.1541V34.7088H63.94V34.8825ZM61.512 34.8825H62.726V34.7088H61.512V34.8825ZM59.0839 34.8825H60.2981V34.7088H59.0839V34.8825ZM56.656 34.8825H57.87V34.7088H56.656V34.8825ZM54.2279 34.8825H55.4419V34.7088H54.2279V34.8825ZM51.7998 34.8825H53.014V34.7088H51.7998V34.8825ZM49.3719 34.8825H50.5859V34.7088H49.3719V34.8825ZM46.9438 34.8825H48.1578V34.7088H46.9438V34.8825ZM44.5159 34.8825H45.7298V34.7088H44.5159V34.8825ZM42.0878 34.8825H43.3017V34.7088H42.0878V34.8825ZM39.6597 34.8825H40.8736V34.7088H39.6597V34.8825Z" fill="#132529"/>
<path fill-rule="evenodd" clip-rule="evenodd" d="M37.8379 34.8825H38.4457V34.7088H37.8379V34.8825Z" fill="#132529"/>
<path fill-rule="evenodd" clip-rule="evenodd" d="M79.4492 84.2729H79.6229V83.665H79.4492V84.2729Z" fill="#132529"/>
<path fill-rule="evenodd" clip-rule="evenodd" d="M79.4492 82.4382H79.6229V81.2116H79.4492V82.4382ZM79.4492 79.985H79.6229V78.7581H79.4492V79.985ZM79.4492 77.5315H79.6229V76.3049H79.4492V77.5315ZM79.4492 75.078H79.6229V73.8514H79.4492V75.078ZM79.4492 72.6248H79.6229V71.3979H79.4492V72.6248ZM79.4492 70.1713H79.6229V68.9447H79.4492V70.1713ZM79.4492 67.7179H79.6229V66.4912H79.4492V67.7179ZM79.4492 65.2646H79.6229V64.0378H79.4492V65.2646ZM79.4492 62.8111H79.6229V61.5845H79.4492V62.8111ZM79.4492 60.3577H79.6229V59.131H79.4492V60.3577ZM79.4492 57.9044H79.6229V56.6776H79.4492V57.9044ZM79.4492 55.4509H79.6229V54.2243H79.4492V55.4509ZM79.4492 52.9975H79.6229V51.7708H79.4492V52.9975ZM79.4492 50.5442H79.6229V49.3174H79.4492V50.5442ZM79.4492 48.0907H79.6229V46.8641H79.4492V48.0907ZM79.4492 45.6374H79.6229V44.4106H79.4492V45.6374ZM79.4492 43.184H79.6229V41.9572H79.4492V43.184ZM79.4492 40.7305H79.6229V39.5039H79.4492V40.7305ZM79.4492 38.2772H79.6229V37.0506H79.4492V38.2772Z" fill="#132529"/>
<path fill-rule="evenodd" clip-rule="evenodd" d="M79.4492 35.8238H79.6229V35.2159H79.4492V35.8238Z" fill="#132529"/>
<path fill-rule="evenodd" clip-rule="evenodd" d="M79.9571 35.2162V35.1293H79.2025V34.4616H79.8702V35.2162H79.9571H80.0439V34.3747C80.0439 34.3518 80.0345 34.3294 80.0184 34.3133C80.0022 34.2971 79.9798 34.2879 79.9571 34.2879H79.1156C79.0927 34.2879 79.0703 34.2971 79.0542 34.3133C79.038 34.3294 79.0288 34.3518 79.0288 34.3747V35.2162C79.0288 35.2391 79.038 35.2615 79.0542 35.2777C79.0703 35.2938 79.0927 35.303 79.1156 35.303H79.9571C79.9798 35.303 80.0022 35.2938 80.0184 35.2777C80.0345 35.2615 80.0439 35.2391 80.0439 35.2162H79.9571Z" fill="#132529"/>
<path fill-rule="evenodd" clip-rule="evenodd" d="M86.5701 37.3127L86.6037 37.2326L80.4896 34.6642C80.4569 34.6505 80.4196 34.6578 80.3946 34.6828C80.3696 34.7078 80.3623 34.7453 80.376 34.7779L82.9444 40.892C82.9583 40.925 82.9915 40.9464 83.0274 40.9452C83.0632 40.944 83.095 40.9205 83.1066 40.8865L83.7711 38.9495L85.0377 40.2163C85.054 40.2324 85.0762 40.2416 85.0992 40.2416C85.1221 40.2416 85.1443 40.2324 85.1606 40.2163L85.9281 39.4488C85.9442 39.4327 85.9534 39.4103 85.9534 39.3874C85.9534 39.3646 85.9442 39.3422 85.9281 39.326L84.6613 38.0593L86.5983 37.3948C86.6323 37.3832 86.6558 37.3514 86.6569 37.3156C86.658 37.2797 86.6368 37.2465 86.6037 37.2326L86.5701 37.3127L86.542 37.2305L84.4732 37.9402C84.4451 37.9499 84.4236 37.9735 84.417 38.0027C84.4102 38.0318 84.4189 38.0626 84.4401 38.0836L85.7438 39.3874L85.0992 40.032L83.7954 38.7283C83.7744 38.7073 83.7436 38.6984 83.7145 38.7052C83.6853 38.7118 83.6617 38.7333 83.6519 38.7616L83.0163 40.6147L80.6184 34.9066L86.5365 37.3927L86.5701 37.3127Z" fill="#132529"/>
<path fill-rule="evenodd" clip-rule="evenodd" d="M74.7864 91.1967V91.1099H68.7527C68.5629 91.1101 68.3746 91.0326 68.2265 90.905C68.0783 90.7777 67.9722 90.6021 67.9422 90.4121L67.2702 86.1986C67.2643 86.1615 67.2616 86.1254 67.2616 86.0901C67.2617 85.9279 67.3215 85.7891 67.4215 85.6894C67.5219 85.5899 67.6633 85.5285 67.8349 85.5281H73.8685C74.0584 85.5279 74.2466 85.6056 74.3946 85.733C74.5427 85.8603 74.6489 86.0359 74.6789 86.2261L75.351 90.4394C75.3569 90.4765 75.3597 90.5126 75.3597 90.5477C75.3595 90.7099 75.2998 90.8487 75.1997 90.9486C75.0994 91.0482 74.958 91.1097 74.7864 91.1099V91.2836C75.0002 91.2838 75.189 91.2047 75.3222 91.0717C75.4559 90.939 75.5335 90.7532 75.5334 90.5477C75.5334 90.5033 75.5297 90.4579 75.5224 90.4121L74.8505 86.1986C74.8126 85.9628 74.6841 85.753 74.5078 85.6014C74.3316 85.4498 74.1056 85.3546 73.8685 85.3544H67.8349C67.6211 85.3543 67.4325 85.4333 67.2991 85.5663C67.1653 85.699 67.0877 85.8846 67.0879 86.0901C67.0879 86.1346 67.0915 86.1801 67.0988 86.2261L67.7706 90.4394C67.8085 90.6752 67.937 90.885 68.1132 91.0368C68.2895 91.1882 68.5155 91.2834 68.7527 91.2836H74.7864V91.1967Z" fill="#132529"/>
<path fill-rule="evenodd" clip-rule="evenodd" d="M74.7863 91.2836C75.2613 91.2836 75.6463 90.8985 75.6463 90.4235V85.6731C75.6463 85.2186 75.2931 84.8506 74.8476 84.8188L74.8415 84.9053L74.9225 84.8739L74.7347 84.3909H74.7346C74.6863 84.2669 74.567 84.1854 74.4341 84.1854H72.4612C72.3283 84.1854 72.209 84.2669 72.1609 84.3909L71.9966 84.8131H68.7526C68.374 84.8132 68.0526 85.0574 67.9378 85.3971C67.9223 85.4426 67.9466 85.492 67.9921 85.5072C68.0376 85.5227 68.0868 85.4982 68.1022 85.4529C68.1939 85.1821 68.4504 84.9866 68.7526 84.9867H72.056C72.092 84.9867 72.1241 84.9649 72.137 84.9313L72.3228 84.4537C72.3448 84.3966 72.3999 84.3591 72.4612 84.3591H74.4341C74.4956 84.3591 74.5505 84.3966 74.5729 84.4539L74.5727 84.4537L74.7606 84.9369C74.7726 84.968 74.8018 84.9895 74.8353 84.992C75.1915 85.0178 75.4728 85.3112 75.4727 85.6731V90.4235C75.4727 90.6134 75.3961 90.7844 75.2716 90.9089C75.1472 91.0333 74.9761 91.1099 74.7863 91.1099C74.7384 91.1099 74.6995 91.1488 74.6995 91.1967C74.6995 91.2446 74.7384 91.2836 74.7863 91.2836Z" fill="#132529"/>
<path fill-rule="evenodd" clip-rule="evenodd" d="M52.0935 91.1967V91.1099H46.0598C45.87 91.1101 45.6818 91.0326 45.5338 90.905C45.3856 90.7777 45.2795 90.6021 45.2495 90.4121L44.5774 86.1986C44.5715 86.1615 44.5687 86.1254 44.5687 86.0903C44.5689 85.9281 44.6286 85.7893 44.7286 85.6894C44.829 85.5899 44.9704 85.5285 45.142 85.5281H51.1757C51.3655 85.5279 51.5538 85.6056 51.7019 85.733C51.85 85.8603 51.956 86.0359 51.9862 86.2261L52.6581 90.4394C52.664 90.4765 52.6668 90.5126 52.6668 90.5477C52.6666 90.7099 52.6069 90.8487 52.5069 90.9486C52.4065 91.0482 52.2651 91.1097 52.0935 91.1099V91.2836C52.3073 91.2838 52.4961 91.2047 52.6293 91.0717C52.763 90.939 52.8407 90.7534 52.8405 90.5477C52.8405 90.5033 52.8368 90.4579 52.8295 90.4121L52.1576 86.1986C52.1199 85.9628 51.9914 85.753 51.8151 85.6014C51.6389 85.4498 51.4129 85.3546 51.1757 85.3544H45.142C44.9282 85.3543 44.7396 85.4333 44.6062 85.5663C44.4725 85.699 44.3948 85.8847 44.395 86.0903C44.395 86.1347 44.3987 86.1801 44.406 86.2261L45.0779 90.4394C45.1158 90.6752 45.2443 90.885 45.4205 91.0368C45.5968 91.1882 45.8226 91.2834 46.0598 91.2836H52.0935V91.1967Z" fill="#132529"/>
<path fill-rule="evenodd" clip-rule="evenodd" d="M52.0934 91.2836C52.5684 91.2836 52.9534 90.8985 52.9536 90.4235V85.6731C52.9534 85.2186 52.6003 84.8506 52.1548 84.8188L52.1488 84.9053L52.2297 84.8739L52.0416 84.3909H52.0418C51.9935 84.2669 51.8742 84.1854 51.7413 84.1854H49.7684C49.6356 84.1854 49.5163 84.2669 49.468 84.3909L49.3037 84.8131H46.0597C45.6812 84.8132 45.3598 85.0574 45.2448 85.3971C45.2295 85.4426 45.2538 85.492 45.2992 85.5072C45.3447 85.5227 45.394 85.4984 45.4093 85.4529C45.5011 85.182 45.7577 84.9866 46.0597 84.9867H49.3631C49.399 84.9867 49.4312 84.9649 49.444 84.9313L49.6298 84.4537V84.4539C49.6521 84.3966 49.7069 84.3591 49.7684 84.3591H51.7413C51.8026 84.3591 51.8577 84.3966 51.8797 84.4537H51.8799L52.0678 84.9369C52.08 84.9682 52.109 84.9895 52.1425 84.992C52.4985 85.0178 52.7799 85.3112 52.7799 85.6731V90.4235C52.7799 90.6134 52.7031 90.7844 52.5788 90.9089C52.4543 91.0331 52.2832 91.1099 52.0934 91.1099C52.0454 91.1099 52.0065 91.1488 52.0065 91.1967C52.0065 91.2446 52.0454 91.2836 52.0934 91.2836Z" fill="#132529"/>
<path fill-rule="evenodd" clip-rule="evenodd" d="M63.44 91.1967V91.1099H57.4063C57.2165 91.1101 57.0283 91.0324 56.8803 90.905C56.7322 90.7777 56.626 90.6021 56.596 90.4121L55.9241 86.1986C55.9182 86.1615 55.9154 86.1254 55.9154 86.0903C55.9155 85.9279 55.9751 85.7893 56.0752 85.6894C56.1755 85.5899 56.3169 85.5285 56.4885 85.5281H62.5222C62.712 85.5279 62.9003 85.6056 63.0484 85.733C63.1966 85.8603 63.3027 86.0359 63.3327 86.2261L64.0046 90.4394C64.0105 90.4765 64.0133 90.5128 64.0133 90.5479C64.0132 90.7101 63.9534 90.8489 63.8534 90.9486C63.753 91.0482 63.6116 91.1097 63.44 91.1099V91.2836C63.6538 91.2838 63.8424 91.2047 63.9758 91.0717C64.1095 90.939 64.1872 90.7534 64.187 90.5479C64.187 90.5034 64.1834 90.4581 64.1761 90.4121L63.5043 86.1986C63.4664 85.9628 63.3379 85.753 63.1616 85.6014C62.9854 85.4498 62.7594 85.3546 62.5222 85.3544H56.4885C56.2747 85.3543 56.0861 85.4333 55.9527 85.5663C55.8192 85.699 55.7414 85.8847 55.7417 86.0903C55.7417 86.1347 55.7452 86.1801 55.7525 86.2261L56.4246 90.4394C56.4623 90.6752 56.5908 90.885 56.7671 91.0368C56.9433 91.1882 57.1693 91.2834 57.4063 91.2836H63.44V91.1967Z" fill="#132529"/>
<path fill-rule="evenodd" clip-rule="evenodd" d="M63.44 91.2836C63.9149 91.2836 64.3 90.8985 64.3 90.4235V85.6731C64.3 85.2188 63.9469 84.8506 63.5014 84.8188L63.4954 84.9053L63.5763 84.8739L63.3882 84.3909H63.3884C63.3403 84.2669 63.2208 84.1854 63.0879 84.1854H61.115C60.9822 84.1854 60.8628 84.2669 60.8146 84.3909L60.6503 84.8131H57.4063C57.0278 84.8132 56.7065 85.0574 56.5916 85.3971C56.5761 85.4426 56.6004 85.492 56.6459 85.5072C56.6913 85.5227 56.7406 85.4984 56.756 85.4529C56.8477 85.182 57.1042 84.9866 57.4063 84.9867H60.7097C60.7456 84.9867 60.7777 84.9649 60.7906 84.9313L60.9764 84.4537V84.4539C60.9987 84.3966 61.0537 84.3591 61.115 84.3591H63.0879C63.1494 84.3591 63.2043 84.3966 63.2263 84.4537L63.4144 84.9369C63.4266 84.9682 63.4556 84.9895 63.4891 84.992C63.8451 85.0178 64.1265 85.3112 64.1263 85.6731V90.4235C64.1263 90.6134 64.0497 90.7844 63.9254 90.9089C63.8008 91.0331 63.6298 91.1099 63.44 91.1099C63.392 91.1099 63.3531 91.1488 63.3531 91.1967C63.3531 91.2446 63.392 91.2836 63.44 91.2836Z" fill="#132529"/>
<path fill-rule="evenodd" clip-rule="evenodd" d="M66.7578 44.1901L68.3931 42.1696C68.7661 41.7083 68.9106 41.1029 68.7856 40.523L67.2342 33.3235C67.1152 32.7712 66.6268 32.3768 66.0619 32.3768H63.0548C62.8411 32.3768 62.6287 32.4119 62.4262 32.4805L33.3413 44.3907L40.7123 82.667C41.7463 84.2201 70.8267 74.1718 70.8267 74.1718C71.7875 73.8507 72.3443 72.8495 72.1102 71.8641L66.1609 46.8142C65.9424 45.8943 66.1628 44.9251 66.7578 44.1901Z" fill="#1975DC"/>
<path fill-rule="evenodd" clip-rule="evenodd" d="M66.7576 44.1901L66.825 44.2448L68.4603 42.2241C68.7579 41.8563 68.9163 41.4005 68.9163 40.9358C68.9163 40.7922 68.9012 40.6477 68.8703 40.5046L67.3189 33.3052C67.1913 32.7128 66.6675 32.2899 66.0617 32.2899H63.0546C62.8314 32.2899 62.6096 32.3266 62.3983 32.3983L62.3932 32.4002L33.3083 44.3102C33.2699 44.3259 33.248 44.3663 33.256 44.407L40.6268 82.6833L40.6398 82.7151C40.697 82.799 40.7911 82.8446 40.9078 82.8745C41.0254 82.904 41.1713 82.9169 41.3465 82.9169C41.9125 82.9169 42.7897 82.78 43.9012 82.543C47.7882 81.7126 54.5237 79.6409 60.2911 77.776C66.0581 75.9113 70.8547 74.254 70.855 74.2538L70.8266 74.1718L70.8542 74.2541C71.7031 73.9702 72.2501 73.1781 72.2501 72.3172C72.2501 72.1607 72.2321 72.0022 72.1946 71.8439L66.2453 46.7943C66.1914 46.5674 66.165 46.3379 66.165 46.1095C66.165 45.4374 66.3936 44.7778 66.825 44.2448L66.7576 44.1901L66.69 44.1355C66.2333 44.6996 65.9914 45.3981 65.9914 46.1095C65.9914 46.3512 66.0193 46.5944 66.0763 46.8344L72.0256 71.8841C72.06 72.0291 72.0765 72.1741 72.0765 72.3172C72.0765 73.1046 71.5759 73.8299 70.7991 74.0893L70.7982 74.0897C70.7979 74.0899 70.7005 74.1235 70.5159 74.1869C69.1317 74.6623 62.8694 76.8024 56.4356 78.8234C53.2189 79.8339 49.9592 80.8146 47.246 81.5423C45.8894 81.9061 44.6694 82.2067 43.6603 82.4162C42.6518 82.6256 41.8524 82.7436 41.3465 82.7432C41.1801 82.7434 41.0459 82.7304 40.9502 82.706C40.8535 82.6823 40.8014 82.6463 40.7843 82.6189L40.7121 82.667L40.7974 82.6505L33.4399 44.444L62.4591 32.5608L62.4261 32.4804L62.454 32.5628C62.6475 32.4971 62.8505 32.4636 63.0546 32.4636H66.0617C66.5857 32.4636 67.0388 32.8293 67.1491 33.3417L68.7006 40.5412C68.7288 40.6722 68.7427 40.8043 68.7427 40.9358C68.7427 41.3611 68.5976 41.7781 68.3253 42.1149L66.69 44.1355L66.7576 44.1901Z" fill="#132529"/>
<path fill-rule="evenodd" clip-rule="evenodd" d="M43.0622 81.3776C42.7434 81.3776 42.4896 81.3462 42.3101 81.2797C42.5971 81.0312 42.9129 80.7641 43.2524 80.4815L43.2593 80.5173C43.264 80.5418 43.2788 80.563 43.3002 80.5756C43.3137 80.5836 43.3292 80.5878 43.3446 80.5878C43.3533 80.5878 43.3622 80.5864 43.3708 80.5838L70.2147 72.0614C70.329 72.0253 70.4349 71.9753 70.531 71.9139C70.8571 72.1856 71.1991 72.4626 71.5501 72.741C69.4914 73.5034 48.11 81.3776 43.0622 81.3776ZM69.0179 61.146C68.8766 61.0048 68.7267 60.8047 68.5763 60.5723L68.3429 59.6578C68.3554 59.6739 68.3689 59.6903 68.3833 59.7066C68.4731 59.8064 68.6011 59.9101 68.7548 60.018L69.0179 61.146ZM63.8082 41.8855L61.6913 33.5919C62.2125 33.358 62.5035 33.2272 62.5035 33.2272L64.4269 41.4704C64.2962 41.5103 64.1631 41.5886 64.0265 41.6911C63.9466 41.7509 63.874 41.8162 63.8082 41.8855Z" fill="#1975DC"/>
<path fill-rule="evenodd" clip-rule="evenodd" d="M70.1888 71.9787L43.3449 80.501L36.3994 44.3075L60.3147 32.7361C60.7938 32.5029 61.3999 32.8004 61.5368 33.337L71.0085 70.4548C71.1789 71.1222 70.8265 71.7762 70.1888 71.9787Z" fill="#FFFFFE"/>
<mask id="mask3_5295_93961" style="mask-type:luminance" maskUnits="userSpaceOnUse" x="36" y="32" width="36" height="49">
<path d="M70.1888 71.9787L43.3449 80.501L36.3994 44.3075L60.3147 32.7361C60.7938 32.5029 61.3999 32.8004 61.5368 33.337L71.0085 70.4548C71.1789 71.1222 70.8265 71.7762 70.1888 71.9787Z" fill="#132529"/>
</mask>
<g mask="url(#mask3_5295_93961)">
<path fill-rule="evenodd" clip-rule="evenodd" d="M62.0311 35.2707L36.9651 46.7443L36.3994 44.3075L60.3147 32.7361C60.7938 32.5029 61.3999 32.8004 61.5368 33.337L62.0311 35.2707Z" fill="#132529"/>
</g>
<mask id="mask4_5295_93961" style="mask-type:luminance" maskUnits="userSpaceOnUse" x="36" y="32" width="36" height="49">
<path d="M70.1888 71.9787L43.3449 80.501L36.3994 44.3075L60.3147 32.7361C60.7938 32.5029 61.3999 32.8004 61.5368 33.337L71.0085 70.4548C71.1789 71.1222 70.8265 71.7762 70.1888 71.9787Z" fill="#67BC93"/>
</mask>
<g mask="url(#mask4_5295_93961)">
<path fill-rule="evenodd" clip-rule="evenodd" d="M60.7752 34.4219C60.7752 34.7721 60.5267 35.0387 60.22 35.0173C59.9132 34.9959 59.6646 34.6946 59.6646 34.3443C59.6646 33.9942 59.9132 33.7276 60.22 33.7491C60.5267 33.7705 60.7752 34.0718 60.7752 34.4219Z" fill="#1975DC"/>
</g>
<mask id="mask5_5295_93961" style="mask-type:luminance" maskUnits="userSpaceOnUse" x="36" y="32" width="36" height="49">
<path d="M70.1888 71.9787L43.3449 80.501L36.3994 44.3075L60.3147 32.7361C60.7938 32.5029 61.3999 32.8004 61.5368 33.337L71.0085 70.4548C71.1789 71.1222 70.8265 71.7762 70.1888 71.9787Z" fill="#132529"/>
</mask>
<g mask="url(#mask5_5295_93961)">
<path fill-rule="evenodd" clip-rule="evenodd" d="M60.7751 34.422H60.6883C60.6883 34.5708 60.6376 34.6992 60.5585 34.7893C60.479 34.8794 60.3734 34.9314 60.2544 34.9315L60.2259 34.9307C60.0997 34.922 59.9819 34.8551 59.8942 34.7488C59.8065 34.6427 59.7513 34.4989 59.7513 34.3444C59.7513 34.1957 59.8022 34.0672 59.8812 33.977C59.9608 33.8869 60.0663 33.835 60.1855 33.8348L60.2138 33.8358C60.3401 33.8445 60.4576 33.9112 60.5455 34.0175C60.6332 34.1236 60.6884 34.2676 60.6883 34.422H60.8619C60.8619 34.2263 60.7928 34.0446 60.6796 33.9071C60.5663 33.7697 60.4064 33.6752 60.2259 33.6625L60.1855 33.6611C60.0137 33.661 59.859 33.7388 59.7508 33.8626C59.6421 33.9864 59.5776 34.1561 59.5776 34.3444C59.5778 34.5401 59.6469 34.7219 59.7602 34.8595C59.8734 34.9967 60.0333 35.0913 60.2138 35.1038L60.2544 35.1054C60.426 35.1056 60.5808 35.0278 60.689 34.9039C60.7977 34.7801 60.8619 34.6102 60.8619 34.422H60.7751Z" fill="#132529"/>
</g>
<mask id="mask6_5295_93961" style="mask-type:luminance" maskUnits="userSpaceOnUse" x="36" y="32" width="36" height="49">
<path d="M70.1888 71.9787L43.3449 80.501L36.3994 44.3075L60.3147 32.7361C60.7938 32.5029 61.3999 32.8004 61.5368 33.337L71.0085 70.4548C71.1789 71.1222 70.8265 71.7762 70.1888 71.9787Z" fill="#67BC93"/>
</mask>
<g mask="url(#mask6_5295_93961)">
<path fill-rule="evenodd" clip-rule="evenodd" d="M59.3429 35.1306C59.3429 35.4557 59.1123 35.7032 58.8276 35.6832C58.5428 35.6632 58.312 35.3836 58.312 35.0587C58.312 34.7336 58.5428 34.4863 58.8276 34.5061C59.1123 34.526 59.3429 34.8056 59.3429 35.1306Z" fill="#1975DC"/>
</g>
<mask id="mask7_5295_93961" style="mask-type:luminance" maskUnits="userSpaceOnUse" x="36" y="32" width="36" height="49">
<path d="M70.1888 71.9787L43.3449 80.501L36.3994 44.3075L60.3147 32.7361C60.7938 32.5029 61.3999 32.8004 61.5368 33.337L71.0085 70.4548C71.1789 71.1222 70.8265 71.7762 70.1888 71.9787Z" fill="#132529"/>
</mask>
<g mask="url(#mask7_5295_93961)">
<path fill-rule="evenodd" clip-rule="evenodd" d="M59.3428 35.1305H59.256C59.256 35.2672 59.2095 35.3849 59.137 35.4674C59.0643 35.5499 58.9681 35.5971 58.8595 35.5975L58.8335 35.5965C58.7183 35.5885 58.6106 35.5275 58.5299 35.4301C58.4495 35.3326 58.3988 35.2005 58.3988 35.0586C58.3988 34.9219 58.4455 34.8042 58.5179 34.7217C58.5907 34.6392 58.6871 34.5919 58.7956 34.5918L58.8215 34.5926C58.9366 34.6006 59.0443 34.6616 59.1251 34.7592C59.2053 34.8564 59.2562 34.9888 59.256 35.1305H59.4297C59.4297 34.9474 59.3651 34.7774 59.259 34.6486C59.153 34.52 59.003 34.4313 58.8335 34.4193L58.7956 34.4181C58.6344 34.4179 58.4889 34.491 58.3873 34.607C58.2854 34.7234 58.2251 34.8823 58.2251 35.0586C58.2253 35.2418 58.2899 35.4118 58.396 35.5405C58.5019 35.669 58.652 35.7578 58.8215 35.7698L58.8595 35.7712C59.0207 35.7713 59.1662 35.6982 59.2676 35.582C59.3696 35.4657 59.4297 35.3068 59.4297 35.1305H59.3428Z" fill="#132529"/>
</g>
<mask id="mask8_5295_93961" style="mask-type:luminance" maskUnits="userSpaceOnUse" x="36" y="32" width="36" height="49">
<path d="M70.1888 71.9787L43.3449 80.501L36.3994 44.3075L60.3147 32.7361C60.7938 32.5029 61.3999 32.8004 61.5368 33.337L71.0085 70.4548C71.1789 71.1222 70.8265 71.7762 70.1888 71.9787Z" fill="#67BC93"/>
</mask>
<g mask="url(#mask8_5295_93961)">
<path fill-rule="evenodd" clip-rule="evenodd" d="M57.9901 35.7436C57.9901 36.0475 57.7744 36.279 57.508 36.2604C57.2418 36.2417 57.0259 35.9803 57.0259 35.6762C57.0259 35.3721 57.2418 35.1408 57.508 35.1592C57.7744 35.1779 57.9901 35.4395 57.9901 35.7436Z" fill="#1975DC"/>
</g>
<mask id="mask9_5295_93961" style="mask-type:luminance" maskUnits="userSpaceOnUse" x="36" y="32" width="36" height="49">
<path d="M70.1888 71.9787L43.3449 80.501L36.3994 44.3075L60.3147 32.7361C60.7938 32.5029 61.3999 32.8004 61.5368 33.337L71.0085 70.4548C71.1789 71.1222 70.8265 71.7762 70.1888 71.9787Z" fill="#132529"/>
</mask>
<g mask="url(#mask9_5295_93961)">
<path fill-rule="evenodd" clip-rule="evenodd" d="M57.9905 35.7436H57.9037C57.9037 35.87 57.8606 35.9789 57.7937 36.055C57.7267 36.131 57.6381 36.1745 57.5383 36.1746L57.5145 36.1738C57.4085 36.1665 57.309 36.1102 57.2345 36.0201C57.16 35.9301 57.113 35.8075 57.1131 35.6762C57.1131 35.5496 57.1564 35.4407 57.2231 35.3648C57.2903 35.2887 57.3787 35.2453 57.4785 35.2451L57.5023 35.2458C57.6084 35.2533 57.7078 35.3094 57.7825 35.3995C57.8568 35.4897 57.9039 35.6121 57.9037 35.7436H58.0773C58.0773 35.5708 58.0164 35.4105 57.9164 35.2891C57.8165 35.1679 57.6748 35.084 57.5145 35.0727L57.4785 35.0715C57.326 35.0711 57.1883 35.1404 57.0925 35.2502C56.9962 35.3599 56.9395 35.51 56.9395 35.6762C56.9396 35.8488 57.0004 36.0091 57.1004 36.1305C57.2005 36.2517 57.342 36.3356 57.5023 36.3471L57.5383 36.3483C57.6908 36.3485 57.8285 36.2792 57.9243 36.1694C58.0206 36.0597 58.0773 35.9096 58.0773 35.7436H57.9905Z" fill="#132529"/>
</g>
<mask id="mask10_5295_93961" style="mask-type:luminance" maskUnits="userSpaceOnUse" x="36" y="32" width="36" height="49">
<path d="M70.1888 71.9787L43.3449 80.501L36.3994 44.3075L60.3147 32.7361C60.7938 32.5029 61.3999 32.8004 61.5368 33.337L71.0085 70.4548C71.1789 71.1222 70.8265 71.7762 70.1888 71.9787Z" fill="#BABCB8"/>
</mask>
<g mask="url(#mask10_5295_93961)">
<path fill-rule="evenodd" clip-rule="evenodd" d="M43.4119 80.3886L43.4053 80.3549C43.4645 80.3059 43.5244 80.2564 43.585 80.2066L68.6323 70.3718C68.6746 70.3551 68.7158 70.3367 68.7557 70.3164C69.2028 70.7674 69.765 71.2705 70.3905 71.796C70.3198 71.8365 70.2438 71.87 70.1625 71.8959L43.4119 80.3886ZM68.2634 60.0466C67.7092 59.0508 67.2243 57.8554 67.2243 57.8554C67.228 57.7953 67.2297 57.7347 67.2297 57.6741C67.2297 57.6616 67.2297 57.6493 67.2295 57.637C67.315 57.7795 67.3987 57.9197 67.4793 58.0548C67.6665 58.3692 67.8362 58.658 67.9695 58.895L68.2634 60.0466ZM65.725 53.9843L64.1618 47.885C64.6205 49.0942 65.1425 50.1965 65.4921 51.059C65.6816 51.5275 65.9989 52.06 66.3573 52.5836C66.3266 52.6455 66.2955 52.7082 66.2644 52.7715C66.0953 53.1166 65.9261 53.48 65.7985 53.7953C65.7721 53.8606 65.7474 53.9237 65.725 53.9843ZM63.2207 44.2123L61.0447 35.7222L61.951 35.3075L63.6712 42.0491C63.1125 42.7999 63.184 43.887 63.2207 44.2123Z" fill="#BABCB8"/>
</g>
<mask id="mask11_5295_93961" style="mask-type:luminance" maskUnits="userSpaceOnUse" x="36" y="32" width="36" height="49">
<path d="M70.1888 71.9787L43.3449 80.501L36.3994 44.3075L60.3147 32.7361C60.7938 32.5029 61.3999 32.8004 61.5368 33.337L71.0085 70.4548C71.1789 71.1222 70.8265 71.7762 70.1888 71.9787Z" fill="#09171B"/>
</mask>
<g mask="url(#mask11_5295_93961)">
<path fill-rule="evenodd" clip-rule="evenodd" d="M61.0445 35.7222L60.7934 34.7422C60.8375 34.6469 60.8618 34.538 60.8618 34.422C60.8618 34.2262 60.7927 34.0446 60.6795 33.907C60.6406 33.8598 60.5961 33.8176 60.5471 33.7822L60.3047 32.8376L60.3524 32.8143H60.3526C60.453 32.7655 60.5591 32.7427 60.6656 32.7427C60.6659 32.7427 60.6664 32.7427 60.667 32.7427C61.0136 32.7427 61.3594 32.989 61.4527 33.3586L61.9468 35.2922L61.9507 35.3075L61.0445 35.7222Z" fill="#09171B"/>
</g>
<mask id="mask12_5295_93961" style="mask-type:luminance" maskUnits="userSpaceOnUse" x="36" y="32" width="36" height="49">
<path d="M70.1888 71.9787L43.3449 80.501L36.3994 44.3075L60.3147 32.7361C60.7938 32.5029 61.3999 32.8004 61.5368 33.337L71.0085 70.4548C71.1789 71.1222 70.8265 71.7762 70.1888 71.9787Z" fill="#09171B"/>
</mask>
<g mask="url(#mask12_5295_93961)">
<path fill-rule="evenodd" clip-rule="evenodd" d="M60.7936 34.7422L60.5474 33.7822C60.5963 33.8176 60.6408 33.8598 60.6797 33.907C60.7929 34.0446 60.8621 34.2262 60.8621 34.422C60.8621 34.538 60.8377 34.6469 60.7936 34.7422Z" fill="#09171B"/>
</g>
<path fill-rule="evenodd" clip-rule="evenodd" d="M70.1888 71.9787L70.1624 71.8958L43.4118 80.3885L36.4972 44.3566L60.3526 32.8142C60.453 32.7654 60.5592 32.7426 60.6657 32.7426C61.0129 32.7419 61.3594 32.9884 61.4528 33.3585L70.9245 70.4762C70.9516 70.5823 70.9644 70.6878 70.9644 70.7908C70.9637 71.2951 70.6558 71.7388 70.1624 71.8958L70.1888 71.9787L70.215 72.0613C70.7812 71.8821 71.1388 71.3665 71.1381 70.7908C71.1381 70.6734 71.1233 70.5533 71.0928 70.4333L61.6211 33.3154V33.3156C61.5049 32.8644 61.0926 32.5695 60.6657 32.569C60.5344 32.569 60.4016 32.5973 60.2767 32.6581L60.2769 32.6579L36.3616 44.2293C36.3262 44.2465 36.3067 44.2852 36.314 44.3239L43.2597 80.5172C43.2644 80.5417 43.2791 80.5629 43.3005 80.5756C43.3218 80.5878 43.3475 80.5912 43.3712 80.5837L70.215 72.0613L70.1888 71.9787Z" fill="#132529"/>
<path fill-rule="evenodd" clip-rule="evenodd" d="M68.6004 70.291L42.1189 80.6889L35.2671 44.9806L58.8597 31.7383C59.3324 31.4716 59.9302 31.7267 60.0653 32.2538L69.409 68.7097C69.5771 69.3653 69.2294 70.0438 68.6004 70.291Z" fill="#FFFFFE"/>
<path fill-rule="evenodd" clip-rule="evenodd" d="M68.6003 70.291L68.5685 70.2103L42.1845 80.5699L35.3641 45.0258L58.9019 31.8141L58.9021 31.8139C59.0183 31.7484 59.1418 31.7184 59.2633 31.7182C59.5867 31.7186 59.8934 31.9324 59.9811 32.2755L69.3248 68.7314C69.3516 68.8353 69.3642 68.9398 69.3642 69.0428C69.3642 69.5477 69.057 70.0183 68.5685 70.2103L68.632 70.3718C69.1883 70.1531 69.5379 69.618 69.5379 69.0428C69.5379 68.9254 69.5233 68.8065 69.4931 68.6882L60.1492 32.2323C60.0407 31.8094 59.6624 31.5446 59.2633 31.5446C59.1129 31.5446 58.9592 31.5822 58.8168 31.6627H58.817L35.2246 44.9049C35.1918 44.9233 35.1748 44.9602 35.1817 44.9971L42.0336 80.7052C42.0384 80.7306 42.0544 80.7525 42.077 80.765C42.0996 80.7775 42.1267 80.7792 42.1506 80.7696L68.632 70.3718L68.6003 70.291Z" fill="#132529"/>
<path fill-rule="evenodd" clip-rule="evenodd" d="M60.5528 34.1529L35.8253 47.3778L35.2671 44.9806L58.8597 31.7383C59.3324 31.4716 59.9302 31.7267 60.0653 32.2538L60.5528 34.1529Z" fill="#132529"/>
<path fill-rule="evenodd" clip-rule="evenodd" d="M59.314 33.3919C59.314 33.7422 59.0686 34.0261 58.766 34.0261C58.4635 34.0261 58.2183 33.7422 58.2183 33.3919C58.2183 33.0418 58.4635 32.7578 58.766 32.7578C59.0686 32.7578 59.314 33.0418 59.314 33.3919Z" fill="#1975DC"/>
<path fill-rule="evenodd" clip-rule="evenodd" d="M59.3139 33.3918H59.227C59.227 33.5467 59.1727 33.6853 59.0876 33.7834C59.0023 33.8819 58.8894 33.939 58.7659 33.9392C58.6425 33.939 58.5296 33.8819 58.4443 33.7834C58.3594 33.6853 58.3048 33.5467 58.305 33.3918C58.3048 33.2371 58.3594 33.0985 58.4443 33.0004C58.5296 32.9019 58.6425 32.8447 58.7659 32.8446C58.8894 32.8447 59.0023 32.9019 59.0876 33.0004C59.1727 33.0985 59.227 33.2371 59.227 33.3918H59.4007C59.4005 33.1964 59.3325 33.0181 59.2191 32.8868C59.1062 32.7557 58.945 32.6709 58.7659 32.6709C58.5869 32.6709 58.4257 32.7557 58.3128 32.8868C58.1996 33.0181 58.1313 33.1964 58.1313 33.3918C58.1313 33.5874 58.1996 33.7657 58.3128 33.897C58.4257 34.0281 58.5869 34.1129 58.7659 34.1129C58.945 34.1129 59.1062 34.0281 59.2191 33.897C59.3325 33.7657 59.4005 33.5874 59.4007 33.3918H59.3139Z" fill="#132529"/>
<path fill-rule="evenodd" clip-rule="evenodd" d="M57.9008 34.2006C57.9008 34.5257 57.6731 34.7892 57.3923 34.7892C57.1115 34.7892 56.8838 34.5257 56.8838 34.2006C56.8838 33.8755 57.1115 33.6121 57.3923 33.6121C57.6731 33.6121 57.9008 33.8755 57.9008 34.2006Z" fill="#1975DC"/>
<path fill-rule="evenodd" clip-rule="evenodd" d="M57.9007 34.2007H57.8139C57.8139 34.3429 57.7639 34.47 57.6861 34.56C57.6077 34.6501 57.5048 34.7024 57.3922 34.7024C57.2795 34.7024 57.1765 34.6501 57.0984 34.56C57.0206 34.47 56.9704 34.3429 56.9705 34.2007C56.9704 34.0584 57.0206 33.9313 57.0984 33.8414C57.1765 33.7512 57.2795 33.6991 57.3922 33.6989C57.5048 33.6991 57.6077 33.7512 57.6861 33.8414C57.7639 33.9313 57.8139 34.0584 57.8139 34.2007H57.9876C57.9874 34.0178 57.9237 33.8507 57.8174 33.7278C57.7116 33.6048 57.5603 33.5253 57.3922 33.5253C57.2239 33.5253 57.0727 33.6048 56.9669 33.7278C56.8606 33.8507 56.7969 34.0178 56.7969 34.2007C56.7969 34.3836 56.8606 34.5506 56.9669 34.6736C57.0727 34.7965 57.2239 34.8763 57.3922 34.8761C57.5603 34.8763 57.7116 34.7965 57.8174 34.6736C57.9237 34.5506 57.9874 34.3836 57.9876 34.2007H57.9007Z" fill="#132529"/>
<path fill-rule="evenodd" clip-rule="evenodd" d="M56.5666 34.908C56.5666 35.2121 56.3537 35.4586 56.0909 35.4586C55.8283 35.4586 55.6152 35.2121 55.6152 34.908C55.6152 34.6041 55.8283 34.3575 56.0909 34.3575C56.3537 34.3575 56.5666 34.6041 56.5666 34.908Z" fill="#1975DC"/>
<path fill-rule="evenodd" clip-rule="evenodd" d="M56.5665 34.908H56.4797C56.4797 35.0398 56.4333 35.1576 56.3616 35.2406C56.2892 35.3238 56.1945 35.3717 56.0908 35.3717C55.9873 35.3717 55.8925 35.3238 55.8203 35.2406C55.7484 35.1576 55.702 35.0398 55.702 34.908C55.702 34.7764 55.7484 34.6586 55.8203 34.5756C55.8925 34.4922 55.9873 34.4445 56.0908 34.4443C56.1945 34.4445 56.2892 34.4922 56.3616 34.5756C56.4333 34.6586 56.4797 34.7764 56.4797 34.908H56.6534C56.6534 34.7357 56.5933 34.5782 56.4929 34.462C56.393 34.346 56.2501 34.2706 56.0908 34.2706C55.9318 34.2706 55.7887 34.346 55.6888 34.462C55.5886 34.5782 55.5283 34.7357 55.5283 34.908C55.5283 35.0805 55.5886 35.238 55.6888 35.3542C55.7887 35.4702 55.9318 35.5456 56.0908 35.5454C56.2501 35.5456 56.393 35.4702 56.4929 35.3542C56.5933 35.238 56.6534 35.0805 56.6534 34.908H56.5665Z" fill="#132529"/>
<path fill-rule="evenodd" clip-rule="evenodd" d="M64.9259 53.2256C64.8556 53.1675 64.7906 53.1194 64.7326 53.0825C64.5171 52.9453 64.201 52.8823 63.8719 52.8823C63.775 52.8823 63.677 52.8877 63.5801 52.8985L59.2627 35.6293C59.2236 35.4726 59.2939 35.3094 59.4344 35.2302L60.0214 34.8995C60.0483 34.8844 60.0773 34.8773 60.1057 34.8773C60.181 34.8773 60.2524 34.9271 60.2729 35.007L64.9259 53.2256Z" fill="#BABCB8"/>
<path fill-rule="evenodd" clip-rule="evenodd" d="M59.6038 35.8897L60.0347 35.6517C60.2111 35.5543 60.4322 35.6507 60.481 35.8462L61.2777 39.0448C61.3176 39.2051 61.2433 39.372 61.0974 39.4494L60.572 39.7283C60.4446 39.7959 60.2874 39.7259 60.2523 39.5859L59.4288 36.2919C59.3892 36.1337 59.4611 35.9687 59.6038 35.8897Z" fill="#B0B2AE"/>
<path fill-rule="evenodd" clip-rule="evenodd" d="M59.6037 35.8896L59.6457 35.9656L60.0766 35.7277C60.1112 35.7086 60.147 35.7001 60.1826 35.7001C60.2797 35.7004 60.3713 35.7645 60.3967 35.8672L61.1933 39.0655C61.1989 39.0877 61.2015 39.1098 61.2015 39.1317C61.2015 39.2308 61.1471 39.3244 61.0565 39.3726L60.5311 39.6515C60.5103 39.6626 60.4891 39.6673 60.4681 39.6675C60.4083 39.6671 60.3521 39.6279 60.3364 39.5648L59.5129 36.2708C59.5073 36.2487 59.5047 36.2265 59.5047 36.2046C59.5047 36.107 59.5574 36.0144 59.6457 35.9656L59.6037 35.8896L59.5619 35.8137C59.417 35.8936 59.3311 36.0447 59.3311 36.2046C59.3311 36.2406 59.3354 36.2769 59.3444 36.3128L60.168 39.607C60.2041 39.7503 60.3321 39.8413 60.4681 39.8411C60.5165 39.8411 60.5666 39.8293 60.6126 39.8048L61.1379 39.5259C61.2862 39.4472 61.3752 39.2941 61.3752 39.1317C61.3752 39.0959 61.3708 39.0594 61.3618 39.0235L60.5652 35.8253C60.5193 35.6419 60.3557 35.5263 60.1826 35.5264C60.1187 35.5264 60.053 35.5422 59.9926 35.5758L59.5619 35.8137L59.6037 35.8896Z" fill="#132529"/>
<path fill-rule="evenodd" clip-rule="evenodd" d="M48.1548 76.5814C48.5006 76.3137 48.8502 76.0444 49.2015 75.7747L63.4311 69.9148C63.4528 69.906 63.4752 69.9018 63.4973 69.9018C63.5655 69.9018 63.6303 69.9423 63.6579 70.0093C63.6944 70.098 63.6522 70.1995 63.5634 70.2359L48.1548 76.5814Z" fill="#898C88"/>
<path fill-rule="evenodd" clip-rule="evenodd" d="M51.0498 74.3633C51.4277 74.076 51.8035 73.7914 52.1757 73.5098L65.736 67.7743C65.758 67.765 65.781 67.7604 65.8035 67.7604C65.8713 67.7604 65.9355 67.8004 65.9635 67.8665C66.001 67.9549 65.9597 68.0569 65.8713 68.0942L51.0498 74.3633Z" fill="#898C88"/>
<path fill-rule="evenodd" clip-rule="evenodd" d="M60.7944 60.0725L59.0625 52.6493L61.9262 51.2812L62.4522 53.5187C62.4453 53.5482 62.4416 53.5787 62.4416 53.61C62.4416 53.6925 62.4661 53.7811 62.5203 53.8749C62.5295 53.8907 62.5387 53.9075 62.5477 53.925L63.2148 56.763C63.339 57.5339 63.4448 58.2833 63.5297 58.7845L60.7944 60.0725Z" fill="#BABCB8"/>
<path fill-rule="evenodd" clip-rule="evenodd" d="M58.7756 51.4176L57.1162 44.3049L59.9375 42.8193L61.6334 50.0338L58.7756 51.4176Z" fill="#BABCB8"/>
<path fill-rule="evenodd" clip-rule="evenodd" d="M56.9694 43.6769L55.5889 37.7599L58.4015 36.2866L59.7872 42.1814L56.9694 43.6769Z" fill="#BABCB8"/>
<path fill-rule="evenodd" clip-rule="evenodd" d="M60.6855 68.509L60.4111 67.3351C61.2258 66.5525 61.6821 65.4721 61.6821 64.3518C61.6821 64.0489 61.6485 63.7431 61.5801 63.4395L61.5799 63.439L60.9752 60.8473L63.7263 59.6165C63.834 59.948 63.9837 60.3295 64.1588 60.778L65.4823 66.4082L60.6855 68.509Z" fill="#BABCB8"/>
<path fill-rule="evenodd" clip-rule="evenodd" d="M33.3413 44.3907L40.7123 82.667C43.0714 79.9723 59.9233 67.6302 59.9233 67.6302C61.2342 66.679 61.8526 65.0385 61.4955 63.4586L53.6899 30.002C53.4017 28.7274 51.8521 28.229 50.875 29.0968C50.875 29.0968 35.2039 38.9426 33.3413 44.3907Z" fill="#1975DC"/>
<path fill-rule="evenodd" clip-rule="evenodd" d="M33.3414 44.3907L33.2563 44.407L40.6271 82.6834C40.6334 82.716 40.6577 82.7421 40.6897 82.7507C40.7218 82.7594 40.7558 82.7492 40.7777 82.7242C41.3574 82.0613 42.854 80.7825 44.7638 79.2483C47.6297 76.9456 51.4328 74.0583 54.5191 71.7469C56.0622 70.5913 57.4262 69.5795 58.4043 68.8569C58.8934 68.4955 59.2861 68.2063 59.5565 68.0074C59.8267 67.8086 59.9743 67.7006 59.9748 67.7002L59.9745 67.7004C61.0615 66.9117 61.6824 65.6589 61.6824 64.3518C61.6824 64.0489 61.6488 63.7431 61.5804 63.4395L61.5802 63.439L53.7746 29.9824L53.7748 29.9829C53.5759 29.1038 52.8043 28.5748 52.0087 28.5755C51.5929 28.5755 51.1686 28.7198 50.8175 29.0319L50.8751 29.0969L50.8289 29.0232C50.8277 29.0241 46.9085 31.4864 42.7543 34.6314C40.6773 36.2042 38.5415 37.9473 36.8062 39.6405C35.0712 41.3348 33.7353 42.9744 33.2593 44.3626L33.2563 44.407L33.3414 44.3907L33.4238 44.4189C33.879 43.083 35.2004 41.4489 36.9276 39.7648C39.5181 37.2368 43.0177 34.5868 45.8685 32.5703C47.294 31.562 48.5575 30.7118 49.4644 30.1139C49.9179 29.8148 50.2822 29.579 50.5332 29.4178C50.7841 29.2566 50.921 29.1707 50.9213 29.1703L50.9328 29.1618C51.252 28.8786 51.6327 28.7493 52.0087 28.7492C52.7294 28.7497 53.4257 29.2256 53.6053 30.0211L53.6054 30.0218L61.4111 63.4784L61.4109 63.4777C61.4767 63.7686 61.5087 64.0616 61.5087 64.3518C61.5087 65.604 60.9139 66.8042 59.8724 67.5599L59.8722 67.5601C59.8718 67.5602 55.6587 70.646 51.1501 74.0689C48.8958 75.7804 46.5677 77.5762 44.6549 79.113C42.7416 80.6509 41.247 81.9253 40.6471 82.6097L40.7124 82.667L40.7977 82.6505L33.4269 44.3742L33.3414 44.3907Z" fill="#132529"/>
<path fill-rule="evenodd" clip-rule="evenodd" d="M60.1578 64.6531C59.935 64.6531 59.7329 64.5015 59.678 64.2755C59.545 63.7281 59.4147 63.1802 59.2865 62.6314C59.2244 62.3658 59.3895 62.1001 59.6552 62.0381C59.6929 62.0292 59.7308 62.0249 59.768 62.0249C59.992 62.0249 60.1955 62.1786 60.2487 62.4068C60.3763 62.9523 60.5061 63.4975 60.6382 64.0424C60.7027 64.3073 60.5401 64.5746 60.2747 64.639C60.2356 64.6486 60.1964 64.6531 60.1578 64.6531Z" fill="#ECF5FF"/>
<path fill-rule="evenodd" clip-rule="evenodd" d="M59.1486 60.2559C58.9232 60.2559 58.7194 60.1005 58.6673 59.8712L51.9067 30.1917C51.9049 30.1838 51.8995 30.1601 51.87 30.1482C51.8613 30.1448 51.8535 30.1436 51.8467 30.1436C51.8306 30.1436 51.8197 30.151 51.8153 30.1541C50.0796 31.3096 44.2054 35.2486 41.4836 37.4261C39.7502 38.8707 38.1609 40.5295 36.3377 42.7983C36.2403 42.9199 36.097 42.9829 35.9525 42.9829C35.8438 42.9831 35.7344 42.9473 35.6432 42.8738C35.4303 42.7031 35.3966 42.3921 35.5675 42.1793C37.4332 39.8572 39.0652 38.1552 40.8587 36.6607C43.5442 34.5121 49.0324 30.8197 51.2676 29.3315C51.4423 29.2153 51.6446 29.1559 51.8483 29.1559C51.9794 29.1559 52.1111 29.1805 52.2363 29.2304C52.5567 29.3584 52.7936 29.6356 52.8704 29.9721L59.6309 59.6519C59.6915 59.918 59.5249 60.1826 59.2587 60.2434C59.2221 60.2518 59.1851 60.2559 59.1486 60.2559Z" fill="#ECF5FF"/>
<path fill-rule="evenodd" clip-rule="evenodd" d="M39.4509 96.7868C39.2187 94.6881 38.904 91.7732 38.6311 88.9962C38.2345 84.9422 37.9257 81.1888 38.0938 80.7142C38.476 79.6353 38.3989 78.8585 38.3989 78.8585C39.2247 78.7671 39.5943 77.6393 39.5943 77.6393L39.1509 73.6768C39.1509 73.6768 39.4274 66.0902 39.0874 63.9351C38.7454 61.7788 37.3642 60.3354 37.3355 59.7611C37.3071 59.1885 38.4139 56.6666 38.7777 55.945C39.1416 55.2232 38.9323 51.1622 38.3448 49.8927C38.1733 49.524 37.9356 49.3142 37.682 49.2031C37.0636 48.9271 36.3581 49.2373 36.3581 49.2373C36.1971 51.6188 35.4946 53.2062 34.8435 54.3375L34.8437 54.3389C34.2739 55.3281 33.7475 55.9681 33.6523 56.4903C33.4493 57.6091 30.9806 60.4964 30.5144 61.9898C30.0497 63.483 29.897 68.5613 29.1657 70.5612C28.821 71.5035 27.5799 74.5037 27.2532 83.6548C27.0657 88.9127 26.2532 93.6808 25.5957 96.7868H39.4509Z" fill="#FFFFFE"/>
<path fill-rule="evenodd" clip-rule="evenodd" d="M37.675 49.2001C37.4869 49.1175 37.2909 49.0888 37.1094 49.0888C37.2909 49.0888 37.4868 49.1175 37.675 49.2001Z" fill="#1975DC"/>
<path fill-rule="evenodd" clip-rule="evenodd" d="M36.6673 93.8667C36.6673 93.8667 35.4257 82.1626 35.7133 80.2081C35.999 78.2519 36.7137 78.5723 36.1631 77.6369C35.6142 76.7027 32.2726 75.8907 32.5991 75.1864C32.6687 75.0364 32.8467 74.9773 33.084 74.9773C33.9386 74.9773 35.5609 75.7437 35.6453 75.7837C35.5569 75.7128 34.106 74.5506 34.117 74.0126C34.1189 73.9221 34.1824 73.8842 34.287 73.8842C34.8236 73.8842 36.4461 74.8785 36.4461 74.8785C36.4461 74.8785 37.4117 74.3049 38.1201 73.4926C38.8283 72.6802 37.7773 64.9049 37.5794 64.3448C37.3816 63.7847 36.1394 63.8636 35.7764 63.3962C35.4132 62.9289 36.3993 62.7199 36.2102 62.0068C36.0494 61.4007 35.6574 61.3552 35.5431 61.3552C35.5228 61.3552 35.5114 61.3566 35.5114 61.3566C35.5114 61.3566 36.3273 60.1644 36.2538 59.1242C36.1817 58.0824 37.5327 56.8302 37.4353 56.0796C37.2566 54.7045 36.7767 54.4223 36.2696 54.4223C36.093 54.4223 35.9132 54.4563 35.7416 54.4905C35.5701 54.5247 35.4066 54.5588 35.2632 54.5588C35.086 54.5588 34.9391 54.5068 34.8438 54.3389L34.8436 54.3375C35.4947 53.2062 36.1972 51.6189 36.3582 49.2373C36.3582 49.2373 36.6956 49.0888 37.1084 49.0888C37.1084 49.0888 37.109 49.0888 37.1093 49.0888H37.1097C37.2911 49.0888 37.4872 49.1175 37.6753 49.2001L37.6758 49.2003C37.6779 49.2012 37.68 49.202 37.6821 49.2031C37.9356 49.3142 38.1734 49.524 38.3448 49.8927C38.7345 50.7345 38.9577 52.8036 38.9579 54.3128C38.9579 55.0796 38.9004 55.7017 38.7778 55.945C38.4186 56.6576 37.3351 59.1248 37.3351 59.7383C37.3351 59.7463 37.3353 59.7538 37.3356 59.7611C37.3643 60.3354 38.7455 61.7788 39.0874 63.9351C39.2168 64.7559 39.2569 66.3646 39.2569 68.0419C39.2569 70.7686 39.151 73.6769 39.151 73.6769L39.5944 77.6393C39.5944 77.6393 39.2248 78.7672 38.399 78.8585C38.399 78.8585 38.4054 78.9226 38.4054 79.0393C38.4054 79.3295 38.3663 79.945 38.0939 80.7142C38.0617 80.805 38.047 81.016 38.047 81.3262C38.0473 82.6367 38.3104 85.7182 38.6312 88.9962C38.2172 87.2467 37.8768 85.8945 37.8768 85.8945C37.8768 85.8945 37.6944 88.0492 37.4622 89.7481C37.2302 91.4471 36.6673 93.8667 36.6673 93.8667Z" fill="#1975DC" fill-opacity="0.1"/>
<path fill-rule="evenodd" clip-rule="evenodd" d="M26.2432 93.8816C26.739 91.0287 27.2034 87.4723 27.3397 83.6578C27.5031 79.086 27.8948 76.0527 28.2881 74.0466C28.6818 72.0395 29.0749 71.0638 29.2477 70.5913C29.6193 69.5732 29.8385 67.8037 30.0269 66.0954C30.1207 65.242 30.2062 64.4049 30.2972 63.689C30.3878 62.9737 30.4849 62.3778 30.5981 62.0157C30.822 61.292 31.5537 60.1944 32.2544 59.1477C32.6047 58.6234 32.9476 58.11 33.2166 57.6555C33.4853 57.2001 33.6815 56.8076 33.7369 56.5055C33.7822 56.2493 33.9517 55.9402 34.1905 55.5586C34.9071 54.4117 36.218 52.61 36.4443 49.2425L36.3576 49.2368L36.3925 49.3162L36.4055 49.3109C36.4696 49.2847 36.7654 49.1748 37.1091 49.1751C37.3123 49.1753 37.5311 49.213 37.7329 49.3245C37.9345 49.4362 38.1221 49.621 38.2652 49.9292C38.4529 50.3328 38.6075 51.0583 38.7112 51.865C38.8152 52.6725 38.871 53.5649 38.871 54.3153C38.871 54.696 38.8566 55.0402 38.8274 55.3172C38.7989 55.5933 38.752 55.8054 38.7001 55.9061C38.5186 56.2665 38.1577 57.0612 37.8409 57.8462C37.6825 58.2387 37.5353 58.6282 37.4271 58.96C37.3192 59.2931 37.2491 59.5624 37.248 59.7387L37.2485 59.766C37.2593 59.941 37.3576 60.1409 37.4972 60.3947C37.9182 61.15 38.7489 62.3532 39.0009 63.9482C39.1289 64.7568 39.1699 66.3657 39.1697 68.0402C39.1697 69.4028 39.1431 70.8115 39.1165 71.8792C39.1032 72.4131 39.09 72.8618 39.0801 73.177C39.07 73.4923 39.0634 73.6734 39.0634 73.6739L39.0639 73.6868L39.5075 77.6486L39.5938 77.639L39.5111 77.6119L39.5075 77.623C39.4875 77.6805 39.3854 77.9548 39.1977 78.2196C39.1037 78.3519 38.9887 78.4817 38.854 78.5819C38.719 78.6821 38.5655 78.7528 38.3896 78.7722C38.3421 78.7774 38.3079 78.8198 38.3128 78.8672L38.3135 78.8771C38.3152 78.8988 38.3187 78.9549 38.3187 79.0411C38.3187 79.3238 38.2805 79.9284 38.0122 80.6845C37.9912 80.7453 37.98 80.8243 37.9717 80.9313C37.9637 81.0378 37.9601 81.1701 37.9601 81.3271C37.9602 82.4363 38.1459 84.7847 38.396 87.4511C38.6459 90.117 38.9602 93.0979 39.2178 95.4619C39.223 95.5096 39.2659 95.544 39.3135 95.5388C39.3612 95.5336 39.3956 95.4907 39.3904 95.4431C39.133 93.0796 38.8187 90.0992 38.5688 87.435C38.319 84.7714 38.1336 82.4207 38.1337 81.3271C38.1337 81.1729 38.1374 81.044 38.1449 80.9443C38.1521 80.845 38.1647 80.7727 38.1758 80.7425C38.4521 79.9636 38.4924 79.3394 38.4924 79.0411C38.4924 78.92 38.4858 78.8525 38.4856 78.8499L38.3991 78.8585L38.4087 78.9448C38.6343 78.9202 38.8279 78.8241 38.988 78.6979C39.4672 78.3177 39.6726 77.6724 39.6763 77.6659L39.6799 77.6293L39.2366 73.6673L39.1502 73.677L39.2371 73.6802C39.2371 73.6797 39.3434 70.7696 39.3434 68.0402C39.343 66.3611 39.3036 64.7542 39.1725 63.9211C38.9997 62.8281 38.5636 61.9186 38.1699 61.2125C37.9729 60.8596 37.7864 60.5572 37.649 60.3103C37.511 60.0645 37.4257 59.869 37.422 59.7573L37.4215 59.7387C37.4205 59.6076 37.4858 59.338 37.5922 59.0138C37.9107 58.0359 38.5882 56.5134 38.8552 55.9844C38.9259 55.8422 38.9691 55.622 39 55.3354C39.0302 55.0496 39.0446 54.7003 39.0446 54.3153C39.0446 53.5563 38.9886 52.6586 38.8833 51.8429C38.7775 51.0263 38.6254 50.2951 38.4229 49.8563C38.2671 49.5188 38.0511 49.3014 37.8168 49.1724C37.5827 49.0431 37.3333 49.0015 37.1091 49.0015C36.6749 49.0022 36.3289 49.155 36.3227 49.1572C36.293 49.1703 36.2732 49.1986 36.2709 49.2309C36.1207 51.4492 35.5 52.9679 34.8909 54.076C34.5862 54.63 34.284 55.081 34.0433 55.4666C33.8031 55.8526 33.6216 56.1717 33.566 56.4747C33.5207 56.7319 33.3326 57.1199 33.067 57.5671C32.6692 58.2396 32.0999 59.0541 31.5862 59.8408C31.0721 60.6288 30.6131 61.3856 30.4323 61.964C30.3126 62.3488 30.2164 62.9478 30.1249 63.6671C29.9879 64.7456 29.8639 66.0913 29.7056 67.3537C29.5478 68.6156 29.3541 69.7962 29.0846 70.5317C28.9127 71.0013 28.5127 71.997 28.1176 74.0133C27.7221 76.0305 27.3298 79.0727 27.1662 83.6515C27.0302 87.456 26.5669 91.0049 26.0721 93.8518C26.0639 93.899 26.0955 93.944 26.1428 93.9523C26.19 93.9605 26.235 93.9289 26.2432 93.8816Z" fill="#132529"/>
<path fill-rule="evenodd" clip-rule="evenodd" d="M37.2535 59.7323L37.249 59.7441C37.2255 59.8063 37.1067 60.1 36.9016 60.3718C36.7991 60.5079 36.6753 60.638 36.5339 60.7325C36.3922 60.8269 36.2349 60.8862 36.057 60.8863H36.0541C36.0062 60.8865 35.9674 60.9258 35.9678 60.9737C35.9681 61.0216 36.0072 61.0602 36.0551 61.06H36.057C36.2891 61.06 36.493 60.976 36.6628 60.8546C36.9181 60.672 37.1038 60.407 37.2286 60.1878C37.353 59.9685 37.4157 59.7941 37.4169 59.791C37.433 59.7458 37.4098 59.696 37.3646 59.6798C37.3195 59.6637 37.2696 59.6871 37.2535 59.7323Z" fill="#132529"/>
<path fill-rule="evenodd" clip-rule="evenodd" d="M36.9689 60.3202C36.9689 60.3202 36.9707 60.3303 36.9736 60.3517C36.9826 60.4161 37.0011 60.5743 37.0011 60.7862C37.0014 61.2886 36.8962 62.0854 36.3371 62.6598C36.3036 62.6941 36.3045 62.7492 36.3388 62.7825C36.3732 62.8159 36.4283 62.8152 36.4616 62.7808C37.0693 62.1532 37.1742 61.31 37.1747 60.7862C37.1747 60.4902 37.1407 60.294 37.14 60.2904C37.1318 60.2431 37.0868 60.2115 37.0396 60.2197C36.9924 60.228 36.9606 60.273 36.9689 60.3202Z" fill="#132529"/>
<path fill-rule="evenodd" clip-rule="evenodd" d="M33.9805 55.8503C33.9805 55.8503 33.9955 55.8474 34.0248 55.8427C34.1132 55.8283 34.3248 55.7993 34.5787 55.7993C34.9027 55.7988 35.2949 55.8483 35.5853 56.0242C35.6264 56.049 35.6797 56.0356 35.7046 55.9947C35.7292 55.9535 35.716 55.9002 35.6749 55.8755C35.3378 55.6734 34.9192 55.6261 34.5787 55.6256C34.2226 55.6258 33.9505 55.6794 33.947 55.68C33.9 55.6893 33.8694 55.735 33.8786 55.7821C33.8878 55.8292 33.9335 55.8597 33.9805 55.8503Z" fill="#132529"/>
<path fill-rule="evenodd" clip-rule="evenodd" d="M33.2254 75.5232C33.2254 75.5232 33.2771 75.5395 33.3688 75.569C33.6903 75.6723 34.5022 75.9386 35.2896 76.2361C35.6833 76.3847 36.071 76.5414 36.3869 76.6887C36.7021 76.8347 36.9489 76.9773 37.0456 77.0763C37.2995 77.3311 37.6226 77.7904 37.8779 78.1828C38.0058 78.3792 38.1175 78.5593 38.1972 78.6901C38.2768 78.821 38.3242 78.9023 38.3242 78.9023C38.3483 78.9436 38.4015 78.9577 38.443 78.9335C38.4843 78.9094 38.4984 78.8563 38.4742 78.8148C38.4737 78.8141 38.2818 78.4846 38.0234 78.0879C37.7643 77.6909 37.4412 77.2284 37.1688 76.9539C37.092 76.8773 36.9779 76.8014 36.8329 76.7198C36.327 76.4367 35.4419 76.0985 34.6787 75.8281C33.9161 75.5581 33.278 75.3578 33.2775 75.3575C33.2316 75.3432 33.183 75.3686 33.1686 75.4144C33.1542 75.4601 33.1797 75.5089 33.2254 75.5232Z" fill="#132529"/>
<path fill-rule="evenodd" clip-rule="evenodd" d="M35.7866 74.9853C36.041 75.2715 36.4398 75.5671 36.8403 75.855C37.2404 76.1423 37.6425 76.4215 37.8934 76.6584C38.1354 76.8852 38.328 77.271 38.454 77.5985C38.5174 77.7623 38.565 77.9115 38.5966 78.0195C38.6124 78.0733 38.6242 78.1171 38.6321 78.147C38.64 78.177 38.6437 78.1928 38.6437 78.1928C38.6546 78.2394 38.7015 78.2684 38.7481 78.2572C38.7948 78.2463 38.8238 78.1996 38.8127 78.1529C38.8122 78.1504 38.7472 77.875 38.6159 77.5358C38.4841 77.1968 38.2889 76.7937 38.0126 76.532C37.7449 76.2802 37.3406 76.0009 36.9415 75.714C36.5431 75.4281 36.1503 75.1343 35.9165 74.87C35.8847 74.8342 35.8297 74.8309 35.7939 74.8627C35.758 74.8944 35.7547 74.9493 35.7866 74.9853Z" fill="#132529"/>
<path fill-rule="evenodd" clip-rule="evenodd" d="M38.0766 74.7493C38.0897 74.7434 38.8806 74.3446 39.2852 73.1126C39.3001 73.0671 39.2753 73.018 39.2298 73.003C39.1841 72.9881 39.1352 73.0127 39.1202 73.0584C38.9266 73.6472 38.6435 74.0315 38.4101 74.2691C38.2934 74.3879 38.189 74.4698 38.1147 74.5218C38.0775 74.5476 38.048 74.5661 38.028 74.5777L38.0056 74.5904L38.0004 74.5932L37.9995 74.5937C37.9564 74.615 37.9389 74.6671 37.9603 74.71C37.9816 74.7529 38.0337 74.7705 38.0766 74.7493Z" fill="#132529"/>
<path fill-rule="evenodd" clip-rule="evenodd" d="M37.1007 79.0292C36.9587 79.1032 36.8635 79.2589 36.7817 79.4757C36.6606 79.8024 36.5769 80.282 36.5214 80.8887C36.4661 81.4951 36.4404 82.2272 36.4404 83.0511C36.4404 84.5891 36.5304 86.447 36.6891 88.3989C36.6929 88.4467 36.7348 88.4823 36.7826 88.4785C36.8305 88.4746 36.8661 88.4326 36.8621 88.3849C36.7039 86.4366 36.6141 84.5823 36.6141 83.0511C36.6139 81.9575 36.66 81.0281 36.7586 80.3503C36.8077 80.0115 36.8703 79.7355 36.9444 79.5361C37.0177 79.3357 37.1063 79.2183 37.1789 79.1843C37.2218 79.1627 37.239 79.1106 37.2174 79.0677C37.1959 79.0248 37.1436 79.0076 37.1007 79.0292Z" fill="#132529"/>
<path fill-rule="evenodd" clip-rule="evenodd" d="M37.4346 79.9735C37.4368 80.1024 37.4771 80.4058 37.5409 80.85C37.7317 82.1781 38.1341 84.7179 38.3484 86.9386C38.353 86.9862 38.3953 87.0213 38.4431 87.0166C38.4909 87.0121 38.5258 86.9695 38.5213 86.9219C38.378 85.4363 38.1512 83.8115 37.9593 82.5001C37.8634 81.8445 37.7762 81.2672 37.7126 80.8254C37.6492 80.3851 37.6093 80.0739 37.6083 79.9711C37.6076 79.9231 37.5681 79.8848 37.5202 79.8854C37.4721 79.8861 37.4339 79.9256 37.4346 79.9737" fill="#132529"/>
<path fill-rule="evenodd" clip-rule="evenodd" d="M67.0161 51.5063C67.0161 51.5063 65.655 53.9925 65.6681 54.5552C65.6811 55.1178 68.2684 59.0228 68.3423 59.465C68.4159 59.9072 70.2865 60.7637 70.9706 61.2155C71.6543 61.6675 72.5192 58.3834 72.4077 56.018C72.2959 53.6526 67.0161 51.5063 67.0161 51.5063Z" fill="#FFFFFE"/>
<mask id="mask13_5295_93961" style="mask-type:luminance" maskUnits="userSpaceOnUse" x="65" y="51" width="8" height="11">
<path d="M67.0161 51.5063C67.0161 51.5063 65.655 53.9925 65.6681 54.5552C65.6811 55.1178 68.2684 59.0228 68.3423 59.465C68.4159 59.9072 70.2865 60.7637 70.9706 61.2155C71.6543 61.6675 72.5192 58.3834 72.4077 56.018C72.2959 53.6526 67.0161 51.5063 67.0161 51.5063Z" fill="#ABD6BE"/>
</mask>
<g mask="url(#mask13_5295_93961)">
<path fill-rule="evenodd" clip-rule="evenodd" d="M69.38 60.2085C69.1351 60.0643 68.9103 59.9221 68.7401 59.7924C68.6448 59.72 68.5667 59.6512 68.5128 59.5907C68.4585 59.5308 68.4314 59.4787 68.4277 59.4508C68.4202 59.4087 68.4039 59.3651 68.3796 59.3087C68.2891 59.1006 68.0823 58.7359 67.8197 58.2896C67.634 57.9742 67.4208 57.6194 67.2035 57.2561C67.0712 56.1583 66.4505 55.0291 65.8296 54.2092C65.9543 53.8262 66.2169 53.2576 66.4699 52.7465C67.3721 54.0301 68.4704 55.2147 68.4704 55.2147C68.4704 55.2147 68.4493 55.3415 68.4597 55.5498C68.4635 55.6571 68.4751 55.7861 68.5012 55.931C68.1405 55.9455 67.9187 56.0456 67.9114 56.0489C67.8678 56.0687 67.8485 56.1201 67.8683 56.1639C67.8829 56.1958 67.9145 56.2147 67.9475 56.2147C67.9595 56.2147 67.9717 56.2121 67.9833 56.2069L67.9847 56.2062C68.0043 56.1977 68.2117 56.1118 68.5376 56.1036C68.5943 56.3351 68.6884 56.5966 68.8416 56.8686C69.1549 57.4258 69.3089 59.0706 69.38 60.2085Z" fill="#1975DC" fill-opacity="0.4"/>
</g>
<path fill-rule="evenodd" clip-rule="evenodd" d="M67.0159 51.5063L66.9397 51.4647C66.9393 51.4654 66.6019 52.0817 66.2639 52.7715C66.0948 53.1166 65.9256 53.4799 65.798 53.7953C65.7342 53.953 65.6806 54.0987 65.6425 54.2253C65.6047 54.3523 65.5814 54.4584 65.5811 54.547V54.5572C65.5826 54.6079 65.596 54.6613 65.6168 54.7253C65.6957 54.9626 65.8942 55.3457 66.1514 55.8045C66.5368 56.4912 67.0527 57.3394 67.4788 58.0548C67.6917 58.4124 67.882 58.7366 68.0218 58.9898C68.0916 59.1163 68.1488 59.225 68.1894 59.3103C68.2301 59.3942 68.2539 59.4596 68.2563 59.4793C68.2711 59.5619 68.3186 59.6333 68.3832 59.7066C68.4975 59.8337 68.6738 59.9671 68.886 60.1071C69.204 60.3167 69.6022 60.5383 69.9772 60.745C70.3518 60.9515 70.7037 61.1434 70.9225 61.2879C70.9772 61.3243 71.039 61.3447 71.1014 61.3445C71.2111 61.344 71.3089 61.2867 71.3957 61.2014C71.5481 61.0505 71.6853 60.8007 71.8153 60.4772C72.2023 59.5084 72.5036 57.8754 72.5041 56.447C72.5041 56.3 72.501 56.1554 72.4942 56.0138C72.4638 55.3896 72.0982 54.7969 71.5807 54.255C70.8028 53.4426 69.6717 52.7382 68.7335 52.2337C67.7954 51.7295 67.0505 51.4266 67.0486 51.4259C67.0078 51.4093 66.9609 51.4259 66.9397 51.4647L67.0159 51.5063L66.9833 51.5868C66.9833 51.5868 67.0032 51.5949 67.0415 51.6111C67.3291 51.7319 68.6325 52.2981 69.8723 53.1072C70.4921 53.5116 71.0958 53.977 71.5475 54.474C72.0001 54.9714 72.2968 55.4984 72.3207 56.0222C72.3273 56.1606 72.3304 56.3026 72.3304 56.447C72.3306 57.5162 72.1564 58.7139 71.9067 59.6387C71.782 60.1008 71.6378 60.4952 71.4906 60.7681C71.4171 60.9044 71.3428 61.0102 71.274 61.0774C71.2045 61.1456 71.1457 61.1713 71.1014 61.1708C71.0753 61.1705 71.0496 61.1635 71.0182 61.143C70.6682 60.912 70.031 60.5862 69.4708 60.2615C69.1912 60.0996 68.9312 59.9379 68.7401 59.7924C68.6448 59.72 68.5666 59.6512 68.5128 59.5908C68.4584 59.5308 68.4313 59.4787 68.4277 59.4508C68.4202 59.4087 68.4039 59.3652 68.3796 59.3087C68.2891 59.1007 68.0823 58.7359 67.8197 58.2896C67.4261 57.6213 66.9093 56.7757 66.4904 56.0489C66.2809 55.6856 66.0958 55.3516 65.9635 55.0861C65.8975 54.9534 65.8445 54.8375 65.8086 54.745C65.7723 54.6533 65.7546 54.5814 65.7547 54.5532V54.547C65.7542 54.4909 65.773 54.3936 65.8089 54.2754C65.934 53.8579 66.2558 53.1715 66.5453 52.5953C66.6899 52.3066 66.8268 52.0447 66.9274 51.8551C67.0279 51.6653 67.092 51.5484 67.0922 51.548L67.0159 51.5063Z" fill="#132529"/>
<path fill-rule="evenodd" clip-rule="evenodd" d="M67.9836 56.2068L67.985 56.2062C68.0056 56.1973 68.2335 56.1026 68.5887 56.1028C69.0935 56.1039 69.8568 56.2892 70.6743 57.1987C70.7064 57.2345 70.7613 57.2374 70.7969 57.2053C70.8327 57.1733 70.8356 57.1185 70.8037 57.0827C69.9593 56.14 69.1375 55.9279 68.5887 55.9291C68.1769 55.9291 67.9197 56.0452 67.9117 56.0488C67.8681 56.0686 67.8488 56.12 67.8686 56.1638C67.8886 56.2074 67.94 56.2266 67.9836 56.2068Z" fill="#132529"/>
<path fill-rule="evenodd" clip-rule="evenodd" d="M95.5392 79.2547L87.3724 88.4732C87.3724 88.4732 86.0294 86.8013 84.35 84.7582C81.9626 81.8547 78.8948 78.203 78.0272 77.5376C76.968 76.7241 70.0807 72.0145 68.1778 69.6832C67.9047 69.3481 67.6679 69.0524 67.4581 68.7821V68.7808C66.2012 67.163 65.9522 66.4688 65.3273 64.2099C64.6001 61.5706 63.7988 60.1132 63.5951 59.1368C63.589 59.108 63.5829 59.0779 63.5769 59.0461C63.3672 57.9628 62.999 54.7033 62.5206 53.8749C62.0272 53.0208 63.9858 52.6073 64.733 53.0826C65.4798 53.5564 67.3419 55.8667 67.2241 57.8554C67.2241 57.8554 68.688 61.4636 69.435 61.3655C69.435 61.3655 69.3382 57.7514 68.8419 56.8686C68.5461 56.3434 68.4707 55.8577 68.46 55.5498C68.4496 55.3415 68.4707 55.2148 68.4707 55.2148C68.4707 55.2148 66.1679 52.7309 65.4919 51.059C64.8143 49.387 63.4879 46.8127 63.233 44.3077C63.233 44.3077 62.9357 42.5074 64.0267 41.6911C64.4431 41.3787 64.8264 41.2912 65.2142 41.8299C65.3726 42.0532 65.5341 42.3822 65.6986 42.8455C67.3328 47.4584 69.352 49.2255 69.352 49.2255C69.352 49.2255 70.6889 49.568 71.6607 50.0253C71.7995 50.0902 71.9579 50.1868 72.133 50.3045H72.1359V50.3059C72.5645 50.5942 73.0868 51.0123 73.6239 51.4211C74.3995 52.0097 75.2068 52.5802 75.8134 52.7128C77.9259 53.1715 78.9416 54.2446 78.9416 54.2446C78.9416 54.2446 80.345 53.9457 81.0873 55.2524C81.8073 56.5169 82.2042 56.7691 82.2042 56.7691C82.2148 56.7691 82.7339 56.7736 83.1594 57.7031C83.9093 59.3419 86.1637 68.0744 86.274 68.4275C87.1807 71.3158 89.8775 74.4154 92.9603 77.1316L92.9617 77.133C93.8023 77.8725 94.6699 78.5833 95.5392 79.2547Z" fill="#FFFFFE"/>
<path fill-rule="evenodd" clip-rule="evenodd" d="M72.1366 50.3064L72.1328 50.3046H72.1366V50.3064Z" fill="#1975DC" fill-opacity="0.1"/>
<path fill-rule="evenodd" clip-rule="evenodd" d="M74.4071 53.8462C74.4071 53.8462 71.9655 53.4054 71.4842 52.2979C71.0042 51.1903 68.9594 48.8256 68.4707 48.6717C68.3809 48.643 68.2972 48.6314 68.2204 48.6314C67.8802 48.6314 67.6754 48.8605 67.6754 48.8605C67.6754 48.8605 66.8288 47.522 66.1919 46.3676C65.5869 45.2705 62.5961 41.9793 65.2142 41.8299C65.3726 42.0532 65.5341 42.3822 65.6985 42.8455C67.3328 47.4584 69.3519 49.2255 69.3519 49.2255C69.3519 49.2255 70.6888 49.568 71.6607 50.0253C71.7994 50.0902 71.9578 50.1868 72.1329 50.3045C72.1013 50.2969 71.8406 50.2323 71.6126 50.2323C71.3851 50.2323 71.1899 50.2966 71.2864 50.5459C71.4842 51.0635 73.0761 52.5046 73.912 53.1369C74.748 53.7707 74.4071 53.8462 74.4071 53.8462Z" fill="#1975DC" fill-opacity="0.1"/>
<path fill-rule="evenodd" clip-rule="evenodd" d="M92.9599 77.1315C91.5791 76.3755 89.4938 75.1277 88.7965 74.1466C87.7222 72.6346 86.9254 71.8788 86.21 71.002C85.5463 70.1913 84.3358 69.5176 84.4141 69.5176C84.4203 69.5176 84.4348 69.5218 84.4582 69.5306C84.7767 69.6499 86.21 70.1433 86.21 70.1433C86.21 70.1433 85.1357 68.8139 84.2996 66.5851C83.4638 64.3562 81.9426 56.5185 80.8123 55.6478C80.7578 55.6058 80.7083 55.5857 80.6638 55.5857C79.7887 55.5857 80.8123 63.3392 80.8123 63.3392C80.8123 63.3392 79.7229 60.9339 79.2053 58.1227C78.6878 55.3099 78.2154 53.929 77.6043 53.5488C77.4806 53.4721 77.3339 53.4438 77.1762 53.4438C76.9509 53.4438 76.7029 53.5016 76.4658 53.5593C76.229 53.6171 76.0032 53.6749 75.8227 53.6749C75.685 53.6749 75.5737 53.6414 75.5037 53.5488C75.1854 53.1293 75.5443 52.9738 73.6235 51.421C74.3992 52.0096 75.2064 52.5801 75.813 52.7128C77.9255 53.1715 78.9412 54.2446 78.9412 54.2446C78.9412 54.2446 79.0794 54.215 79.292 54.215C79.7569 54.215 80.5775 54.3557 81.0869 55.2524C81.8069 56.5169 82.2038 56.7691 82.2038 56.7691C82.2144 56.7691 82.7335 56.7736 83.159 57.7031C83.9089 59.3418 86.1633 68.0744 86.2736 68.4274C87.1803 71.3158 89.8771 74.4153 92.9599 77.1315Z" fill="#1975DC" fill-opacity="0.1"/>
<path fill-rule="evenodd" clip-rule="evenodd" d="M70.1678 63.1362C70.0775 63.1362 69.927 62.9075 69.7854 62.679C69.6437 62.4502 69.5112 62.2215 69.4567 62.2215C69.4466 62.2215 69.4391 62.2295 69.4349 62.2469C69.3839 62.4549 69.243 63.0722 69.1998 63.0722C69.1932 63.0722 69.1889 63.0577 69.1875 63.0254C69.1783 62.7809 67.784 62.0084 67.544 60.8538C67.3057 59.6995 67.1473 59.206 67.028 58.9164C66.9916 58.8271 66.9462 58.8108 66.9006 58.8108C66.8872 58.8108 66.874 58.8122 66.8608 58.8136C66.8476 58.8149 66.8346 58.8163 66.8219 58.8163C66.7493 58.8163 66.6894 58.77 66.6824 58.4092C66.6764 58.0947 66.1642 57.7713 65.5195 57.7713C64.8809 57.7713 64.1124 58.0886 63.5768 59.0461C63.5621 58.9693 63.5464 58.8816 63.5299 58.7845C63.445 58.2833 63.3393 57.5339 63.2151 56.763C63.0308 55.618 62.8059 54.4252 62.548 53.925C62.539 53.9075 62.5298 53.8907 62.5206 53.8749C62.4664 53.7811 62.4419 53.6925 62.4419 53.61C62.4424 53.1574 63.1856 52.8823 63.8723 52.8823C64.2014 52.8823 64.5174 52.9454 64.733 53.0826C65.4572 53.5421 67.2302 55.7285 67.2295 57.6741C67.2295 57.7347 67.2278 57.7953 67.2241 57.8554C67.2241 57.8554 68.6489 61.3676 69.4046 61.3676C69.4148 61.3676 69.4249 61.3669 69.4349 61.3655C69.4349 61.3655 69.3382 57.7514 68.8419 56.8686C68.6887 56.5966 68.5946 56.3351 68.5379 56.1036C68.5233 56.0438 68.5114 55.9864 68.5015 55.931C68.4754 55.7861 68.4638 55.6571 68.46 55.5497L69.1875 55.6479C69.3835 56.0794 69.0004 56.6922 69.1875 57.0029C69.3761 57.3123 70.5515 59.5774 70.1621 60.7483C69.7729 61.9178 70.3297 62.4973 70.2406 63.0254C70.2276 63.1034 70.2021 63.1362 70.1678 63.1362Z" fill="#1975DC" fill-opacity="0.1"/>
<mask id="mask14_5295_93961" style="mask-type:luminance" maskUnits="userSpaceOnUse" x="62" y="41" width="34" height="48">
<path d="M62.355 41.3539H95.624V88.5603H62.355V41.3539Z" fill="#BADDC8"/>
</mask>
<g mask="url(#mask14_5295_93961)">
<path fill-rule="evenodd" clip-rule="evenodd" d="M84.35 84.7581C82.7981 82.8708 80.9587 80.6671 79.623 79.1732C79.5639 79.1072 79.5061 79.0427 79.4493 78.9797C78.8118 78.2732 78.306 77.7511 78.0271 77.5375C77.3839 77.0436 74.5919 75.1131 72.0718 73.1507C72.0247 73.1139 71.9773 73.0771 71.9304 73.0403C71.4464 72.6617 70.9742 72.2827 70.5311 71.9139C70.4839 71.8744 70.437 71.8352 70.3903 71.7959C69.7647 71.2704 69.2025 70.7673 68.7555 70.3163C68.7117 70.272 68.669 70.2284 68.6275 70.1851C68.4571 70.0083 68.306 69.8402 68.1777 69.6831C67.9047 69.348 67.6678 69.0523 67.458 68.782C68.4712 70.0193 69.7088 70.6702 70.2505 70.9628C71.2057 71.479 73.9722 71.925 75.9024 74.02C76.8403 75.0377 77.3752 75.7779 78.5297 77.0516C79.6826 78.3251 81.3543 78.4052 82.3489 80.1572C82.8484 81.0353 83.6768 83.0136 84.35 84.7581Z" fill="#1975DC" fill-opacity="0.1"/>
</g>
<mask id="mask15_5295_93961" style="mask-type:luminance" maskUnits="userSpaceOnUse" x="62" y="41" width="34" height="48">
<path d="M62.355 41.3539H95.624V88.5603H62.355V41.3539Z" fill="#132529"/>
</mask>
<g mask="url(#mask15_5295_93961)">
<path fill-rule="evenodd" clip-rule="evenodd" d="M87.4403 88.4191C87.4401 88.4189 85.4731 85.9684 83.3209 83.3757C82.2449 82.0792 81.1226 80.7473 80.1765 79.668C79.7032 79.1282 79.2742 78.6516 78.9165 78.2737C78.5582 77.8956 78.2734 77.6174 78.0806 77.4689C77.5464 77.0589 75.5627 75.6805 73.4713 74.1105C72.426 73.3258 71.3546 72.4939 70.4267 71.7135C69.4988 70.9332 68.7138 70.203 68.2451 69.6284C67.2939 68.4632 66.7678 67.7591 66.3895 67.0219C66.0109 66.2847 65.7756 65.5056 65.4116 64.1862C65.0465 62.863 64.6631 61.8354 64.3461 61.0181C64.029 60.2011 63.7789 59.5934 63.6796 59.1183C63.5785 58.6372 63.4324 57.5325 63.251 56.4448C63.16 55.9003 63.0601 55.3595 62.9515 54.8993C62.8423 54.4385 62.7273 54.0611 62.5953 53.831C62.5476 53.748 62.5287 53.6754 62.5287 53.6106C62.5288 53.5219 62.5637 53.442 62.6334 53.3639C62.7374 53.2471 62.9222 53.145 63.1443 53.0763C63.3663 53.0068 63.6245 52.9691 63.8736 52.9691C64.1912 52.9686 64.4939 53.0318 64.6862 53.1551C64.8553 53.2621 65.0993 53.4813 65.3635 53.7775C66.1593 54.6659 67.1457 56.2543 67.1429 57.6737C67.1429 57.7331 67.1412 57.792 67.1377 57.8507L67.144 57.8883C67.1445 57.8897 67.5012 58.7689 67.954 59.6509C68.1804 60.0922 68.4305 60.5339 68.6749 60.8694C68.7973 61.0374 68.918 61.1789 69.0372 61.2819C69.1563 61.3837 69.2753 61.4524 69.4045 61.4538L69.4463 61.451C69.4904 61.4453 69.5229 61.4071 69.5219 61.3626C69.5217 61.3616 69.4974 60.4571 69.4109 59.4404C69.3675 58.9319 69.3088 58.3956 69.2292 57.9288C69.1488 57.4615 69.0512 57.0665 68.9172 56.826C68.5973 56.2574 68.5438 55.7372 68.5438 55.4529C68.5438 55.3807 68.5472 55.3237 68.5507 55.2854C68.5523 55.2663 68.554 55.2517 68.5552 55.2423L68.5566 55.2319L68.557 55.2293C68.5613 55.2029 68.5531 55.1758 68.5351 55.1561C68.5349 55.156 68.4995 55.1178 68.4354 55.0469C68.2114 54.7989 67.6407 54.1544 67.0533 53.3908C66.4658 52.6277 65.8616 51.743 65.5719 51.0259C64.892 49.348 63.5707 46.7808 63.319 44.2991L63.3183 44.2937C63.3183 44.2937 63.3163 44.2815 63.313 44.2563C63.3031 44.1812 63.2826 43.9978 63.2826 43.7584C63.2824 43.4655 63.3133 43.0889 63.4291 42.7249C63.545 42.3606 63.744 42.0108 64.079 41.76C64.2742 41.6131 64.4536 41.5268 64.6129 41.5276C64.7643 41.5285 64.9152 41.5985 65.0865 41.8065C65.256 42.0141 65.434 42.3576 65.6169 42.8741C67.2565 47.5021 69.2852 49.2827 69.2949 49.2911L69.3305 49.3098C69.3308 49.3098 69.413 49.3309 69.5528 49.3699C69.9719 49.4866 70.9038 49.7643 71.6237 50.1032C71.8559 50.2119 72.1601 50.4186 72.4993 50.6704C73.009 51.0481 73.6004 51.5278 74.1789 51.9385C74.7584 52.3491 75.3213 52.6928 75.7958 52.7972C76.8407 53.0245 77.6132 53.4035 78.1237 53.7246C78.379 53.885 78.5686 54.0313 78.6942 54.1367C78.7569 54.1895 78.8034 54.232 78.8341 54.261L78.8682 54.2942L78.8786 54.3048C78.8993 54.3267 78.9302 54.3364 78.9597 54.33L78.9644 54.3291C78.9898 54.3243 79.1139 54.3024 79.2935 54.3024C79.5175 54.3024 79.8267 54.3366 80.1386 54.4771C80.4507 54.6179 80.7666 54.863 81.0123 55.2949C81.7358 56.5676 82.1393 56.831 82.157 56.8428C82.1716 56.852 82.1888 56.8567 82.2061 56.8562L82.2037 56.7737V56.8564L82.2061 56.8562L82.2037 56.7737V56.8564H82.2063C82.2266 56.8578 82.3465 56.8687 82.5108 56.9825C82.6749 57.0962 82.8852 57.3145 83.0797 57.7386C83.2633 58.1386 83.5459 58.9924 83.8638 60.0452C84.3413 61.6256 84.9022 63.6607 85.3541 65.3335C85.5801 66.17 85.7789 66.916 85.9264 67.4694C86 67.7461 86.061 67.9748 86.1061 68.1426C86.1514 68.3111 86.1801 68.4163 86.1919 68.4538C86.7754 70.3104 88.0846 72.2414 89.7543 74.103C91.4239 75.9641 93.4552 77.7551 95.487 79.3241C95.5248 79.3534 95.5794 79.3463 95.6087 79.3085C95.6381 79.2704 95.631 79.2159 95.5931 79.1867C93.5676 77.6226 91.5434 75.8375 89.8835 73.987C88.2232 72.1367 86.9285 70.2206 86.3576 68.4019C86.3451 68.3626 86.297 68.1851 86.2235 67.9101C85.9656 66.9448 85.3845 64.7454 84.7859 62.6079C84.4865 61.5389 84.1825 60.4854 83.9121 59.6089C83.6415 58.7317 83.4057 58.0337 83.2376 57.6662C83.0195 57.19 82.772 56.9415 82.5717 56.8144C82.3715 56.6871 82.2211 56.6825 82.2037 56.6827H82.2009L82.2035 56.7696L82.2501 56.6963L82.2369 56.7171L82.2506 56.6964L82.2501 56.6963L82.2369 56.7171L82.2506 56.6964C82.2431 56.6919 81.8557 56.4278 81.1633 55.2091C80.9001 54.7452 80.5514 54.4721 80.21 54.3187C79.8682 54.165 79.5347 54.1289 79.2935 54.1287C79.0722 54.1287 78.9279 54.1593 78.9236 54.1601L78.9416 54.2451L79.0047 54.1855C78.9969 54.1772 77.967 53.0919 75.8326 52.6275C75.5497 52.5664 75.2067 52.3988 74.8414 52.1728C74.293 51.8338 73.6929 51.3654 73.1388 50.9382C72.5835 50.5108 72.0776 50.1252 71.6976 49.946C70.714 49.4839 69.3762 49.1424 69.3736 49.1416L69.352 49.2258L69.4093 49.1603L69.4043 49.156C69.2939 49.0563 67.3592 47.2708 65.7805 42.8161C65.5936 42.2892 65.4111 41.9305 65.2211 41.6968C65.0328 41.4637 64.8258 41.3531 64.6129 41.3539C64.3913 41.355 64.183 41.4656 63.9748 41.6209C63.6033 41.8993 63.3866 42.2847 63.2636 42.6725C63.1403 43.0606 63.1089 43.4535 63.1089 43.7584C63.1089 44.0907 63.1464 44.3187 63.1471 44.322L63.2327 44.3079L63.1462 44.3166C63.4041 46.8442 64.7374 49.4243 65.4109 51.091C65.7565 51.9437 66.5045 52.9844 67.1671 53.818C67.8296 54.6508 68.4067 55.2732 68.4076 55.2742L68.4713 55.2152L68.3856 55.2011C68.385 55.2049 68.3701 55.2973 68.3701 55.4529C68.3701 55.7584 68.4276 56.3097 68.7657 56.9111C68.8796 57.1119 68.9805 57.4997 69.058 57.9582C69.1754 58.6468 69.2484 59.5004 69.2914 60.1805C69.313 60.5207 69.3272 60.8175 69.3361 61.0294C69.3447 61.2411 69.3482 61.367 69.3482 61.3673L69.435 61.3651L69.4238 61.2789L69.4045 61.2801C69.3449 61.2815 69.2541 61.2405 69.1506 61.1504C68.9691 60.9945 68.7563 60.7049 68.5474 60.3623C68.2329 59.8477 67.9215 59.2117 67.6895 58.7056C67.5735 58.4524 67.4772 58.2315 67.41 58.0742C67.3428 57.9167 67.305 57.8232 67.305 57.823L67.2244 57.8557L67.311 57.8607C67.3147 57.7987 67.3166 57.7364 67.3166 57.6737C67.3157 56.6747 66.8647 55.6306 66.3262 54.7744C66.0566 54.3465 65.7645 53.9656 65.4931 53.6619C65.2211 53.3578 64.9722 53.1313 64.7794 53.0085C64.5419 52.8586 64.2133 52.7961 63.8736 52.7954C63.5182 52.7958 63.1509 52.8656 62.8635 52.9978C62.72 53.0641 62.5959 53.1462 62.5043 53.2477C62.413 53.3486 62.3546 53.4729 62.355 53.6106C62.355 53.7103 62.385 53.814 62.4449 53.9179C62.5592 54.1145 62.6761 54.4859 62.7826 54.9392C62.9432 55.62 63.0865 56.4898 63.2088 57.2803C63.331 58.0716 63.4316 58.7817 63.5096 59.1541C63.6153 59.6558 63.868 60.265 64.1843 61.0809C64.5005 61.8963 64.8812 62.9168 65.2442 64.2324C65.6085 65.5521 65.8465 66.3441 66.235 67.1011C66.6237 67.858 67.1584 68.5714 68.1105 69.7381C68.5933 70.3293 69.3829 71.0622 70.3149 71.8463C71.7126 73.0219 73.4291 74.3095 74.8961 75.3802C76.3626 76.4502 77.5815 77.3046 77.9748 77.6067C78.1513 77.7419 78.4356 78.0181 78.7904 78.3932C80.0346 79.7074 82.1646 82.2425 83.9818 84.4472C84.8906 85.5497 85.7213 86.57 86.3249 87.3145C86.6266 87.6867 86.8717 87.9901 87.0412 88.2004C87.2107 88.4108 87.3045 88.5275 87.3048 88.5278C87.3348 88.5653 87.3895 88.5712 87.4269 88.5412C87.4642 88.5111 87.4703 88.4566 87.4403 88.4191Z" fill="#132529"/>
</g>
<path fill-rule="evenodd" clip-rule="evenodd" d="M69.2816 49.2766C69.2826 49.2781 69.7835 49.972 70.4614 50.7339C70.8004 51.1147 71.1835 51.5128 71.5718 51.8506C71.9605 52.188 72.353 52.4659 72.7194 52.6052C72.7644 52.6222 72.8144 52.5996 72.8314 52.5548C72.8485 52.51 72.8259 52.4598 72.7811 52.4428C72.4478 52.317 72.0656 52.0499 71.6859 51.7194C71.1156 51.2238 70.5484 50.5866 70.1251 50.0743C69.9134 49.8181 69.7375 49.593 69.6147 49.432C69.5532 49.3516 69.5051 49.2872 69.4723 49.2429C69.4395 49.1988 69.4224 49.175 69.4224 49.175C69.3943 49.1361 69.34 49.1274 69.3011 49.1554C69.2623 49.1835 69.2535 49.2377 69.2816 49.2766Z" fill="#132529"/>
<path fill-rule="evenodd" clip-rule="evenodd" d="M72.6151 53.2201C73.2898 53.4358 73.8404 53.6081 74.2434 53.8456C74.6465 54.0846 74.9032 54.3769 75.0236 54.8628C75.2735 55.8856 75.9937 58.1805 76.3433 59.091C76.5165 59.5421 76.8117 60.3387 77.0633 61.0224C77.1891 61.3642 77.3041 61.6777 77.3876 61.9059C77.4711 62.1341 77.5231 62.2763 77.5232 62.2767C77.5397 62.3217 77.5896 62.3449 77.6346 62.3284C77.6797 62.3121 77.7028 62.2623 77.6863 62.2171C77.6863 62.2171 76.8532 59.9342 76.5055 59.0287C76.1606 58.1317 75.4383 55.8305 75.1924 54.8215C75.0644 54.2915 74.7624 53.9474 74.3315 53.6959C73.9004 53.4431 73.3419 53.2708 72.6681 53.0547C72.6224 53.0402 72.5736 53.0653 72.5588 53.111C72.5442 53.1567 72.5694 53.2055 72.6151 53.2201Z" fill="#132529"/>
<path fill-rule="evenodd" clip-rule="evenodd" d="M69.3661 61.4179L69.3734 61.4276C69.45 61.5282 70.0782 62.4141 70.0755 63.3448C70.0755 63.4667 70.0651 63.5893 70.0415 63.7114C70.0325 63.7586 70.0632 63.8041 70.1103 63.8132C70.1575 63.8222 70.203 63.7915 70.2121 63.7444C70.2379 63.6105 70.2492 63.4766 70.2492 63.3448C70.2489 62.8076 70.0617 62.3019 69.8765 61.9288C69.691 61.5558 69.5061 61.3153 69.5038 61.3121C69.4746 61.2741 69.4201 61.267 69.3821 61.2962C69.344 61.3253 69.3369 61.3799 69.3661 61.4179Z" fill="#132529"/>
<path fill-rule="evenodd" clip-rule="evenodd" d="M68.9593 61.1699C68.9593 61.1706 68.9575 61.2225 68.9575 61.3121C68.9582 61.6755 68.9818 62.6511 69.2507 63.3696C69.2675 63.4144 69.3175 63.4372 69.3625 63.4203C69.4073 63.4035 69.4301 63.3533 69.4132 63.3085C69.1588 62.6339 69.1305 61.6654 69.1312 61.3121C69.1312 61.2246 69.1328 61.1753 69.1328 61.1753C69.1343 61.1274 69.0966 61.0872 69.0487 61.0857C69.0008 61.0843 68.9606 61.122 68.9593 61.1699Z" fill="#132529"/>
<path fill-rule="evenodd" clip-rule="evenodd" d="M68.4299 55.2917C68.4299 55.2917 68.44 55.2972 68.4598 55.3085C68.5288 55.3481 68.7069 55.4554 68.8839 55.601C69.0614 55.7458 69.2354 55.9313 69.3016 56.1103C69.3184 56.1551 69.3685 56.1779 69.4134 56.1611C69.4582 56.1442 69.481 56.0942 69.4642 56.0492C69.3638 55.7864 69.1251 55.5662 68.9138 55.4032C68.7021 55.2411 68.5149 55.1402 68.5123 55.1388C68.4701 55.1161 68.4174 55.1319 68.3947 55.1741C68.3719 55.2163 68.3877 55.2689 68.4299 55.2917Z" fill="#132529"/>
<path fill-rule="evenodd" clip-rule="evenodd" d="M68.9275 57.3413C68.928 57.3427 69.011 57.5228 69.1392 57.7529C69.2677 57.983 69.4403 58.2628 69.6261 58.4677C69.7022 58.5506 69.7778 58.6958 69.841 58.8644C69.9367 59.1174 70.0089 59.4233 70.0565 59.6643C70.0805 59.7849 70.0982 59.8894 70.11 59.9636C70.1218 60.0377 70.1274 60.081 70.1274 60.081C70.1338 60.1286 70.1774 60.1621 70.225 60.1558C70.2724 60.1496 70.3059 60.1058 70.2996 60.0584C70.2993 60.0567 70.2573 59.7371 70.1699 59.3661C70.1261 59.1807 70.0711 58.9822 70.0034 58.8029C69.9353 58.6237 69.8564 58.4636 69.7547 58.3509C69.5852 58.1649 69.4156 57.8924 69.291 57.6683C69.2284 57.5561 69.1769 57.4559 69.1409 57.3839C69.123 57.3479 69.1089 57.3189 69.0994 57.2989C69.09 57.2791 69.0852 57.2687 69.0852 57.2687C69.065 57.2251 69.0136 57.206 68.97 57.2262C68.9264 57.2463 68.9073 57.2979 68.9275 57.3413Z" fill="#132529"/>
<path fill-rule="evenodd" clip-rule="evenodd" d="M63.6596 59.1939L63.6678 59.1849C63.7107 59.138 63.9167 58.9183 64.2043 58.6986C64.4917 58.4782 64.8614 58.2601 65.2209 58.2078C65.2683 58.2008 65.3012 58.1567 65.294 58.1093C65.2871 58.0619 65.243 58.0291 65.1956 58.036C64.7593 58.1013 64.3474 58.3636 64.0401 58.6064C63.7331 58.8497 63.532 59.0761 63.5297 59.0786C63.4979 59.1143 63.5011 59.1692 63.537 59.2012C63.5728 59.233 63.6277 59.2298 63.6596 59.1939Z" fill="#132529"/>
<path fill-rule="evenodd" clip-rule="evenodd" d="M67.4039 49.1208L67.4086 49.1175C67.4597 49.0787 67.9335 48.7535 68.4114 48.7559C68.5875 48.7561 68.7626 48.7974 68.9263 48.9089C68.9659 48.9358 69.0199 48.9256 69.0469 48.886C69.074 48.8464 69.0637 48.7924 69.0241 48.7653C68.8284 48.6317 68.6148 48.582 68.4114 48.5822C68.1163 48.5826 67.8409 48.6833 67.6375 48.7821C67.4343 48.8813 67.3029 48.9796 67.2999 48.9818C67.2615 49.0107 67.2537 49.065 67.2825 49.1034C67.3112 49.1418 67.3657 49.1496 67.4039 49.1208Z" fill="#132529"/>
<path fill-rule="evenodd" clip-rule="evenodd" d="M82.6391 59.0489C82.6596 59.1046 82.695 59.2316 82.7384 59.4046C82.8916 60.0124 83.1559 61.2094 83.4078 62.3243C83.5337 62.882 83.6565 63.4193 83.7608 63.8533C83.8657 64.288 83.9507 64.6157 84.0057 64.7672C84.0222 64.8123 84.0721 64.8354 84.1172 64.8189C84.1622 64.8024 84.1853 64.7526 84.1688 64.7076C84.1129 64.5557 84.0083 64.1465 83.884 63.6211C83.6969 62.8316 83.462 61.771 83.2563 60.8603C83.1535 60.4049 83.058 59.9869 82.9795 59.6586C82.9005 59.3294 82.8402 59.094 82.8022 58.9893C82.7858 58.9443 82.7358 58.9211 82.6909 58.9376C82.6459 58.9541 82.6226 59.0039 82.6391 59.0489Z" fill="#132529"/>
<path fill-rule="evenodd" clip-rule="evenodd" d="M76.3108 53.8593L76.3131 53.8577C76.3431 53.8369 76.6517 53.6359 77.1066 53.6364C77.4044 53.6366 77.7662 53.7203 78.1662 54.0001C78.6149 54.3145 78.8747 54.5592 79.0809 54.7316C79.184 54.8179 79.2745 54.8871 79.3711 54.9362C79.4675 54.9855 79.5708 55.0124 79.6866 55.0121C79.7799 55.0121 79.8806 54.9958 79.9975 54.9645C80.084 54.9414 80.1655 54.9315 80.2422 54.9315C80.4777 54.9313 80.6724 55.0244 80.8096 55.1198C80.878 55.1672 80.9315 55.2149 80.9675 55.2504C80.9855 55.2681 80.9991 55.2827 81.0079 55.2926L81.0177 55.3037L81.0201 55.3065C81.0501 55.3438 81.1048 55.3497 81.1422 55.3197C81.1795 55.2896 81.1854 55.2349 81.1554 55.1976C81.1517 55.1934 81.0651 55.0857 80.9086 54.977C80.7525 54.8686 80.5244 54.758 80.2422 54.7578C80.1507 54.7578 80.0536 54.7696 79.9527 54.7967C79.8452 54.8254 79.7592 54.8384 79.6866 54.8384C79.5963 54.8381 79.5262 54.8198 79.4498 54.7813C79.3355 54.724 79.2091 54.6146 79.0276 54.4574C78.8459 54.3004 78.6088 54.0981 78.2658 53.8579C77.8388 53.5583 77.4374 53.4624 77.1066 53.4628C76.5659 53.4633 76.2179 53.7125 76.2096 53.7181C76.1707 53.746 76.1616 53.8002 76.1896 53.8393C76.2176 53.8782 76.2717 53.8872 76.3108 53.8593Z" fill="#132529"/>
<path fill-rule="evenodd" clip-rule="evenodd" d="M79.6755 57.0167C79.7619 57.527 79.9895 59.036 80.24 60.5732C80.4908 62.1117 80.7629 63.6749 80.9437 64.3139C80.9567 64.3599 81.0047 64.3868 81.0509 64.3736C81.097 64.3606 81.1238 64.3127 81.1108 64.2665C80.9354 63.6487 80.6613 62.0803 80.4114 60.5452C80.1611 59.0087 79.9338 57.502 79.8468 56.9877C79.8388 56.9405 79.794 56.9085 79.7466 56.9165C79.6993 56.9247 79.6676 56.9695 79.6755 57.0167Z" fill="#132529"/>
</svg>
